<ttFont>
    <TTGlyph name=".notdef" xMin="34" yMin="0" xMax="306" yMax="682">
      <contour>
        <pt x="34" y="0" on="1"/>
        <pt x="34" y="682" on="1"/>
        <pt x="306" y="682" on="1"/>
        <pt x="306" y="0" on="1"/>
      </contour>
      <contour>
        <pt x="68" y="34" on="1"/>
        <pt x="272" y="34" on="1"/>
        <pt x="272" y="648" on="1"/>
        <pt x="68" y="648" on="1"/>
      </contour>
    </TTGlyph>
    <TTGlyph name="A" xMin="9" yMin="0" xMax="599" yMax="563">
      <contour>
        <pt x="231" y="563" on="1"/>
        <pt x="446" y="563" on="1"/>
        <pt x="548" y="47" on="1"/>
        <pt x="599" y="47" on="1"/>
        <pt x="589" y="0" on="1"/>
        <pt x="384" y="0" on="1"/>
        <pt x="394" y="47" on="1"/>
        <pt x="496" y="47" on="1"/>
        <pt x="468" y="186" on="1"/>
        <pt x="209" y="186" on="1"/>
        <pt x="122" y="47" on="1"/>
        <pt x="223" y="47" on="1"/>
        <pt x="214" y="0" on="1"/>
        <pt x="9" y="0" on="1"/>
        <pt x="19" y="47" on="1"/>
        <pt x="71" y="47" on="1"/>
        <pt x="364" y="516" on="1"/>
        <pt x="223" y="516" on="1"/>
      </contour>
      <contour>
        <pt x="461" y="230" on="1"/>
        <pt x="407" y="504" on="1"/>
        <pt x="236" y="230" on="1"/>
      </contour>
    </TTGlyph>
    <TTGlyph name="AE" xMin="17" yMin="0" xMax="666" yMax="563">
      <contour>
        <pt x="275" y="563" on="1"/>
        <pt x="666" y="563" on="1"/>
        <pt x="633" y="383" on="1"/>
        <pt x="587" y="383" on="1"/>
        <pt x="603" y="516" on="1"/>
        <pt x="460" y="516" on="1"/>
        <pt x="419" y="323" on="1"/>
        <pt x="489" y="323" on="1"/>
        <pt x="503" y="395" on="1"/>
        <pt x="548" y="395" on="1"/>
        <pt x="511" y="203" on="1"/>
        <pt x="464" y="203" on="1"/>
        <pt x="479" y="276" on="1"/>
        <pt x="407" y="276" on="1"/>
        <pt x="360" y="47" on="1"/>
        <pt x="511" y="47" on="1"/>
        <pt x="548" y="184" on="1"/>
        <pt x="593" y="184" on="1"/>
        <pt x="554" y="0" on="1"/>
        <pt x="300" y="0" on="1"/>
        <pt x="339" y="184" on="1"/>
        <pt x="219" y="184" on="1"/>
        <pt x="131" y="47" on="1"/>
        <pt x="219" y="47" on="1"/>
        <pt x="209" y="0" on="1"/>
        <pt x="17" y="0" on="1"/>
        <pt x="27" y="47" on="1"/>
        <pt x="80" y="47" on="1"/>
        <pt x="368" y="516" on="1"/>
        <pt x="265" y="516" on="1"/>
      </contour>
      <contour>
        <pt x="348" y="228" on="1"/>
        <pt x="407" y="494" on="1"/>
        <pt x="405" y="496" on="1"/>
        <pt x="243" y="228" on="1"/>
      </contour>
    </TTGlyph>
    <TTGlyph name="Aacute" xMin="9" yMin="0" xMax="599" yMax="751">
      <component glyphName="A" x="0" y="0" flags="0x1004"/>
      <component glyphName="acute" x="0" y="133" flags="0x1004"/>
    </TTGlyph>
    <TTGlyph name="Abreve" xMin="9" yMin="0" xMax="599" yMax="757">
      <component glyphName="A" x="0" y="0" flags="0x1004"/>
      <component glyphName="breve" x="0" y="133" flags="0x1004"/>
    </TTGlyph>
    <TTGlyph name="Acircumflex" xMin="9" yMin="0" xMax="599" yMax="753">
      <component glyphName="A" x="0" y="0" flags="0x1004"/>
      <component glyphName="circumflex" x="0" y="133" flags="0x1004"/>
    </TTGlyph>
    <TTGlyph name="Adieresis" xMin="9" yMin="0" xMax="599" yMax="754">
      <component glyphName="A" x="0" y="0" flags="0x1004"/>
      <component glyphName="dieresis" x="0" y="133" flags="0x1004"/>
    </TTGlyph>
    <TTGlyph name="Agrave" xMin="9" yMin="0" xMax="599" yMax="751">
      <component glyphName="A" x="0" y="0" flags="0x1004"/>
      <component glyphName="grave" x="0" y="133" flags="0x1004"/>
    </TTGlyph>
    <TTGlyph name="Amacron" xMin="9" yMin="0" xMax="599" yMax="725">
      <component glyphName="A" x="0" y="0" flags="0x1004"/>
      <component glyphName="macron" x="0" y="133" flags="0x1004"/>
    </TTGlyph>
    <TTGlyph name="Aogonek" xMin="9" yMin="-117" xMax="599" yMax="563">
      <contour>
        <pt x="536" y="-39" on="1"/>
        <pt x="515" y="-94" on="1"/>
        <pt x="479" y="-117" on="0"/>
        <pt x="452" y="-117" on="1"/>
        <pt x="432" y="-117" on="0"/>
        <pt x="404" y="-92" on="0"/>
        <pt x="404" y="-70" on="1"/>
        <pt x="404" y="-27" on="0"/>
        <pt x="451" y="-2" on="1"/>
        <pt x="451" y="0" on="1"/>
        <pt x="384" y="0" on="1"/>
        <pt x="394" y="47" on="1"/>
        <pt x="496" y="47" on="1"/>
        <pt x="468" y="186" on="1"/>
        <pt x="209" y="186" on="1"/>
        <pt x="122" y="47" on="1"/>
        <pt x="223" y="47" on="1"/>
        <pt x="214" y="0" on="1"/>
        <pt x="9" y="0" on="1"/>
        <pt x="19" y="47" on="1"/>
        <pt x="71" y="47" on="1"/>
        <pt x="364" y="516" on="1"/>
        <pt x="223" y="516" on="1"/>
        <pt x="231" y="563" on="1"/>
        <pt x="446" y="563" on="1"/>
        <pt x="548" y="47" on="1"/>
        <pt x="599" y="47" on="1"/>
        <pt x="589" y="0" on="1"/>
        <pt x="537" y="0" on="1"/>
        <pt x="467" y="-21" on="0"/>
        <pt x="467" y="-52" on="1"/>
        <pt x="467" y="-65" on="0"/>
        <pt x="493" y="-65" on="0"/>
      </contour>
      <contour>
        <pt x="461" y="230" on="1"/>
        <pt x="407" y="504" on="1"/>
        <pt x="236" y="230" on="1"/>
      </contour>
    </TTGlyph>
    <TTGlyph name="Aring" xMin="9" yMin="0" xMax="599" yMax="775">
      <component glyphName="A" x="0" y="0" flags="0x1004"/>
      <component glyphName="ring" x="0" y="133" flags="0x1004"/>
    </TTGlyph>
    <TTGlyph name="Atilde" xMin="9" yMin="0" xMax="599" yMax="753">
      <component glyphName="A" x="0" y="0" flags="0x1004"/>
      <component glyphName="tilde" x="0" y="133" flags="0x1004"/>
    </TTGlyph>
    <TTGlyph name="B" xMin="43" yMin="0" xMax="599" yMax="563">
      <contour>
        <pt x="162" y="563" on="1"/>
        <pt x="434" y="563" on="1"/>
        <pt x="599" y="563" on="0"/>
        <pt x="599" y="446" on="1"/>
        <pt x="599" y="350" on="0"/>
        <pt x="491" y="294" on="1"/>
        <pt x="506" y="288" on="0"/>
        <pt x="525" y="278" on="0"/>
        <pt x="560" y="253" on="0"/>
        <pt x="578" y="210" on="0"/>
        <pt x="578" y="182" on="1"/>
        <pt x="578" y="145" on="0"/>
        <pt x="541" y="73" on="0"/>
        <pt x="511" y="49" on="1"/>
        <pt x="484" y="27" on="0"/>
        <pt x="404" y="4" on="0"/>
        <pt x="350" y="0" on="0"/>
        <pt x="309" y="0" on="1"/>
        <pt x="43" y="0" on="1"/>
        <pt x="53" y="47" on="1"/>
        <pt x="136" y="47" on="1"/>
        <pt x="234" y="516" on="1"/>
        <pt x="152" y="516" on="1"/>
      </contour>
      <contour>
        <pt x="426" y="516" on="1"/>
        <pt x="286" y="516" on="1"/>
        <pt x="243" y="317" on="1"/>
        <pt x="375" y="317" on="1"/>
        <pt x="421" y="317" on="0"/>
        <pt x="490" y="342" on="0"/>
        <pt x="523" y="373" on="0"/>
        <pt x="543" y="413" on="0"/>
        <pt x="547" y="433" on="0"/>
        <pt x="547" y="439" on="1"/>
        <pt x="547" y="516" on="0"/>
      </contour>
      <contour>
        <pt x="361" y="270" on="1"/>
        <pt x="234" y="270" on="1"/>
        <pt x="186" y="47" on="1"/>
        <pt x="314" y="47" on="1"/>
        <pt x="434" y="47" on="0"/>
        <pt x="478" y="82" on="1"/>
        <pt x="526" y="120" on="0"/>
        <pt x="526" y="179" on="1"/>
        <pt x="526" y="270" on="0"/>
      </contour>
    </TTGlyph>
    <TTGlyph name="C" xMin="117" yMin="-17" xMax="675" yMax="580">
      <contour>
        <pt x="635" y="563" on="1"/>
        <pt x="675" y="555" on="1"/>
        <pt x="675" y="554" on="0"/>
        <pt x="670" y="539" on="1"/>
        <pt x="667" y="530" on="0"/>
        <pt x="652" y="486" on="0"/>
        <pt x="649" y="475" on="0"/>
        <pt x="639" y="443" on="0"/>
        <pt x="636" y="430" on="0"/>
        <pt x="630" y="404" on="0"/>
        <pt x="627" y="382" on="0"/>
        <pt x="625" y="368" on="1"/>
        <pt x="581" y="368" on="1"/>
        <pt x="584" y="389" on="0"/>
        <pt x="584" y="408" on="1"/>
        <pt x="584" y="445" on="0"/>
        <pt x="553" y="498" on="0"/>
        <pt x="505" y="521" on="0"/>
        <pt x="467" y="530" on="0"/>
        <pt x="450" y="530" on="1"/>
        <pt x="335" y="530" on="0"/>
        <pt x="171" y="340" on="0"/>
        <pt x="171" y="207" on="1"/>
        <pt x="171" y="132" on="0"/>
        <pt x="252" y="33" on="0"/>
        <pt x="347" y="33" on="1"/>
        <pt x="452" y="33" on="0"/>
        <pt x="546" y="100" on="1"/>
        <pt x="550" y="104" on="0"/>
        <pt x="552" y="104" on="1"/>
        <pt x="581" y="62" on="1"/>
        <pt x="551" y="41" on="0"/>
        <pt x="506" y="15" on="0"/>
        <pt x="401" y="-17" on="0"/>
        <pt x="344" y="-17" on="1"/>
        <pt x="227" y="-17" on="0"/>
        <pt x="117" y="108" on="0"/>
        <pt x="117" y="208" on="1"/>
        <pt x="117" y="361" on="0"/>
        <pt x="318" y="580" on="0"/>
        <pt x="452" y="580" on="1"/>
        <pt x="524" y="580" on="0"/>
        <pt x="573" y="533" on="1"/>
        <pt x="574" y="532" on="0"/>
        <pt x="590" y="514" on="0"/>
        <pt x="603" y="501" on="0"/>
        <pt x="604" y="501" on="1"/>
        <pt x="611" y="501" on="0"/>
        <pt x="626" y="538" on="1"/>
        <pt x="629" y="546" on="0"/>
        <pt x="634" y="560" on="0"/>
      </contour>
    </TTGlyph>
    <TTGlyph name="Cacute" xMin="117" yMin="-17" xMax="675" yMax="751">
      <component glyphName="C" x="0" y="0" flags="0x1004"/>
      <component glyphName="acute" x="53" y="133" flags="0x1004"/>
    </TTGlyph>
    <TTGlyph name="Ccaron" xMin="117" yMin="-17" xMax="675" yMax="753">
      <component glyphName="C" x="0" y="0" flags="0x1004"/>
      <component glyphName="caron" x="53" y="133" flags="0x1004"/>
    </TTGlyph>
    <TTGlyph name="Ccedilla" xMin="117" yMin="-142" xMax="676" yMax="580">
      <contour>
        <pt x="356" y="-16" on="1"/>
        <pt x="356" y="-23" on="1"/>
        <pt x="413" y="-34" on="0"/>
        <pt x="413" y="-78" on="1"/>
        <pt x="413" y="-106" on="0"/>
        <pt x="366" y="-142" on="0"/>
        <pt x="323" y="-142" on="1"/>
        <pt x="272" y="-142" on="0"/>
        <pt x="212" y="-127" on="1"/>
        <pt x="228" y="-83" on="1"/>
        <pt x="279" y="-97" on="0"/>
        <pt x="325" y="-97" on="1"/>
        <pt x="365" y="-97" on="0"/>
        <pt x="365" y="-79" on="1"/>
        <pt x="365" y="-73" on="0"/>
        <pt x="360" y="-67" on="0"/>
        <pt x="330" y="-61" on="0"/>
        <pt x="298" y="-60" on="1"/>
        <pt x="313" y="-16" on="1"/>
        <pt x="291" y="-14" on="0"/>
        <pt x="258" y="-7" on="0"/>
        <pt x="193" y="21" on="0"/>
        <pt x="151" y="65" on="0"/>
        <pt x="117" y="151" on="0"/>
        <pt x="117" y="208" on="1"/>
        <pt x="117" y="360" on="0"/>
        <pt x="318" y="580" on="0"/>
        <pt x="452" y="580" on="1"/>
        <pt x="525" y="580" on="0"/>
        <pt x="574" y="533" on="1"/>
        <pt x="575" y="532" on="0"/>
        <pt x="590" y="514" on="0"/>
        <pt x="603" y="501" on="0"/>
        <pt x="605" y="501" on="1"/>
        <pt x="612" y="501" on="0"/>
        <pt x="622" y="525" on="1"/>
        <pt x="636" y="563" on="1"/>
        <pt x="676" y="555" on="1"/>
        <pt x="649" y="480" on="0"/>
        <pt x="632" y="420" on="0"/>
        <pt x="626" y="368" on="1"/>
        <pt x="582" y="368" on="1"/>
        <pt x="585" y="389" on="0"/>
        <pt x="585" y="408" on="1"/>
        <pt x="585" y="445" on="0"/>
        <pt x="554" y="498" on="0"/>
        <pt x="506" y="521" on="0"/>
        <pt x="467" y="530" on="0"/>
        <pt x="450" y="530" on="1"/>
        <pt x="335" y="530" on="0"/>
        <pt x="171" y="340" on="0"/>
        <pt x="171" y="207" on="1"/>
        <pt x="171" y="132" on="0"/>
        <pt x="252" y="33" on="0"/>
        <pt x="347" y="33" on="1"/>
        <pt x="394" y="33" on="0"/>
        <pt x="483" y="60" on="0"/>
        <pt x="523" y="83" on="0"/>
        <pt x="553" y="104" on="1"/>
        <pt x="582" y="62" on="1"/>
        <pt x="529" y="26" on="0"/>
        <pt x="430" y="-13" on="0"/>
      </contour>
    </TTGlyph>
    <TTGlyph name="Ccircumflex" xMin="117" yMin="-17" xMax="675" yMax="753">
      <component glyphName="C" x="0" y="0" flags="0x1004"/>
      <component glyphName="circumflex" x="53" y="133" flags="0x1004"/>
    </TTGlyph>
    <TTGlyph name="Cdotaccent" xMin="117" yMin="-17" xMax="675" yMax="754">
      <component glyphName="C" x="0" y="0" flags="0x1004"/>
      <component glyphName="dotaccent" x="53" y="133" flags="0x1004"/>
    </TTGlyph>
    <TTGlyph name="D" xMin="32" yMin="0" xMax="620" yMax="563">
      <contour>
        <pt x="152" y="563" on="1"/>
        <pt x="400" y="563" on="1"/>
        <pt x="507" y="563" on="0"/>
        <pt x="551" y="532" on="1"/>
        <pt x="583" y="509" on="0"/>
        <pt x="620" y="423" on="0"/>
        <pt x="620" y="375" on="1"/>
        <pt x="620" y="343" on="0"/>
        <pt x="608" y="266" on="0"/>
        <pt x="557" y="139" on="0"/>
        <pt x="514" y="91" on="1"/>
        <pt x="434" y="0" on="0"/>
        <pt x="280" y="0" on="1"/>
        <pt x="32" y="0" on="1"/>
        <pt x="42" y="47" on="1"/>
        <pt x="121" y="47" on="1"/>
        <pt x="221" y="516" on="1"/>
        <pt x="142" y="516" on="1"/>
      </contour>
      <contour>
        <pt x="394" y="516" on="1"/>
        <pt x="272" y="516" on="1"/>
        <pt x="172" y="47" on="1"/>
        <pt x="287" y="47" on="1"/>
        <pt x="413" y="47" on="0"/>
        <pt x="477" y="122" on="1"/>
        <pt x="525" y="178" on="0"/>
        <pt x="566" y="311" on="0"/>
        <pt x="566" y="360" on="1"/>
        <pt x="566" y="449" on="0"/>
        <pt x="516" y="489" on="1"/>
        <pt x="484" y="516" on="0"/>
      </contour>
    </TTGlyph>
    <TTGlyph name="Dcaron" xMin="32" yMin="0" xMax="620" yMax="753">
      <component glyphName="D" x="0" y="0" flags="0x1004"/>
      <component glyphName="caron" x="33" y="133" flags="0x1004"/>
    </TTGlyph>
    <TTGlyph name="E" xMin="55" yMin="0" xMax="651" yMax="563">
      <contour>
        <pt x="175" y="563" on="1"/>
        <pt x="651" y="563" on="1"/>
        <pt x="616" y="379" on="1"/>
        <pt x="570" y="379" on="1"/>
        <pt x="589" y="516" on="1"/>
        <pt x="301" y="516" on="1"/>
        <pt x="259" y="321" on="1"/>
        <pt x="421" y="321" on="1"/>
        <pt x="437" y="394" on="1"/>
        <pt x="483" y="394" on="1"/>
        <pt x="442" y="202" on="1"/>
        <pt x="396" y="202" on="1"/>
        <pt x="411" y="274" on="1"/>
        <pt x="250" y="274" on="1"/>
        <pt x="201" y="47" on="1"/>
        <pt x="499" y="47" on="1"/>
        <pt x="533" y="184" on="1"/>
        <pt x="580" y="184" on="1"/>
        <pt x="541" y="0" on="1"/>
        <pt x="55" y="0" on="1"/>
        <pt x="65" y="47" on="1"/>
        <pt x="151" y="47" on="1"/>
        <pt x="250" y="516" on="1"/>
        <pt x="165" y="516" on="1"/>
      </contour>
    </TTGlyph>
    <TTGlyph name="Eacute" xMin="55" yMin="0" xMax="651" yMax="751">
      <component glyphName="E" x="0" y="0" flags="0x1004"/>
      <component glyphName="acute" x="53" y="133" flags="0x1004"/>
    </TTGlyph>
    <TTGlyph name="Ecaron" xMin="55" yMin="0" xMax="651" yMax="753">
      <component glyphName="E" x="0" y="0" flags="0x1004"/>
      <component glyphName="caron" x="53" y="133" flags="0x1004"/>
    </TTGlyph>
    <TTGlyph name="Ecircumflex" xMin="55" yMin="0" xMax="651" yMax="753">
      <component glyphName="E" x="0" y="0" flags="0x1004"/>
      <component glyphName="circumflex" x="53" y="133" flags="0x1004"/>
    </TTGlyph>
    <TTGlyph name="Edieresis" xMin="55" yMin="0" xMax="651" yMax="754">
      <component glyphName="E" x="0" y="0" flags="0x1004"/>
      <component glyphName="dieresis" x="53" y="133" flags="0x1004"/>
    </TTGlyph>
    <TTGlyph name="Edotaccent" xMin="55" yMin="0" xMax="651" yMax="754">
      <component glyphName="E" x="0" y="0" flags="0x1004"/>
      <component glyphName="dotaccent" x="53" y="133" flags="0x1004"/>
    </TTGlyph>
    <TTGlyph name="Egrave" xMin="55" yMin="0" xMax="651" yMax="751">
      <component glyphName="E" x="0" y="0" flags="0x1004"/>
      <component glyphName="grave" x="53" y="133" flags="0x1004"/>
    </TTGlyph>
    <TTGlyph name="Emacron" xMin="55" yMin="0" xMax="651" yMax="725">
      <component glyphName="E" x="0" y="0" flags="0x1004"/>
      <component glyphName="macron" x="53" y="133" flags="0x1004"/>
    </TTGlyph>
    <TTGlyph name="Eng" xMin="42" yMin="-137" xMax="616" yMax="576">
      <contour>
        <pt x="162" y="563" on="1"/>
        <pt x="297" y="563" on="1"/>
        <pt x="283" y="497" on="1"/>
        <pt x="323" y="520" on="0"/>
        <pt x="366" y="543" on="0"/>
        <pt x="461" y="576" on="0"/>
        <pt x="500" y="576" on="1"/>
        <pt x="536" y="576" on="0"/>
        <pt x="587" y="549" on="0"/>
        <pt x="608" y="506" on="0"/>
        <pt x="616" y="471" on="0"/>
        <pt x="616" y="453" on="1"/>
        <pt x="616" y="434" on="0"/>
        <pt x="611" y="409" on="1"/>
        <pt x="529" y="21" on="1"/>
        <pt x="513" y="-55" on="0"/>
        <pt x="401" y="-137" on="0"/>
        <pt x="341" y="-137" on="1"/>
        <pt x="263" y="-137" on="1"/>
        <pt x="273" y="-85" on="1"/>
        <pt x="348" y="-85" on="1"/>
        <pt x="380" y="-85" on="0"/>
        <pt x="430" y="-61" on="0"/>
        <pt x="460" y="-25" on="0"/>
        <pt x="476" y="7" on="0"/>
        <pt x="479" y="21" on="1"/>
        <pt x="561" y="413" on="1"/>
        <pt x="565" y="431" on="0"/>
        <pt x="565" y="450" on="1"/>
        <pt x="565" y="488" on="0"/>
        <pt x="523" y="524" on="0"/>
        <pt x="488" y="524" on="1"/>
        <pt x="437" y="524" on="0"/>
        <pt x="315" y="468" on="0"/>
        <pt x="269" y="430" on="1"/>
        <pt x="187" y="47" on="1"/>
        <pt x="273" y="47" on="1"/>
        <pt x="263" y="0" on="1"/>
        <pt x="42" y="0" on="1"/>
        <pt x="52" y="47" on="1"/>
        <pt x="137" y="47" on="1"/>
        <pt x="236" y="516" on="1"/>
        <pt x="152" y="516" on="1"/>
      </contour>
    </TTGlyph>
    <TTGlyph name="Eogonek" xMin="55" yMin="-117" xMax="651" yMax="563">
      <contour>
        <pt x="487" y="-39" on="1"/>
        <pt x="466" y="-94" on="1"/>
        <pt x="430" y="-117" on="0"/>
        <pt x="403" y="-117" on="1"/>
        <pt x="383" y="-117" on="0"/>
        <pt x="354" y="-92" on="0"/>
        <pt x="354" y="-70" on="1"/>
        <pt x="354" y="-28" on="0"/>
        <pt x="402" y="-2" on="1"/>
        <pt x="402" y="0" on="1"/>
        <pt x="55" y="0" on="1"/>
        <pt x="65" y="47" on="1"/>
        <pt x="151" y="47" on="1"/>
        <pt x="250" y="516" on="1"/>
        <pt x="165" y="516" on="1"/>
        <pt x="175" y="563" on="1"/>
        <pt x="651" y="563" on="1"/>
        <pt x="616" y="379" on="1"/>
        <pt x="570" y="379" on="1"/>
        <pt x="589" y="516" on="1"/>
        <pt x="301" y="516" on="1"/>
        <pt x="259" y="321" on="1"/>
        <pt x="421" y="321" on="1"/>
        <pt x="437" y="394" on="1"/>
        <pt x="483" y="394" on="1"/>
        <pt x="442" y="202" on="1"/>
        <pt x="396" y="202" on="1"/>
        <pt x="411" y="274" on="1"/>
        <pt x="250" y="274" on="1"/>
        <pt x="201" y="47" on="1"/>
        <pt x="499" y="47" on="1"/>
        <pt x="533" y="184" on="1"/>
        <pt x="580" y="184" on="1"/>
        <pt x="541" y="0" on="1"/>
        <pt x="488" y="0" on="1"/>
        <pt x="417" y="-21" on="0"/>
        <pt x="417" y="-52" on="1"/>
        <pt x="417" y="-65" on="0"/>
        <pt x="431" y="-65" on="1"/>
        <pt x="444" y="-65" on="0"/>
      </contour>
    </TTGlyph>
    <TTGlyph name="Eth" xMin="32" yMin="0" xMax="620" yMax="563">
      <contour>
        <pt x="170" y="274" on="1"/>
        <pt x="90" y="274" on="1"/>
        <pt x="100" y="321" on="1"/>
        <pt x="180" y="321" on="1"/>
        <pt x="220" y="516" on="1"/>
        <pt x="142" y="516" on="1"/>
        <pt x="152" y="563" on="1"/>
        <pt x="400" y="563" on="1"/>
        <pt x="508" y="563" on="0"/>
        <pt x="551" y="532" on="1"/>
        <pt x="583" y="509" on="0"/>
        <pt x="620" y="423" on="0"/>
        <pt x="620" y="375" on="1"/>
        <pt x="620" y="345" on="0"/>
        <pt x="609" y="270" on="0"/>
        <pt x="558" y="140" on="0"/>
        <pt x="515" y="91" on="1"/>
        <pt x="435" y="0" on="0"/>
        <pt x="280" y="0" on="1"/>
        <pt x="32" y="0" on="1"/>
        <pt x="42" y="47" on="1"/>
        <pt x="121" y="47" on="1"/>
      </contour>
      <contour>
        <pt x="385" y="274" on="1"/>
        <pt x="220" y="274" on="1"/>
        <pt x="170" y="47" on="1"/>
        <pt x="287" y="47" on="1"/>
        <pt x="413" y="47" on="0"/>
        <pt x="477" y="122" on="1"/>
        <pt x="525" y="179" on="0"/>
        <pt x="566" y="312" on="0"/>
        <pt x="566" y="360" on="1"/>
        <pt x="566" y="448" on="0"/>
        <pt x="516" y="489" on="1"/>
        <pt x="484" y="516" on="0"/>
        <pt x="395" y="516" on="1"/>
        <pt x="272" y="516" on="1"/>
        <pt x="231" y="321" on="1"/>
        <pt x="395" y="321" on="1"/>
      </contour>
    </TTGlyph>
    <TTGlyph name="F" xMin="72" yMin="0" xMax="659" yMax="563">
      <contour>
        <pt x="192" y="563" on="1"/>
        <pt x="659" y="563" on="1"/>
        <pt x="626" y="383" on="1"/>
        <pt x="581" y="383" on="1"/>
        <pt x="598" y="516" on="1"/>
        <pt x="312" y="516" on="1"/>
        <pt x="270" y="321" on="1"/>
        <pt x="432" y="321" on="1"/>
        <pt x="448" y="395" on="1"/>
        <pt x="493" y="395" on="1"/>
        <pt x="453" y="204" on="1"/>
        <pt x="407" y="204" on="1"/>
        <pt x="422" y="274" on="1"/>
        <pt x="262" y="274" on="1"/>
        <pt x="212" y="47" on="1"/>
        <pt x="342" y="47" on="1"/>
        <pt x="332" y="0" on="1"/>
        <pt x="72" y="0" on="1"/>
        <pt x="82" y="47" on="1"/>
        <pt x="164" y="47" on="1"/>
        <pt x="262" y="516" on="1"/>
        <pt x="182" y="516" on="1"/>
      </contour>
    </TTGlyph>
    <TTGlyph name="G" xMin="98" yMin="-17" xMax="659" yMax="580">
      <contour>
        <pt x="382" y="247" on="1"/>
        <pt x="629" y="247" on="1"/>
        <pt x="619" y="201" on="1"/>
        <pt x="571" y="201" on="1"/>
        <pt x="535" y="31" on="1"/>
        <pt x="412" y="-17" on="0"/>
        <pt x="320" y="-17" on="1"/>
        <pt x="214" y="-17" on="0"/>
        <pt x="98" y="102" on="0"/>
        <pt x="98" y="204" on="1"/>
        <pt x="98" y="296" on="0"/>
        <pt x="184" y="468" on="0"/>
        <pt x="339" y="580" on="0"/>
        <pt x="431" y="580" on="1"/>
        <pt x="476" y="580" on="0"/>
        <pt x="551" y="542" on="0"/>
        <pt x="572" y="510" on="1"/>
        <pt x="582" y="500" on="1"/>
        <pt x="585" y="500" on="0"/>
        <pt x="593" y="513" on="0"/>
        <pt x="601" y="531" on="0"/>
        <pt x="608" y="549" on="0"/>
        <pt x="610" y="556" on="1"/>
        <pt x="613" y="563" on="1"/>
        <pt x="659" y="555" on="1"/>
        <pt x="621" y="450" on="0"/>
        <pt x="613" y="372" on="1"/>
        <pt x="565" y="364" on="1"/>
        <pt x="569" y="430" on="0"/>
        <pt x="551" y="465" on="1"/>
        <pt x="517" y="530" on="0"/>
        <pt x="426" y="530" on="1"/>
        <pt x="315" y="530" on="0"/>
        <pt x="152" y="334" on="0"/>
        <pt x="152" y="205" on="1"/>
        <pt x="152" y="127" on="0"/>
        <pt x="239" y="33" on="0"/>
        <pt x="330" y="33" on="1"/>
        <pt x="392" y="33" on="0"/>
        <pt x="492" y="66" on="1"/>
        <pt x="521" y="201" on="1"/>
        <pt x="372" y="201" on="1"/>
      </contour>
    </TTGlyph>
    <TTGlyph name="Gamma" xMin="63" yMin="0" xMax="651" yMax="563">
      <contour>
        <pt x="170" y="563" on="1"/>
        <pt x="651" y="563" on="1"/>
        <pt x="616" y="380" on="1"/>
        <pt x="569" y="380" on="1"/>
        <pt x="589" y="516" on="1"/>
        <pt x="301" y="516" on="1"/>
        <pt x="202" y="47" on="1"/>
        <pt x="333" y="47" on="1"/>
        <pt x="323" y="0" on="1"/>
        <pt x="63" y="0" on="1"/>
        <pt x="73" y="47" on="1"/>
        <pt x="151" y="47" on="1"/>
        <pt x="251" y="516" on="1"/>
        <pt x="160" y="516" on="1"/>
      </contour>
    </TTGlyph>
    <TTGlyph name="Gbreve" xMin="98" yMin="-17" xMax="659" yMax="757">
      <component glyphName="G" x="0" y="0" flags="0x1004"/>
      <component glyphName="breve" x="53" y="133" flags="0x1004"/>
    </TTGlyph>
    <TTGlyph name="Gcedilla" xMin="98" yMin="-142" xMax="659" yMax="580">
      <contour>
        <pt x="354" y="-15" on="1"/>
        <pt x="352" y="-22" on="1"/>
        <pt x="409" y="-31" on="0"/>
        <pt x="409" y="-78" on="1"/>
        <pt x="409" y="-105" on="0"/>
        <pt x="364" y="-142" on="0"/>
        <pt x="319" y="-142" on="1"/>
        <pt x="283" y="-142" on="0"/>
        <pt x="208" y="-127" on="1"/>
        <pt x="225" y="-83" on="1"/>
        <pt x="275" y="-97" on="0"/>
        <pt x="322" y="-97" on="1"/>
        <pt x="362" y="-97" on="0"/>
        <pt x="362" y="-78" on="1"/>
        <pt x="362" y="-72" on="0"/>
        <pt x="357" y="-67" on="0"/>
        <pt x="326" y="-61" on="0"/>
        <pt x="294" y="-60" on="1"/>
        <pt x="308" y="-17" on="1"/>
        <pt x="198" y="-13" on="0"/>
        <pt x="98" y="113" on="0"/>
        <pt x="98" y="204" on="1"/>
        <pt x="98" y="296" on="0"/>
        <pt x="184" y="468" on="0"/>
        <pt x="339" y="580" on="0"/>
        <pt x="431" y="580" on="1"/>
        <pt x="507" y="580" on="0"/>
        <pt x="557" y="530" on="1"/>
        <pt x="558" y="529" on="0"/>
        <pt x="569" y="512" on="0"/>
        <pt x="579" y="500" on="0"/>
        <pt x="585" y="500" on="0"/>
        <pt x="593" y="513" on="0"/>
        <pt x="601" y="531" on="0"/>
        <pt x="608" y="549" on="0"/>
        <pt x="610" y="556" on="1"/>
        <pt x="613" y="563" on="1"/>
        <pt x="659" y="555" on="1"/>
        <pt x="621" y="450" on="0"/>
        <pt x="613" y="372" on="1"/>
        <pt x="565" y="364" on="1"/>
        <pt x="569" y="430" on="0"/>
        <pt x="551" y="465" on="1"/>
        <pt x="517" y="530" on="0"/>
        <pt x="426" y="530" on="1"/>
        <pt x="315" y="530" on="0"/>
        <pt x="152" y="335" on="0"/>
        <pt x="152" y="206" on="1"/>
        <pt x="152" y="128" on="0"/>
        <pt x="239" y="33" on="0"/>
        <pt x="330" y="33" on="1"/>
        <pt x="392" y="33" on="0"/>
        <pt x="492" y="66" on="1"/>
        <pt x="521" y="201" on="1"/>
        <pt x="372" y="201" on="1"/>
        <pt x="382" y="247" on="1"/>
        <pt x="629" y="247" on="1"/>
        <pt x="619" y="201" on="1"/>
        <pt x="571" y="201" on="1"/>
        <pt x="535" y="31" on="1"/>
        <pt x="435" y="-7" on="0"/>
      </contour>
    </TTGlyph>
    <TTGlyph name="Gcircumflex" xMin="98" yMin="-17" xMax="659" yMax="753">
      <component glyphName="G" x="0" y="0" flags="0x1004"/>
      <component glyphName="circumflex" x="53" y="133" flags="0x1004"/>
    </TTGlyph>
    <TTGlyph name="Gdotaccent" xMin="98" yMin="-17" xMax="659" yMax="807">
      <component glyphName="G" x="0" y="0" flags="0x1004"/>
      <component glyphName="dotaccent" x="53" y="186" flags="0x1004"/>
    </TTGlyph>
    <TTGlyph name="H" xMin="37" yMin="0" xMax="680" yMax="563">
      <contour>
        <pt x="157" y="563" on="1"/>
        <pt x="359" y="563" on="1"/>
        <pt x="347" y="516" on="1"/>
        <pt x="272" y="516" on="1"/>
        <pt x="229" y="314" on="1"/>
        <pt x="502" y="314" on="1"/>
        <pt x="544" y="516" on="1"/>
        <pt x="470" y="516" on="1"/>
        <pt x="480" y="563" on="1"/>
        <pt x="680" y="563" on="1"/>
        <pt x="670" y="516" on="1"/>
        <pt x="595" y="516" on="1"/>
        <pt x="494" y="47" on="1"/>
        <pt x="570" y="47" on="1"/>
        <pt x="560" y="0" on="1"/>
        <pt x="359" y="0" on="1"/>
        <pt x="370" y="47" on="1"/>
        <pt x="445" y="47" on="1"/>
        <pt x="494" y="267" on="1"/>
        <pt x="221" y="267" on="1"/>
        <pt x="173" y="47" on="1"/>
        <pt x="248" y="47" on="1"/>
        <pt x="237" y="0" on="1"/>
        <pt x="37" y="0" on="1"/>
        <pt x="47" y="47" on="1"/>
        <pt x="122" y="47" on="1"/>
        <pt x="221" y="516" on="1"/>
        <pt x="147" y="516" on="1"/>
      </contour>
    </TTGlyph>
    <TTGlyph name="Hbar" xMin="37" yMin="0" xMax="680" yMax="563">
      <contour>
        <pt x="257" y="445" on="1"/>
        <pt x="528" y="445" on="1"/>
        <pt x="544" y="516" on="1"/>
        <pt x="469" y="516" on="1"/>
        <pt x="479" y="563" on="1"/>
        <pt x="680" y="563" on="1"/>
        <pt x="670" y="516" on="1"/>
        <pt x="594" y="516" on="1"/>
        <pt x="580" y="445" on="1"/>
        <pt x="656" y="445" on="1"/>
        <pt x="645" y="398" on="1"/>
        <pt x="570" y="398" on="1"/>
        <pt x="493" y="47" on="1"/>
        <pt x="570" y="47" on="1"/>
        <pt x="560" y="0" on="1"/>
        <pt x="358" y="0" on="1"/>
        <pt x="370" y="47" on="1"/>
        <pt x="445" y="47" on="1"/>
        <pt x="493" y="267" on="1"/>
        <pt x="221" y="267" on="1"/>
        <pt x="173" y="47" on="1"/>
        <pt x="248" y="47" on="1"/>
        <pt x="237" y="0" on="1"/>
        <pt x="37" y="0" on="1"/>
        <pt x="47" y="47" on="1"/>
        <pt x="122" y="47" on="1"/>
        <pt x="197" y="398" on="1"/>
        <pt x="121" y="398" on="1"/>
        <pt x="132" y="445" on="1"/>
        <pt x="207" y="445" on="1"/>
        <pt x="221" y="516" on="1"/>
        <pt x="146" y="516" on="1"/>
        <pt x="157" y="563" on="1"/>
        <pt x="358" y="563" on="1"/>
        <pt x="347" y="516" on="1"/>
        <pt x="272" y="516" on="1"/>
      </contour>
      <contour>
        <pt x="519" y="398" on="1"/>
        <pt x="248" y="398" on="1"/>
        <pt x="229" y="314" on="1"/>
        <pt x="502" y="314" on="1"/>
      </contour>
    </TTGlyph>
    <TTGlyph name="Hcircumflex" xMin="37" yMin="0" xMax="680" yMax="753">
      <component glyphName="H" x="0" y="0" flags="0x1004"/>
      <component glyphName="circumflex" x="30" y="133" flags="0x1004"/>
    </TTGlyph>
    <TTGlyph name="I" xMin="98" yMin="0" xMax="618" yMax="563">
      <contour>
        <pt x="218" y="563" on="1"/>
        <pt x="618" y="563" on="1"/>
        <pt x="608" y="516" on="1"/>
        <pt x="433" y="516" on="1"/>
        <pt x="334" y="47" on="1"/>
        <pt x="508" y="47" on="1"/>
        <pt x="498" y="0" on="1"/>
        <pt x="98" y="0" on="1"/>
        <pt x="108" y="47" on="1"/>
        <pt x="283" y="47" on="1"/>
        <pt x="382" y="516" on="1"/>
        <pt x="208" y="516" on="1"/>
      </contour>
    </TTGlyph>
    <TTGlyph name="IJ" xMin="37" yMin="-17" xMax="694" yMax="563">
      <contour>
        <pt x="157" y="563" on="1"/>
        <pt x="382" y="563" on="1"/>
        <pt x="372" y="516" on="1"/>
        <pt x="285" y="516" on="1"/>
        <pt x="185" y="47" on="1"/>
        <pt x="270" y="47" on="1"/>
        <pt x="260" y="0" on="1"/>
        <pt x="37" y="0" on="1"/>
        <pt x="47" y="47" on="1"/>
        <pt x="135" y="47" on="1"/>
        <pt x="234" y="516" on="1"/>
        <pt x="147" y="516" on="1"/>
      </contour>
      <contour>
        <pt x="482" y="563" on="1"/>
        <pt x="694" y="563" on="1"/>
        <pt x="684" y="516" on="1"/>
        <pt x="620" y="516" on="1"/>
        <pt x="554" y="204" on="1"/>
        <pt x="546" y="164" on="0"/>
        <pt x="535" y="119" on="0"/>
        <pt x="509" y="49" on="0"/>
        <pt x="481" y="12" on="0"/>
        <pt x="433" y="-17" on="0"/>
        <pt x="403" y="-17" on="1"/>
        <pt x="332" y="-17" on="0"/>
        <pt x="303" y="47" on="1"/>
        <pt x="334" y="215" on="1"/>
        <pt x="384" y="215" on="1"/>
        <pt x="376" y="165" on="1"/>
        <pt x="363" y="89" on="0"/>
        <pt x="363" y="76" on="1"/>
        <pt x="363" y="60" on="0"/>
        <pt x="387" y="33" on="0"/>
        <pt x="409" y="33" on="1"/>
        <pt x="445" y="33" on="0"/>
        <pt x="483" y="109" on="0"/>
        <pt x="504" y="204" on="1"/>
        <pt x="570" y="516" on="1"/>
        <pt x="472" y="516" on="1"/>
      </contour>
    </TTGlyph>
    <TTGlyph name="Iacute" xMin="98" yMin="0" xMax="618" yMax="751">
      <component glyphName="I" x="0" y="0" flags="0x1004"/>
      <component glyphName="acute" x="30" y="133" flags="0x1004"/>
    </TTGlyph>
    <TTGlyph name="Icircumflex" xMin="98" yMin="0" xMax="618" yMax="753">
      <component glyphName="I" x="0" y="0" flags="0x1004"/>
      <component glyphName="circumflex" x="30" y="133" flags="0x1004"/>
    </TTGlyph>
    <TTGlyph name="Idieresis" xMin="98" yMin="0" xMax="618" yMax="754">
      <component glyphName="I" x="0" y="0" flags="0x1004"/>
      <component glyphName="dieresis" x="30" y="133" flags="0x1004"/>
    </TTGlyph>
    <TTGlyph name="Idotaccent" xMin="98" yMin="0" xMax="618" yMax="754">
      <component glyphName="I" x="0" y="0" flags="0x1004"/>
      <component glyphName="dotaccent" x="30" y="133" flags="0x1004"/>
    </TTGlyph>
    <TTGlyph name="Igrave" xMin="98" yMin="0" xMax="618" yMax="751">
      <component glyphName="I" x="0" y="0" flags="0x1004"/>
      <component glyphName="grave" x="30" y="133" flags="0x1004"/>
    </TTGlyph>
    <TTGlyph name="Imacron" xMin="98" yMin="0" xMax="622" yMax="725">
      <component glyphName="I" x="0" y="0" flags="0x1004"/>
      <component glyphName="macron" x="30" y="133" flags="0x1004"/>
    </TTGlyph>
    <TTGlyph name="Iogonek" xMin="98" yMin="-117" xMax="618" yMax="563">
      <contour>
        <pt x="368" y="-39" on="1"/>
        <pt x="347" y="-94" on="1"/>
        <pt x="311" y="-117" on="0"/>
        <pt x="284" y="-117" on="1"/>
        <pt x="264" y="-117" on="0"/>
        <pt x="236" y="-92" on="0"/>
        <pt x="236" y="-70" on="1"/>
        <pt x="236" y="-27" on="0"/>
        <pt x="283" y="-2" on="1"/>
        <pt x="283" y="0" on="1"/>
        <pt x="98" y="0" on="1"/>
        <pt x="108" y="47" on="1"/>
        <pt x="283" y="47" on="1"/>
        <pt x="382" y="516" on="1"/>
        <pt x="208" y="516" on="1"/>
        <pt x="218" y="563" on="1"/>
        <pt x="618" y="563" on="1"/>
        <pt x="608" y="516" on="1"/>
        <pt x="433" y="516" on="1"/>
        <pt x="334" y="47" on="1"/>
        <pt x="508" y="47" on="1"/>
        <pt x="498" y="0" on="1"/>
        <pt x="369" y="0" on="1"/>
        <pt x="298" y="-21" on="0"/>
        <pt x="298" y="-52" on="1"/>
        <pt x="298" y="-65" on="0"/>
        <pt x="312" y="-65" on="1"/>
        <pt x="325" y="-65" on="0"/>
      </contour>
    </TTGlyph>
    <TTGlyph name="Itilde" xMin="98" yMin="0" xMax="618" yMax="753">
      <component glyphName="I" x="0" y="0" flags="0x1004"/>
      <component glyphName="tilde" x="30" y="133" flags="0x1004"/>
    </TTGlyph>
    <TTGlyph name="J" xMin="76" yMin="-17" xMax="698" yMax="563">
      <contour>
        <pt x="323" y="563" on="1"/>
        <pt x="698" y="563" on="1"/>
        <pt x="688" y="516" on="1"/>
        <pt x="560" y="516" on="1"/>
        <pt x="494" y="204" on="1"/>
        <pt x="472" y="105" on="0"/>
        <pt x="445" y="66" on="1"/>
        <pt x="419" y="27" on="0"/>
        <pt x="332" y="-17" on="0"/>
        <pt x="282" y="-17" on="1"/>
        <pt x="197" y="-17" on="0"/>
        <pt x="76" y="47" on="1"/>
        <pt x="113" y="263" on="1"/>
        <pt x="162" y="263" on="1"/>
        <pt x="145" y="165" on="1"/>
        <pt x="145" y="162" on="0"/>
        <pt x="142" y="143" on="0"/>
        <pt x="140" y="123" on="0"/>
        <pt x="140" y="115" on="1"/>
        <pt x="140" y="76" on="0"/>
        <pt x="229" y="33" on="0"/>
        <pt x="277" y="33" on="1"/>
        <pt x="314" y="33" on="0"/>
        <pt x="369" y="54" on="0"/>
        <pt x="401" y="82" on="0"/>
        <pt x="426" y="133" on="0"/>
        <pt x="436" y="171" on="0"/>
        <pt x="443" y="204" on="1"/>
        <pt x="509" y="516" on="1"/>
        <pt x="313" y="516" on="1"/>
      </contour>
    </TTGlyph>
    <TTGlyph name="Jcircumflex" xMin="76" yMin="-17" xMax="698" yMax="753">
      <component glyphName="J" x="0" y="0" flags="0x1004"/>
      <component glyphName="circumflex" x="98" y="133" flags="0x1004"/>
    </TTGlyph>
    <TTGlyph name="K" xMin="58" yMin="0" xMax="677" yMax="563">
      <contour>
        <pt x="178" y="563" on="1"/>
        <pt x="397" y="563" on="1"/>
        <pt x="387" y="516" on="1"/>
        <pt x="304" y="516" on="1"/>
        <pt x="254" y="290" on="1"/>
        <pt x="552" y="514" on="1"/>
        <pt x="552" y="516" on="1"/>
        <pt x="471" y="516" on="1"/>
        <pt x="481" y="563" on="1"/>
        <pt x="677" y="563" on="1"/>
        <pt x="667" y="516" on="1"/>
        <pt x="624" y="516" on="1"/>
        <pt x="367" y="320" on="1"/>
        <pt x="435" y="215" on="0"/>
        <pt x="503" y="47" on="1"/>
        <pt x="597" y="47" on="1"/>
        <pt x="586" y="0" on="1"/>
        <pt x="464" y="0" on="1"/>
        <pt x="464" y="0" on="0"/>
        <pt x="456" y="24" on="1"/>
        <pt x="396" y="185" on="0"/>
        <pt x="325" y="290" on="1"/>
        <pt x="242" y="227" on="1"/>
        <pt x="204" y="47" on="1"/>
        <pt x="288" y="47" on="1"/>
        <pt x="278" y="0" on="1"/>
        <pt x="58" y="0" on="1"/>
        <pt x="68" y="47" on="1"/>
        <pt x="153" y="47" on="1"/>
        <pt x="254" y="516" on="1"/>
        <pt x="168" y="516" on="1"/>
      </contour>
    </TTGlyph>
    <TTGlyph name="Kcedilla" xMin="58" yMin="-142" xMax="677" yMax="563">
      <contour>
        <pt x="178" y="563" on="1"/>
        <pt x="397" y="563" on="1"/>
        <pt x="387" y="516" on="1"/>
        <pt x="304" y="516" on="1"/>
        <pt x="254" y="290" on="1"/>
        <pt x="552" y="514" on="1"/>
        <pt x="552" y="516" on="1"/>
        <pt x="471" y="516" on="1"/>
        <pt x="481" y="563" on="1"/>
        <pt x="677" y="563" on="1"/>
        <pt x="667" y="516" on="1"/>
        <pt x="624" y="516" on="1"/>
        <pt x="367" y="320" on="1"/>
        <pt x="438" y="209" on="0"/>
        <pt x="503" y="47" on="1"/>
        <pt x="597" y="47" on="1"/>
        <pt x="586" y="0" on="1"/>
        <pt x="464" y="0" on="1"/>
        <pt x="439" y="67" on="0"/>
        <pt x="409" y="140" on="0"/>
        <pt x="356" y="244" on="0"/>
        <pt x="325" y="290" on="1"/>
        <pt x="242" y="227" on="1"/>
        <pt x="204" y="47" on="1"/>
        <pt x="288" y="47" on="1"/>
        <pt x="278" y="0" on="1"/>
        <pt x="58" y="0" on="1"/>
        <pt x="68" y="47" on="1"/>
        <pt x="153" y="47" on="1"/>
        <pt x="254" y="516" on="1"/>
        <pt x="168" y="516" on="1"/>
      </contour>
      <contour>
        <pt x="382" y="0" on="1"/>
        <pt x="374" y="-22" on="1"/>
        <pt x="432" y="-31" on="0"/>
        <pt x="432" y="-78" on="1"/>
        <pt x="432" y="-105" on="0"/>
        <pt x="387" y="-142" on="0"/>
        <pt x="342" y="-142" on="1"/>
        <pt x="306" y="-142" on="0"/>
        <pt x="231" y="-127" on="1"/>
        <pt x="247" y="-83" on="1"/>
        <pt x="300" y="-97" on="0"/>
        <pt x="344" y="-97" on="1"/>
        <pt x="385" y="-97" on="0"/>
        <pt x="385" y="-78" on="1"/>
        <pt x="385" y="-72" on="0"/>
        <pt x="380" y="-67" on="0"/>
        <pt x="349" y="-61" on="0"/>
        <pt x="317" y="-60" on="1"/>
        <pt x="337" y="0" on="1"/>
      </contour>
    </TTGlyph>
    <TTGlyph name="L" xMin="57" yMin="0" xMax="605" yMax="563">
      <contour>
        <pt x="177" y="563" on="1"/>
        <pt x="450" y="563" on="1"/>
        <pt x="440" y="516" on="1"/>
        <pt x="317" y="516" on="1"/>
        <pt x="217" y="47" on="1"/>
        <pt x="500" y="47" on="1"/>
        <pt x="557" y="249" on="1"/>
        <pt x="605" y="249" on="1"/>
        <pt x="540" y="0" on="1"/>
        <pt x="57" y="0" on="1"/>
        <pt x="67" y="47" on="1"/>
        <pt x="167" y="47" on="1"/>
        <pt x="267" y="516" on="1"/>
        <pt x="167" y="516" on="1"/>
      </contour>
    </TTGlyph>
    <TTGlyph name="Lacute" xMin="57" yMin="0" xMax="605" yMax="751">
      <component glyphName="L" x="0" y="0" flags="0x1004"/>
      <component glyphName="acute" x="-83" y="133" flags="0x1004"/>
    </TTGlyph>
    <TTGlyph name="Lcaron" xMin="57" yMin="0" xMax="605" yMax="753">
      <component glyphName="L" x="0" y="0" flags="0x1004"/>
      <component glyphName="caron" x="-83" y="133" flags="0x1004"/>
    </TTGlyph>
    <TTGlyph name="Lcedilla" xMin="57" yMin="-142" xMax="605" yMax="563">
      <contour>
        <pt x="351" y="0" on="1"/>
        <pt x="344" y="-22" on="1"/>
        <pt x="402" y="-31" on="0"/>
        <pt x="402" y="-78" on="1"/>
        <pt x="402" y="-105" on="0"/>
        <pt x="356" y="-142" on="0"/>
        <pt x="311" y="-142" on="1"/>
        <pt x="276" y="-142" on="0"/>
        <pt x="201" y="-127" on="1"/>
        <pt x="217" y="-83" on="1"/>
        <pt x="270" y="-97" on="0"/>
        <pt x="314" y="-97" on="1"/>
        <pt x="354" y="-97" on="0"/>
        <pt x="354" y="-78" on="1"/>
        <pt x="354" y="-72" on="0"/>
        <pt x="349" y="-67" on="0"/>
        <pt x="319" y="-61" on="0"/>
        <pt x="287" y="-60" on="1"/>
        <pt x="306" y="0" on="1"/>
        <pt x="57" y="0" on="1"/>
        <pt x="67" y="47" on="1"/>
        <pt x="167" y="47" on="1"/>
        <pt x="267" y="516" on="1"/>
        <pt x="167" y="516" on="1"/>
        <pt x="177" y="563" on="1"/>
        <pt x="450" y="563" on="1"/>
        <pt x="440" y="516" on="1"/>
        <pt x="317" y="516" on="1"/>
        <pt x="217" y="47" on="1"/>
        <pt x="500" y="47" on="1"/>
        <pt x="557" y="249" on="1"/>
        <pt x="605" y="249" on="1"/>
        <pt x="540" y="0" on="1"/>
      </contour>
    </TTGlyph>
    <TTGlyph name="Ldot" xMin="57" yMin="0" xMax="605" yMax="563">
      <contour>
        <pt x="177" y="563" on="1"/>
        <pt x="450" y="563" on="1"/>
        <pt x="440" y="516" on="1"/>
        <pt x="317" y="516" on="1"/>
        <pt x="217" y="47" on="1"/>
        <pt x="500" y="47" on="1"/>
        <pt x="557" y="249" on="1"/>
        <pt x="605" y="249" on="1"/>
        <pt x="540" y="0" on="1"/>
        <pt x="57" y="0" on="1"/>
        <pt x="67" y="47" on="1"/>
        <pt x="167" y="47" on="1"/>
        <pt x="267" y="516" on="1"/>
        <pt x="167" y="516" on="1"/>
      </contour>
      <contour>
        <pt x="440" y="358" on="1"/>
        <pt x="467" y="358" on="0"/>
        <pt x="505" y="328" on="0"/>
        <pt x="505" y="303" on="1"/>
        <pt x="505" y="268" on="0"/>
        <pt x="448" y="223" on="0"/>
        <pt x="415" y="223" on="1"/>
        <pt x="388" y="223" on="0"/>
        <pt x="349" y="253" on="0"/>
        <pt x="349" y="278" on="1"/>
        <pt x="349" y="312" on="0"/>
        <pt x="405" y="358" on="0"/>
      </contour>
    </TTGlyph>
    <TTGlyph name="Lquoteright" xMin="57" yMin="0" xMax="645" yMax="563">
      <contour>
        <pt x="177" y="563" on="1"/>
        <pt x="450" y="563" on="1"/>
        <pt x="440" y="516" on="1"/>
        <pt x="317" y="516" on="1"/>
        <pt x="217" y="47" on="1"/>
        <pt x="500" y="47" on="1"/>
        <pt x="557" y="249" on="1"/>
        <pt x="605" y="249" on="1"/>
        <pt x="540" y="0" on="1"/>
        <pt x="57" y="0" on="1"/>
        <pt x="67" y="47" on="1"/>
        <pt x="167" y="47" on="1"/>
        <pt x="267" y="516" on="1"/>
        <pt x="167" y="516" on="1"/>
      </contour>
      <contour>
        <pt x="540" y="563" on="1"/>
        <pt x="645" y="563" on="1"/>
        <pt x="484" y="320" on="1"/>
        <pt x="411" y="320" on="1"/>
      </contour>
    </TTGlyph>
    <TTGlyph name="Lslash" xMin="57" yMin="0" xMax="605" yMax="563">
      <contour>
        <pt x="276" y="322" on="1"/>
        <pt x="489" y="430" on="1"/>
        <pt x="504" y="389" on="1"/>
        <pt x="264" y="265" on="1"/>
        <pt x="217" y="47" on="1"/>
        <pt x="500" y="47" on="1"/>
        <pt x="557" y="249" on="1"/>
        <pt x="605" y="249" on="1"/>
        <pt x="541" y="0" on="1"/>
        <pt x="57" y="0" on="1"/>
        <pt x="67" y="47" on="1"/>
        <pt x="167" y="47" on="1"/>
        <pt x="209" y="242" on="1"/>
        <pt x="122" y="198" on="1"/>
        <pt x="106" y="242" on="1"/>
        <pt x="221" y="299" on="1"/>
        <pt x="267" y="516" on="1"/>
        <pt x="167" y="516" on="1"/>
        <pt x="177" y="563" on="1"/>
        <pt x="451" y="563" on="1"/>
        <pt x="440" y="516" on="1"/>
        <pt x="317" y="516" on="1"/>
      </contour>
    </TTGlyph>
    <TTGlyph name="M" xMin="0" yMin="0" xMax="707" yMax="563">
      <contour>
        <pt x="127" y="563" on="1"/>
        <pt x="290" y="563" on="1"/>
        <pt x="337" y="224" on="1"/>
        <pt x="354" y="224" on="1"/>
        <pt x="550" y="563" on="1"/>
        <pt x="707" y="563" on="1"/>
        <pt x="697" y="516" on="1"/>
        <pt x="635" y="516" on="1"/>
        <pt x="543" y="47" on="1"/>
        <pt x="609" y="47" on="1"/>
        <pt x="602" y="0" on="1"/>
        <pt x="375" y="0" on="1"/>
        <pt x="385" y="47" on="1"/>
        <pt x="495" y="47" on="1"/>
        <pt x="586" y="516" on="1"/>
        <pt x="569" y="516" on="1"/>
        <pt x="354" y="144" on="1"/>
        <pt x="303" y="144" on="1"/>
        <pt x="249" y="516" on="1"/>
        <pt x="231" y="516" on="1"/>
        <pt x="117" y="47" on="1"/>
        <pt x="226" y="47" on="1"/>
        <pt x="216" y="0" on="1"/>
        <pt x="0" y="0" on="1"/>
        <pt x="10" y="47" on="1"/>
        <pt x="71" y="47" on="1"/>
        <pt x="186" y="516" on="1"/>
        <pt x="117" y="516" on="1"/>
      </contour>
    </TTGlyph>
    <TTGlyph name="N" xMin="26" yMin="-13" xMax="709" yMax="563">
      <contour>
        <pt x="146" y="563" on="1"/>
        <pt x="316" y="563" on="1"/>
        <pt x="470" y="42" on="1"/>
        <pt x="487" y="42" on="1"/>
        <pt x="584" y="516" on="1"/>
        <pt x="476" y="516" on="1"/>
        <pt x="487" y="563" on="1"/>
        <pt x="709" y="563" on="1"/>
        <pt x="699" y="516" on="1"/>
        <pt x="631" y="516" on="1"/>
        <pt x="525" y="-13" on="1"/>
        <pt x="434" y="-13" on="1"/>
        <pt x="279" y="516" on="1"/>
        <pt x="263" y="516" on="1"/>
        <pt x="166" y="47" on="1"/>
        <pt x="274" y="47" on="1"/>
        <pt x="263" y="0" on="1"/>
        <pt x="26" y="0" on="1"/>
        <pt x="36" y="47" on="1"/>
        <pt x="119" y="47" on="1"/>
        <pt x="216" y="516" on="1"/>
        <pt x="136" y="516" on="1"/>
      </contour>
    </TTGlyph>
    <TTGlyph name="Nacute" xMin="26" yMin="-13" xMax="709" yMax="751">
      <component glyphName="N" x="0" y="0" flags="0x1004"/>
      <component glyphName="acute" x="53" y="133" flags="0x1004"/>
    </TTGlyph>
    <TTGlyph name="Ncaron" xMin="26" yMin="-13" xMax="709" yMax="753">
      <component glyphName="N" x="0" y="0" flags="0x1004"/>
      <component glyphName="caron" x="53" y="133" flags="0x1004"/>
    </TTGlyph>
    <TTGlyph name="Ncedilla" xMin="26" yMin="-142" xMax="709" yMax="563">
      <contour>
        <pt x="146" y="563" on="1"/>
        <pt x="316" y="563" on="1"/>
        <pt x="470" y="42" on="1"/>
        <pt x="487" y="42" on="1"/>
        <pt x="584" y="516" on="1"/>
        <pt x="476" y="516" on="1"/>
        <pt x="487" y="563" on="1"/>
        <pt x="709" y="563" on="1"/>
        <pt x="699" y="516" on="1"/>
        <pt x="631" y="516" on="1"/>
        <pt x="525" y="-13" on="1"/>
        <pt x="434" y="-13" on="1"/>
        <pt x="279" y="516" on="1"/>
        <pt x="263" y="516" on="1"/>
        <pt x="166" y="47" on="1"/>
        <pt x="274" y="47" on="1"/>
        <pt x="263" y="0" on="1"/>
        <pt x="26" y="0" on="1"/>
        <pt x="36" y="47" on="1"/>
        <pt x="119" y="47" on="1"/>
        <pt x="216" y="516" on="1"/>
        <pt x="136" y="516" on="1"/>
      </contour>
      <contour>
        <pt x="362" y="0" on="1"/>
        <pt x="354" y="-22" on="1"/>
        <pt x="412" y="-31" on="0"/>
        <pt x="412" y="-78" on="1"/>
        <pt x="412" y="-105" on="0"/>
        <pt x="367" y="-142" on="0"/>
        <pt x="322" y="-142" on="1"/>
        <pt x="286" y="-142" on="0"/>
        <pt x="211" y="-127" on="1"/>
        <pt x="227" y="-83" on="1"/>
        <pt x="280" y="-97" on="0"/>
        <pt x="324" y="-97" on="1"/>
        <pt x="365" y="-97" on="0"/>
        <pt x="365" y="-78" on="1"/>
        <pt x="365" y="-72" on="0"/>
        <pt x="360" y="-67" on="0"/>
        <pt x="329" y="-61" on="0"/>
        <pt x="297" y="-60" on="1"/>
        <pt x="317" y="0" on="1"/>
      </contour>
    </TTGlyph>
    <TTGlyph name="Ntilde" xMin="26" yMin="-13" xMax="709" yMax="753">
      <component glyphName="N" x="0" y="0" flags="0x1004"/>
      <component glyphName="tilde" x="53" y="133" flags="0x1004"/>
    </TTGlyph>
    <TTGlyph name="O" xMin="92" yMin="-17" xMax="624" yMax="580">
      <contour>
        <pt x="92" y="211" on="1"/>
        <pt x="92" y="272" on="0"/>
        <pt x="140" y="402" on="0"/>
        <pt x="223" y="510" on="0"/>
        <pt x="349" y="580" on="0"/>
        <pt x="419" y="580" on="1"/>
        <pt x="470" y="580" on="0"/>
        <pt x="548" y="545" on="0"/>
        <pt x="590" y="495" on="0"/>
        <pt x="616" y="431" on="0"/>
        <pt x="624" y="383" on="0"/>
        <pt x="624" y="361" on="1"/>
        <pt x="624" y="216" on="0"/>
        <pt x="432" y="-17" on="0"/>
        <pt x="297" y="-17" on="1"/>
        <pt x="243" y="-17" on="0"/>
        <pt x="163" y="22" on="0"/>
        <pt x="122" y="75" on="0"/>
        <pt x="98" y="145" on="0"/>
        <pt x="92" y="190" on="0"/>
      </contour>
      <contour>
        <pt x="146" y="215" on="1"/>
        <pt x="146" y="186" on="0"/>
        <pt x="160" y="128" on="0"/>
        <pt x="191" y="68" on="0"/>
        <pt x="257" y="30" on="0"/>
        <pt x="302" y="30" on="1"/>
        <pt x="375" y="30" on="0"/>
        <pt x="500" y="127" on="0"/>
        <pt x="570" y="276" on="0"/>
        <pt x="570" y="355" on="1"/>
        <pt x="570" y="395" on="0"/>
        <pt x="545" y="470" on="0"/>
        <pt x="471" y="533" on="0"/>
        <pt x="414" y="533" on="1"/>
        <pt x="340" y="533" on="0"/>
        <pt x="213" y="432" on="0"/>
        <pt x="146" y="287" on="0"/>
      </contour>
    </TTGlyph>
    <TTGlyph name="OE" xMin="66" yMin="0" xMax="654" yMax="563">
      <contour>
        <pt x="548" y="0" on="1"/>
        <pt x="242" y="0" on="1"/>
        <pt x="194" y="0" on="0"/>
        <pt x="122" y="40" on="0"/>
        <pt x="84" y="104" on="0"/>
        <pt x="66" y="173" on="0"/>
        <pt x="66" y="209" on="1"/>
        <pt x="66" y="296" on="0"/>
        <pt x="149" y="458" on="0"/>
        <pt x="303" y="563" on="0"/>
        <pt x="395" y="563" on="1"/>
        <pt x="654" y="563" on="1"/>
        <pt x="621" y="383" on="1"/>
        <pt x="575" y="383" on="1"/>
        <pt x="591" y="516" on="1"/>
        <pt x="459" y="516" on="1"/>
        <pt x="419" y="323" on="1"/>
        <pt x="483" y="323" on="1"/>
        <pt x="497" y="395" on="1"/>
        <pt x="542" y="395" on="1"/>
        <pt x="505" y="203" on="1"/>
        <pt x="459" y="203" on="1"/>
        <pt x="473" y="276" on="1"/>
        <pt x="409" y="276" on="1"/>
        <pt x="360" y="47" on="1"/>
        <pt x="505" y="47" on="1"/>
        <pt x="542" y="185" on="1"/>
        <pt x="587" y="185" on="1"/>
      </contour>
      <contour>
        <pt x="310" y="47" on="1"/>
        <pt x="409" y="516" on="1"/>
        <pt x="385" y="516" on="1"/>
        <pt x="272" y="516" on="0"/>
        <pt x="118" y="333" on="0"/>
        <pt x="118" y="216" on="1"/>
        <pt x="118" y="189" on="0"/>
        <pt x="128" y="139" on="0"/>
        <pt x="156" y="82" on="0"/>
        <pt x="219" y="47" on="0"/>
        <pt x="264" y="47" on="1"/>
      </contour>
    </TTGlyph>
    <TTGlyph name="Oacute" xMin="92" yMin="-17" xMax="624" yMax="751">
      <component glyphName="O" x="0" y="0" flags="0x1004"/>
      <component glyphName="acute" x="53" y="133" flags="0x1004"/>
    </TTGlyph>
    <TTGlyph name="Ocircumflex" xMin="92" yMin="-17" xMax="624" yMax="753">
      <component glyphName="O" x="0" y="0" flags="0x1004"/>
      <component glyphName="circumflex" x="53" y="133" flags="0x1004"/>
    </TTGlyph>
    <TTGlyph name="Odieresis" xMin="92" yMin="-17" xMax="624" yMax="754">
      <component glyphName="O" x="0" y="0" flags="0x1004"/>
      <component glyphName="dieresis" x="53" y="133" flags="0x1004"/>
    </TTGlyph>
    <TTGlyph name="Ograve" xMin="92" yMin="-17" xMax="624" yMax="751">
      <component glyphName="O" x="0" y="0" flags="0x1004"/>
      <component glyphName="grave" x="53" y="133" flags="0x1004"/>
    </TTGlyph>
    <TTGlyph name="Ohungarumlaut" xMin="92" yMin="-17" xMax="654" yMax="750">
      <component glyphName="O" x="0" y="0" flags="0x1004"/>
      <component glyphName="hungarumlaut" x="53" y="133" flags="0x1004"/>
    </TTGlyph>
    <TTGlyph name="Omacron" xMin="92" yMin="-17" xMax="645" yMax="725">
      <component glyphName="O" x="0" y="0" flags="0x1004"/>
      <component glyphName="macron" x="53" y="133" flags="0x1004"/>
    </TTGlyph>
    <TTGlyph name="Omega" xMin="31" yMin="0" xMax="643" yMax="580">
      <contour>
        <pt x="31" y="0" on="1"/>
        <pt x="55" y="103" on="1"/>
        <pt x="102" y="103" on="1"/>
        <pt x="88" y="47" on="1"/>
        <pt x="214" y="47" on="1"/>
        <pt x="223" y="85" on="1"/>
        <pt x="202" y="92" on="0"/>
        <pt x="172" y="108" on="0"/>
        <pt x="120" y="148" on="0"/>
        <pt x="90" y="222" on="0"/>
        <pt x="90" y="272" on="1"/>
        <pt x="90" y="392" on="0"/>
        <pt x="272" y="580" on="0"/>
        <pt x="408" y="580" on="1"/>
        <pt x="512" y="580" on="0"/>
        <pt x="643" y="461" on="0"/>
        <pt x="643" y="371" on="1"/>
        <pt x="643" y="363" on="0"/>
        <pt x="642" y="344" on="0"/>
        <pt x="633" y="294" on="0"/>
        <pt x="617" y="248" on="0"/>
        <pt x="582" y="188" on="0"/>
        <pt x="535" y="141" on="0"/>
        <pt x="458" y="97" on="0"/>
        <pt x="411" y="85" on="1"/>
        <pt x="403" y="47" on="1"/>
        <pt x="530" y="47" on="1"/>
        <pt x="544" y="103" on="1"/>
        <pt x="591" y="103" on="1"/>
        <pt x="567" y="0" on="1"/>
        <pt x="346" y="0" on="1"/>
        <pt x="371" y="118" on="1"/>
        <pt x="399" y="124" on="0"/>
        <pt x="430" y="133" on="0"/>
        <pt x="484" y="160" on="0"/>
        <pt x="506" y="180" on="1"/>
        <pt x="543" y="213" on="0"/>
        <pt x="590" y="314" on="0"/>
        <pt x="590" y="367" on="1"/>
        <pt x="590" y="436" on="0"/>
        <pt x="492" y="532" on="0"/>
        <pt x="406" y="532" on="1"/>
        <pt x="295" y="532" on="0"/>
        <pt x="144" y="376" on="0"/>
        <pt x="144" y="268" on="1"/>
        <pt x="144" y="226" on="0"/>
        <pt x="172" y="167" on="0"/>
        <pt x="223" y="135" on="0"/>
        <pt x="254" y="123" on="0"/>
        <pt x="277" y="118" on="1"/>
        <pt x="252" y="0" on="1"/>
      </contour>
    </TTGlyph>
    <TTGlyph name="Oslash" xMin="66" yMin="-22" xMax="649" yMax="580">
      <contour>
        <pt x="154" y="37" on="1"/>
        <pt x="95" y="-22" on="1"/>
        <pt x="66" y="7" on="1"/>
        <pt x="128" y="71" on="1"/>
        <pt x="92" y="128" on="0"/>
        <pt x="92" y="210" on="1"/>
        <pt x="92" y="269" on="0"/>
        <pt x="138" y="396" on="0"/>
        <pt x="219" y="508" on="0"/>
        <pt x="346" y="580" on="0"/>
        <pt x="420" y="580" on="1"/>
        <pt x="509" y="580" on="0"/>
        <pt x="570" y="519" on="1"/>
        <pt x="620" y="570" on="1"/>
        <pt x="649" y="540" on="1"/>
        <pt x="594" y="484" on="1"/>
        <pt x="624" y="424" on="0"/>
        <pt x="624" y="360" on="1"/>
        <pt x="624" y="267" on="0"/>
        <pt x="540" y="94" on="0"/>
        <pt x="388" y="-17" on="0"/>
        <pt x="208" y="-17" on="0"/>
      </contour>
      <contour>
        <pt x="552" y="441" on="1"/>
        <pt x="193" y="76" on="1"/>
        <pt x="229" y="30" on="0"/>
        <pt x="305" y="30" on="1"/>
        <pt x="409" y="30" on="0"/>
        <pt x="570" y="228" on="0"/>
        <pt x="570" y="357" on="1"/>
        <pt x="570" y="393" on="0"/>
      </contour>
      <contour>
        <pt x="169" y="112" on="1"/>
        <pt x="530" y="479" on="1"/>
        <pt x="490" y="533" on="0"/>
        <pt x="413" y="533" on="1"/>
        <pt x="304" y="533" on="0"/>
        <pt x="146" y="334" on="0"/>
        <pt x="146" y="213" on="1"/>
        <pt x="146" y="167" on="0"/>
      </contour>
    </TTGlyph>
    <TTGlyph name="Otilde" xMin="92" yMin="-17" xMax="638" yMax="753">
      <component glyphName="O" x="0" y="0" flags="0x1004"/>
      <component glyphName="tilde" x="53" y="133" flags="0x1004"/>
    </TTGlyph>
    <TTGlyph name="P" xMin="91" yMin="0" xMax="640" yMax="563">
      <contour>
        <pt x="211" y="563" on="1"/>
        <pt x="438" y="563" on="1"/>
        <pt x="553" y="563" on="0"/>
        <pt x="594" y="527" on="1"/>
        <pt x="640" y="486" on="0"/>
        <pt x="640" y="420" on="1"/>
        <pt x="640" y="380" on="0"/>
        <pt x="600" y="302" on="0"/>
        <pt x="569" y="274" on="1"/>
        <pt x="541" y="249" on="0"/>
        <pt x="460" y="225" on="0"/>
        <pt x="395" y="221" on="0"/>
        <pt x="326" y="221" on="1"/>
        <pt x="268" y="221" on="1"/>
        <pt x="231" y="47" on="1"/>
        <pt x="379" y="47" on="1"/>
        <pt x="369" y="0" on="1"/>
        <pt x="91" y="0" on="1"/>
        <pt x="101" y="47" on="1"/>
        <pt x="183" y="47" on="1"/>
        <pt x="283" y="516" on="1"/>
        <pt x="201" y="516" on="1"/>
      </contour>
      <contour>
        <pt x="431" y="516" on="1"/>
        <pt x="332" y="516" on="1"/>
        <pt x="278" y="268" on="1"/>
        <pt x="332" y="268" on="1"/>
        <pt x="392" y="268" on="0"/>
        <pt x="444" y="270" on="0"/>
        <pt x="512" y="287" on="0"/>
        <pt x="532" y="305" on="1"/>
        <pt x="588" y="356" on="0"/>
        <pt x="588" y="417" on="1"/>
        <pt x="588" y="445" on="0"/>
        <pt x="565" y="485" on="0"/>
        <pt x="537" y="504" on="0"/>
        <pt x="486" y="515" on="0"/>
        <pt x="457" y="516" on="0"/>
      </contour>
    </TTGlyph>
    <TTGlyph name="Phi" xMin="98" yMin="0" xMax="620" yMax="563">
      <contour>
        <pt x="521" y="563" on="1"/>
        <pt x="511" y="516" on="1"/>
        <pt x="433" y="516" on="1"/>
        <pt x="424" y="474" on="1"/>
        <pt x="510" y="470" on="0"/>
        <pt x="553" y="443" on="1"/>
        <pt x="620" y="400" on="0"/>
        <pt x="620" y="318" on="1"/>
        <pt x="620" y="306" on="0"/>
        <pt x="616" y="272" on="0"/>
        <pt x="585" y="196" on="0"/>
        <pt x="532" y="138" on="0"/>
        <pt x="419" y="90" on="0"/>
        <pt x="342" y="89" on="1"/>
        <pt x="333" y="47" on="1"/>
        <pt x="424" y="47" on="1"/>
        <pt x="415" y="0" on="1"/>
        <pt x="195" y="0" on="1"/>
        <pt x="205" y="47" on="1"/>
        <pt x="283" y="47" on="1"/>
        <pt x="292" y="89" on="1"/>
        <pt x="210" y="92" on="0"/>
        <pt x="166" y="119" on="1"/>
        <pt x="131" y="140" on="0"/>
        <pt x="98" y="209" on="0"/>
        <pt x="98" y="244" on="1"/>
        <pt x="98" y="258" on="0"/>
        <pt x="103" y="295" on="0"/>
        <pt x="134" y="369" on="0"/>
        <pt x="188" y="426" on="0"/>
        <pt x="299" y="473" on="0"/>
        <pt x="374" y="474" on="1"/>
        <pt x="383" y="516" on="1"/>
        <pt x="292" y="516" on="1"/>
        <pt x="302" y="563" on="1"/>
      </contour>
      <contour>
        <pt x="415" y="430" on="1"/>
        <pt x="352" y="135" on="1"/>
        <pt x="410" y="137" on="0"/>
        <pt x="496" y="173" on="0"/>
        <pt x="538" y="217" on="0"/>
        <pt x="562" y="275" on="0"/>
        <pt x="566" y="306" on="0"/>
        <pt x="566" y="320" on="1"/>
        <pt x="566" y="426" on="0"/>
      </contour>
      <contour>
        <pt x="302" y="135" on="1"/>
        <pt x="364" y="430" on="1"/>
        <pt x="276" y="427" on="0"/>
        <pt x="228" y="393" on="1"/>
        <pt x="188" y="365" on="0"/>
        <pt x="152" y="282" on="0"/>
        <pt x="152" y="245" on="1"/>
        <pt x="152" y="138" on="0"/>
      </contour>
    </TTGlyph>
    <TTGlyph name="Pts" xMin="6" yMin="-7" xMax="634" yMax="563">
      <contour>
        <pt x="196" y="47" on="1"/>
        <pt x="186" y="0" on="1"/>
        <pt x="6" y="0" on="1"/>
        <pt x="16" y="47" on="1"/>
        <pt x="78" y="47" on="1"/>
        <pt x="178" y="516" on="1"/>
        <pt x="102" y="516" on="1"/>
        <pt x="112" y="563" on="1"/>
        <pt x="333" y="563" on="1"/>
        <pt x="461" y="563" on="0"/>
        <pt x="505" y="525" on="1"/>
        <pt x="542" y="493" on="0"/>
        <pt x="542" y="449" on="1"/>
        <pt x="542" y="387" on="0"/>
        <pt x="478" y="340" on="1"/>
        <pt x="452" y="321" on="0"/>
        <pt x="370" y="303" on="0"/>
        <pt x="305" y="300" on="0"/>
        <pt x="238" y="300" on="1"/>
        <pt x="178" y="300" on="1"/>
        <pt x="126" y="47" on="1"/>
      </contour>
      <contour>
        <pt x="326" y="516" on="1"/>
        <pt x="226" y="516" on="1"/>
        <pt x="190" y="347" on="1"/>
        <pt x="246" y="347" on="1"/>
        <pt x="303" y="347" on="0"/>
        <pt x="357" y="349" on="0"/>
        <pt x="422" y="361" on="0"/>
        <pt x="442" y="373" on="1"/>
        <pt x="489" y="402" on="0"/>
        <pt x="489" y="445" on="1"/>
        <pt x="489" y="470" on="0"/>
        <pt x="461" y="492" on="1"/>
        <pt x="442" y="507" on="0"/>
        <pt x="381" y="516" on="0"/>
      </contour>
      <contour>
        <pt x="246" y="172" on="1"/>
        <pt x="213" y="172" on="1"/>
        <pt x="226" y="216" on="1"/>
        <pt x="255" y="216" on="1"/>
        <pt x="267" y="274" on="1"/>
        <pt x="313" y="274" on="1"/>
        <pt x="301" y="216" on="1"/>
        <pt x="398" y="216" on="1"/>
        <pt x="387" y="172" on="1"/>
        <pt x="291" y="172" on="1"/>
        <pt x="274" y="98" on="1"/>
        <pt x="268" y="68" on="0"/>
        <pt x="268" y="60" on="1"/>
        <pt x="268" y="51" on="0"/>
        <pt x="283" y="39" on="0"/>
        <pt x="296" y="39" on="1"/>
        <pt x="322" y="39" on="0"/>
        <pt x="375" y="62" on="1"/>
        <pt x="387" y="21" on="1"/>
        <pt x="334" y="-7" on="0"/>
        <pt x="292" y="-7" on="1"/>
        <pt x="262" y="-7" on="0"/>
        <pt x="222" y="26" on="0"/>
        <pt x="222" y="49" on="1"/>
        <pt x="222" y="57" on="0"/>
        <pt x="225" y="77" on="0"/>
        <pt x="229" y="96" on="0"/>
        <pt x="229" y="98" on="1"/>
      </contour>
      <contour>
        <pt x="414" y="85" on="1"/>
        <pt x="458" y="85" on="1"/>
        <pt x="458" y="62" on="0"/>
        <pt x="462" y="54" on="1"/>
        <pt x="473" y="37" on="0"/>
        <pt x="507" y="37" on="1"/>
        <pt x="537" y="37" on="0"/>
        <pt x="572" y="59" on="0"/>
        <pt x="572" y="73" on="1"/>
        <pt x="572" y="82" on="0"/>
        <pt x="552" y="87" on="0"/>
        <pt x="527" y="88" on="1"/>
        <pt x="501" y="89" on="0"/>
        <pt x="467" y="94" on="0"/>
        <pt x="431" y="123" on="0"/>
        <pt x="431" y="149" on="1"/>
        <pt x="431" y="189" on="0"/>
        <pt x="498" y="229" on="0"/>
        <pt x="558" y="229" on="0"/>
        <pt x="574" y="222" on="1"/>
        <pt x="583" y="219" on="0"/>
        <pt x="585" y="219" on="0"/>
        <pt x="589" y="226" on="1"/>
        <pt x="593" y="233" on="1"/>
        <pt x="634" y="227" on="1"/>
        <pt x="619" y="182" on="0"/>
        <pt x="616" y="141" on="1"/>
        <pt x="574" y="141" on="1"/>
        <pt x="573" y="166" on="1"/>
        <pt x="567" y="185" on="0"/>
        <pt x="526" y="185" on="1"/>
        <pt x="505" y="185" on="0"/>
        <pt x="473" y="167" on="0"/>
        <pt x="473" y="156" on="1"/>
        <pt x="473" y="137" on="0"/>
        <pt x="524" y="134" on="1"/>
        <pt x="546" y="132" on="0"/>
        <pt x="568" y="129" on="0"/>
        <pt x="600" y="119" on="0"/>
        <pt x="614" y="96" on="0"/>
        <pt x="614" y="79" on="1"/>
        <pt x="614" y="46" on="0"/>
        <pt x="551" y="-7" on="0"/>
        <pt x="502" y="-7" on="1"/>
        <pt x="481" y="-7" on="0"/>
        <pt x="445" y="5" on="1"/>
        <pt x="441" y="-6" on="1"/>
        <pt x="398" y="-6" on="1"/>
        <pt x="412" y="40" on="0"/>
      </contour>
    </TTGlyph>
    <TTGlyph name="Q" xMin="92" yMin="-127" xMax="624" yMax="580">
      <contour>
        <pt x="503" y="-52" on="1"/>
        <pt x="526" y="-90" on="1"/>
        <pt x="467" y="-127" on="0"/>
        <pt x="420" y="-127" on="1"/>
        <pt x="387" y="-127" on="0"/>
        <pt x="339" y="-103" on="1"/>
        <pt x="300" y="-84" on="0"/>
        <pt x="267" y="-84" on="1"/>
        <pt x="245" y="-84" on="0"/>
        <pt x="201" y="-95" on="0"/>
        <pt x="171" y="-109" on="0"/>
        <pt x="138" y="-126" on="1"/>
        <pt x="123" y="-85" on="1"/>
        <pt x="168" y="-60" on="0"/>
        <pt x="226" y="-6" on="1"/>
        <pt x="169" y="10" on="0"/>
        <pt x="92" y="123" on="0"/>
        <pt x="92" y="197" on="1"/>
        <pt x="92" y="350" on="0"/>
        <pt x="286" y="580" on="0"/>
        <pt x="422" y="580" on="1"/>
        <pt x="455" y="580" on="0"/>
        <pt x="521" y="558" on="0"/>
        <pt x="585" y="511" on="0"/>
        <pt x="624" y="421" on="0"/>
        <pt x="624" y="361" on="1"/>
        <pt x="624" y="314" on="0"/>
        <pt x="598" y="213" on="0"/>
        <pt x="542" y="111" on="0"/>
        <pt x="463" y="31" on="0"/>
        <pt x="347" y="-18" on="0"/>
        <pt x="279" y="-17" on="1"/>
        <pt x="275" y="-22" on="0"/>
        <pt x="256" y="-36" on="1"/>
        <pt x="258" y="-38" on="1"/>
        <pt x="305" y="-33" on="0"/>
        <pt x="358" y="-57" on="1"/>
        <pt x="406" y="-78" on="0"/>
        <pt x="422" y="-78" on="1"/>
        <pt x="455" y="-78" on="0"/>
      </contour>
      <contour>
        <pt x="146" y="215" on="1"/>
        <pt x="146" y="186" on="0"/>
        <pt x="160" y="128" on="0"/>
        <pt x="191" y="68" on="0"/>
        <pt x="257" y="30" on="0"/>
        <pt x="302" y="30" on="1"/>
        <pt x="375" y="30" on="0"/>
        <pt x="500" y="127" on="0"/>
        <pt x="570" y="276" on="0"/>
        <pt x="570" y="355" on="1"/>
        <pt x="570" y="395" on="0"/>
        <pt x="545" y="470" on="0"/>
        <pt x="471" y="533" on="0"/>
        <pt x="414" y="533" on="1"/>
        <pt x="340" y="533" on="0"/>
        <pt x="213" y="432" on="0"/>
        <pt x="146" y="287" on="0"/>
      </contour>
    </TTGlyph>
    <TTGlyph name="R" xMin="44" yMin="0" xMax="587" yMax="563">
      <contour>
        <pt x="163" y="563" on="1"/>
        <pt x="418" y="563" on="1"/>
        <pt x="447" y="563" on="0"/>
        <pt x="479" y="561" on="0"/>
        <pt x="533" y="549" on="0"/>
        <pt x="563" y="525" on="0"/>
        <pt x="587" y="477" on="0"/>
        <pt x="587" y="442" on="1"/>
        <pt x="587" y="377" on="0"/>
        <pt x="488" y="268" on="0"/>
        <pt x="403" y="259" on="1"/>
        <pt x="407" y="249" on="0"/>
        <pt x="413" y="237" on="1"/>
        <pt x="417" y="228" on="0"/>
        <pt x="474" y="101" on="1"/>
        <pt x="497" y="47" on="1"/>
        <pt x="586" y="47" on="1"/>
        <pt x="576" y="0" on="1"/>
        <pt x="450" y="0" on="1"/>
        <pt x="430" y="81" on="0"/>
        <pt x="377" y="193" on="1"/>
        <pt x="359" y="229" on="0"/>
        <pt x="349" y="254" on="1"/>
        <pt x="348" y="256" on="1"/>
        <pt x="347" y="258" on="0"/>
        <pt x="347" y="259" on="1"/>
        <pt x="230" y="259" on="1"/>
        <pt x="185" y="47" on="1"/>
        <pt x="275" y="47" on="1"/>
        <pt x="265" y="0" on="1"/>
        <pt x="44" y="0" on="1"/>
        <pt x="54" y="47" on="1"/>
        <pt x="136" y="47" on="1"/>
        <pt x="235" y="516" on="1"/>
        <pt x="153" y="516" on="1"/>
      </contour>
      <contour>
        <pt x="412" y="516" on="1"/>
        <pt x="284" y="516" on="1"/>
        <pt x="239" y="303" on="1"/>
        <pt x="334" y="303" on="1"/>
        <pt x="435" y="303" on="0"/>
        <pt x="478" y="334" on="1"/>
        <pt x="535" y="375" on="0"/>
        <pt x="535" y="440" on="1"/>
        <pt x="535" y="467" on="0"/>
        <pt x="516" y="500" on="0"/>
        <pt x="474" y="513" on="0"/>
        <pt x="443" y="516" on="0"/>
      </contour>
    </TTGlyph>
    <TTGlyph name="Racute" xMin="44" yMin="0" xMax="587" yMax="751">
      <component glyphName="R" x="0" y="0" flags="0x1004"/>
      <component glyphName="acute" x="53" y="133" flags="0x1004"/>
    </TTGlyph>
    <TTGlyph name="Rcaron" xMin="44" yMin="0" xMax="590" yMax="753">
      <component glyphName="R" x="0" y="0" flags="0x1004"/>
      <component glyphName="caron" x="40" y="133" flags="0x1004"/>
    </TTGlyph>
    <TTGlyph name="Rcedilla" xMin="44" yMin="-142" xMax="587" yMax="563">
      <contour>
        <pt x="163" y="563" on="1"/>
        <pt x="418" y="563" on="1"/>
        <pt x="447" y="563" on="0"/>
        <pt x="479" y="561" on="0"/>
        <pt x="533" y="549" on="0"/>
        <pt x="563" y="525" on="0"/>
        <pt x="587" y="477" on="0"/>
        <pt x="587" y="442" on="1"/>
        <pt x="587" y="377" on="0"/>
        <pt x="488" y="268" on="0"/>
        <pt x="403" y="259" on="1"/>
        <pt x="410" y="244" on="0"/>
        <pt x="488" y="71" on="0"/>
        <pt x="497" y="47" on="1"/>
        <pt x="586" y="47" on="1"/>
        <pt x="576" y="0" on="1"/>
        <pt x="450" y="0" on="1"/>
        <pt x="439" y="45" on="0"/>
        <pt x="419" y="97" on="1"/>
        <pt x="413" y="113" on="0"/>
        <pt x="347" y="258" on="0"/>
        <pt x="347" y="259" on="1"/>
        <pt x="230" y="259" on="1"/>
        <pt x="185" y="47" on="1"/>
        <pt x="275" y="47" on="1"/>
        <pt x="265" y="0" on="1"/>
        <pt x="44" y="0" on="1"/>
        <pt x="54" y="47" on="1"/>
        <pt x="136" y="47" on="1"/>
        <pt x="235" y="516" on="1"/>
        <pt x="153" y="516" on="1"/>
      </contour>
      <contour>
        <pt x="412" y="516" on="1"/>
        <pt x="284" y="516" on="1"/>
        <pt x="239" y="303" on="1"/>
        <pt x="334" y="303" on="1"/>
        <pt x="435" y="303" on="0"/>
        <pt x="478" y="334" on="1"/>
        <pt x="535" y="375" on="0"/>
        <pt x="535" y="440" on="1"/>
        <pt x="535" y="467" on="0"/>
        <pt x="516" y="500" on="0"/>
        <pt x="474" y="513" on="0"/>
        <pt x="443" y="516" on="0"/>
      </contour>
      <contour>
        <pt x="350" y="0" on="1"/>
        <pt x="342" y="-22" on="1"/>
        <pt x="400" y="-31" on="0"/>
        <pt x="400" y="-78" on="1"/>
        <pt x="400" y="-105" on="0"/>
        <pt x="354" y="-142" on="0"/>
        <pt x="309" y="-142" on="1"/>
        <pt x="274" y="-142" on="0"/>
        <pt x="199" y="-127" on="1"/>
        <pt x="215" y="-83" on="1"/>
        <pt x="268" y="-97" on="0"/>
        <pt x="312" y="-97" on="1"/>
        <pt x="352" y="-97" on="0"/>
        <pt x="352" y="-78" on="1"/>
        <pt x="352" y="-72" on="0"/>
        <pt x="347" y="-67" on="0"/>
        <pt x="317" y="-61" on="0"/>
        <pt x="285" y="-60" on="1"/>
        <pt x="305" y="0" on="1"/>
      </contour>
    </TTGlyph>
    <TTGlyph name="S" xMin="67" yMin="-19" xMax="631" yMax="581">
      <contour>
        <pt x="590" y="581" on="1"/>
        <pt x="631" y="570" on="1"/>
        <pt x="589" y="466" on="0"/>
        <pt x="577" y="383" on="1"/>
        <pt x="535" y="391" on="1"/>
        <pt x="539" y="411" on="0"/>
        <pt x="539" y="426" on="1"/>
        <pt x="539" y="479" on="0"/>
        <pt x="466" y="533" on="0"/>
        <pt x="406" y="533" on="1"/>
        <pt x="332" y="533" on="0"/>
        <pt x="238" y="456" on="0"/>
        <pt x="238" y="405" on="1"/>
        <pt x="238" y="374" on="0"/>
        <pt x="264" y="333" on="0"/>
        <pt x="313" y="315" on="0"/>
        <pt x="343" y="310" on="0"/>
        <pt x="368" y="308" on="1"/>
        <pt x="545" y="296" on="0"/>
        <pt x="545" y="173" on="1"/>
        <pt x="545" y="100" on="0"/>
        <pt x="426" y="-17" on="0"/>
        <pt x="323" y="-17" on="1"/>
        <pt x="209" y="-17" on="0"/>
        <pt x="157" y="42" on="1"/>
        <pt x="151" y="51" on="0"/>
        <pt x="146" y="51" on="1"/>
        <pt x="138" y="51" on="0"/>
        <pt x="110" y="-19" on="1"/>
        <pt x="67" y="-12" on="1"/>
        <pt x="87" y="49" on="0"/>
        <pt x="103" y="113" on="0"/>
        <pt x="110" y="168" on="1"/>
        <pt x="154" y="168" on="1"/>
        <pt x="153" y="146" on="0"/>
        <pt x="165" y="103" on="0"/>
        <pt x="197" y="58" on="0"/>
        <pt x="267" y="30" on="0"/>
        <pt x="317" y="30" on="1"/>
        <pt x="401" y="30" on="0"/>
        <pt x="491" y="115" on="0"/>
        <pt x="491" y="169" on="1"/>
        <pt x="491" y="191" on="0"/>
        <pt x="473" y="223" on="0"/>
        <pt x="451" y="240" on="0"/>
        <pt x="406" y="252" on="0"/>
        <pt x="379" y="256" on="0"/>
        <pt x="351" y="258" on="1"/>
        <pt x="275" y="265" on="0"/>
        <pt x="239" y="292" on="1"/>
        <pt x="214" y="311" on="0"/>
        <pt x="184" y="372" on="0"/>
        <pt x="184" y="404" on="1"/>
        <pt x="184" y="469" on="0"/>
        <pt x="303" y="580" on="0"/>
        <pt x="402" y="580" on="1"/>
        <pt x="493" y="580" on="0"/>
        <pt x="535" y="527" on="1"/>
        <pt x="544" y="518" on="0"/>
        <pt x="546" y="518" on="1"/>
        <pt x="560" y="518" on="0"/>
        <pt x="586" y="574" on="1"/>
        <pt x="588" y="577" on="1"/>
        <pt x="590" y="580" on="0"/>
      </contour>
    </TTGlyph>
    <TTGlyph name="SF010000" xMin="264" yMin="-288" xMax="600" yMax="288">
      <contour>
        <pt x="336" y="216" on="1"/>
        <pt x="336" y="-288" on="1"/>
        <pt x="264" y="-288" on="1"/>
        <pt x="264" y="288" on="1"/>
        <pt x="600" y="288" on="1"/>
        <pt x="600" y="216" on="1"/>
      </contour>
    </TTGlyph>
    <TTGlyph name="SF020000" xMin="264" yMin="216" xMax="600" yMax="792">
      <contour>
        <pt x="336" y="288" on="1"/>
        <pt x="600" y="288" on="1"/>
        <pt x="600" y="216" on="1"/>
        <pt x="264" y="216" on="1"/>
        <pt x="264" y="792" on="1"/>
        <pt x="336" y="792" on="1"/>
      </contour>
    </TTGlyph>
    <TTGlyph name="SF030000" xMin="0" yMin="-288" xMax="336" yMax="288">
      <contour>
        <pt x="0" y="216" on="1"/>
        <pt x="0" y="288" on="1"/>
        <pt x="336" y="288" on="1"/>
        <pt x="336" y="-288" on="1"/>
        <pt x="264" y="-288" on="1"/>
        <pt x="264" y="216" on="1"/>
      </contour>
    </TTGlyph>
    <TTGlyph name="SF040000" xMin="0" yMin="216" xMax="336" yMax="792">
      <contour>
        <pt x="264" y="288" on="1"/>
        <pt x="264" y="792" on="1"/>
        <pt x="336" y="792" on="1"/>
        <pt x="336" y="216" on="1"/>
        <pt x="0" y="216" on="1"/>
        <pt x="0" y="288" on="1"/>
      </contour>
    </TTGlyph>
    <TTGlyph name="SF050000" xMin="0" yMin="-288" xMax="600" yMax="792">
      <contour>
        <pt x="336" y="288" on="1"/>
        <pt x="600" y="288" on="1"/>
        <pt x="600" y="216" on="1"/>
        <pt x="336" y="216" on="1"/>
        <pt x="336" y="-288" on="1"/>
        <pt x="264" y="-288" on="1"/>
        <pt x="264" y="216" on="1"/>
        <pt x="0" y="216" on="1"/>
        <pt x="0" y="288" on="1"/>
        <pt x="264" y="288" on="1"/>
        <pt x="264" y="792" on="1"/>
        <pt x="336" y="792" on="1"/>
      </contour>
    </TTGlyph>
    <TTGlyph name="SF060000" xMin="0" yMin="-288" xMax="600" yMax="288">
      <contour>
        <pt x="336" y="216" on="1"/>
        <pt x="336" y="-288" on="1"/>
        <pt x="264" y="-288" on="1"/>
        <pt x="264" y="216" on="1"/>
        <pt x="0" y="216" on="1"/>
        <pt x="0" y="288" on="1"/>
        <pt x="600" y="288" on="1"/>
        <pt x="600" y="216" on="1"/>
      </contour>
    </TTGlyph>
    <TTGlyph name="SF070000" xMin="0" yMin="216" xMax="600" yMax="792">
      <contour>
        <pt x="336" y="288" on="1"/>
        <pt x="600" y="288" on="1"/>
        <pt x="600" y="216" on="1"/>
        <pt x="0" y="216" on="1"/>
        <pt x="0" y="288" on="1"/>
        <pt x="264" y="288" on="1"/>
        <pt x="264" y="792" on="1"/>
        <pt x="336" y="792" on="1"/>
      </contour>
    </TTGlyph>
    <TTGlyph name="SF080000" xMin="264" yMin="-288" xMax="600" yMax="792">
      <contour>
        <pt x="264" y="-288" on="1"/>
        <pt x="264" y="792" on="1"/>
        <pt x="336" y="792" on="1"/>
        <pt x="336" y="288" on="1"/>
        <pt x="600" y="288" on="1"/>
        <pt x="600" y="216" on="1"/>
        <pt x="336" y="216" on="1"/>
        <pt x="336" y="-288" on="1"/>
      </contour>
    </TTGlyph>
    <TTGlyph name="SF090000" xMin="0" yMin="-288" xMax="336" yMax="792">
      <contour>
        <pt x="336" y="-288" on="1"/>
        <pt x="264" y="-288" on="1"/>
        <pt x="264" y="216" on="1"/>
        <pt x="0" y="216" on="1"/>
        <pt x="0" y="288" on="1"/>
        <pt x="264" y="288" on="1"/>
        <pt x="264" y="792" on="1"/>
        <pt x="336" y="792" on="1"/>
      </contour>
    </TTGlyph>
    <TTGlyph name="SF100000" xMin="0" yMin="216" xMax="600" yMax="288">
      <contour>
        <pt x="0" y="216" on="1"/>
        <pt x="0" y="288" on="1"/>
        <pt x="600" y="288" on="1"/>
        <pt x="600" y="216" on="1"/>
      </contour>
    </TTGlyph>
    <TTGlyph name="SF110000" xMin="264" yMin="-288" xMax="336" yMax="792">
      <contour>
        <pt x="264" y="-288" on="1"/>
        <pt x="264" y="792" on="1"/>
        <pt x="336" y="792" on="1"/>
        <pt x="336" y="-288" on="1"/>
      </contour>
    </TTGlyph>
    <TTGlyph name="SF140000" xMin="0" yMin="-167" xMax="500" yMax="733">
      <contour>
        <pt x="500" y="533" on="1"/>
        <pt x="500" y="433" on="1"/>
        <pt x="400" y="433" on="1"/>
        <pt x="400" y="533" on="1"/>
      </contour>
      <contour>
        <pt x="300" y="533" on="1"/>
        <pt x="300" y="433" on="1"/>
        <pt x="200" y="433" on="1"/>
        <pt x="200" y="533" on="1"/>
      </contour>
      <contour>
        <pt x="500" y="333" on="1"/>
        <pt x="500" y="233" on="1"/>
        <pt x="400" y="233" on="1"/>
        <pt x="400" y="333" on="1"/>
      </contour>
      <contour>
        <pt x="300" y="333" on="1"/>
        <pt x="300" y="233" on="1"/>
        <pt x="200" y="233" on="1"/>
        <pt x="200" y="333" on="1"/>
      </contour>
      <contour>
        <pt x="500" y="133" on="1"/>
        <pt x="500" y="33" on="1"/>
        <pt x="400" y="33" on="1"/>
        <pt x="400" y="133" on="1"/>
      </contour>
      <contour>
        <pt x="300" y="133" on="1"/>
        <pt x="300" y="33" on="1"/>
        <pt x="200" y="33" on="1"/>
        <pt x="200" y="133" on="1"/>
      </contour>
      <contour>
        <pt x="500" y="-67" on="1"/>
        <pt x="500" y="-167" on="1"/>
        <pt x="400" y="-167" on="1"/>
        <pt x="400" y="-67" on="1"/>
      </contour>
      <contour>
        <pt x="300" y="-67" on="1"/>
        <pt x="300" y="-167" on="1"/>
        <pt x="200" y="-167" on="1"/>
        <pt x="200" y="-67" on="1"/>
      </contour>
      <contour>
        <pt x="100" y="533" on="1"/>
        <pt x="100" y="433" on="1"/>
        <pt x="0" y="433" on="1"/>
        <pt x="0" y="533" on="1"/>
      </contour>
      <contour>
        <pt x="100" y="333" on="1"/>
        <pt x="100" y="233" on="1"/>
        <pt x="0" y="233" on="1"/>
        <pt x="0" y="333" on="1"/>
      </contour>
      <contour>
        <pt x="100" y="133" on="1"/>
        <pt x="100" y="33" on="1"/>
        <pt x="0" y="33" on="1"/>
        <pt x="0" y="133" on="1"/>
      </contour>
      <contour>
        <pt x="100" y="-67" on="1"/>
        <pt x="100" y="-167" on="1"/>
        <pt x="0" y="-167" on="1"/>
        <pt x="0" y="-67" on="1"/>
      </contour>
      <contour>
        <pt x="100" y="733" on="1"/>
        <pt x="100" y="633" on="1"/>
        <pt x="0" y="633" on="1"/>
        <pt x="0" y="733" on="1"/>
      </contour>
      <contour>
        <pt x="300" y="733" on="1"/>
        <pt x="300" y="633" on="1"/>
        <pt x="200" y="633" on="1"/>
        <pt x="200" y="733" on="1"/>
      </contour>
      <contour>
        <pt x="500" y="733" on="1"/>
        <pt x="500" y="633" on="1"/>
        <pt x="400" y="633" on="1"/>
        <pt x="400" y="733" on="1"/>
      </contour>
    </TTGlyph>
    <TTGlyph name="SF150000" xMin="0" yMin="-267" xMax="600" yMax="733">
      <contour>
        <pt x="0" y="733" on="1"/>
        <pt x="100" y="733" on="1"/>
        <pt x="100" y="634" on="1"/>
        <pt x="99" y="633" on="1"/>
        <pt x="0" y="633" on="1"/>
      </contour>
      <contour>
        <pt x="200" y="733" on="1"/>
        <pt x="300" y="733" on="1"/>
        <pt x="300" y="634" on="1"/>
        <pt x="299" y="633" on="1"/>
        <pt x="201" y="633" on="1"/>
        <pt x="200" y="634" on="1"/>
      </contour>
      <contour>
        <pt x="400" y="733" on="1"/>
        <pt x="500" y="733" on="1"/>
        <pt x="500" y="634" on="1"/>
        <pt x="499" y="633" on="1"/>
        <pt x="401" y="633" on="1"/>
        <pt x="400" y="634" on="1"/>
      </contour>
      <contour>
        <pt x="100" y="632" on="1"/>
        <pt x="101" y="633" on="1"/>
        <pt x="199" y="633" on="1"/>
        <pt x="200" y="632" on="1"/>
        <pt x="200" y="534" on="1"/>
        <pt x="199" y="533" on="1"/>
        <pt x="101" y="533" on="1"/>
        <pt x="100" y="534" on="1"/>
      </contour>
      <contour>
        <pt x="300" y="632" on="1"/>
        <pt x="301" y="633" on="1"/>
        <pt x="399" y="633" on="1"/>
        <pt x="400" y="632" on="1"/>
        <pt x="400" y="534" on="1"/>
        <pt x="399" y="533" on="1"/>
        <pt x="301" y="533" on="1"/>
        <pt x="300" y="534" on="1"/>
      </contour>
      <contour>
        <pt x="501" y="633" on="1"/>
        <pt x="600" y="633" on="1"/>
        <pt x="600" y="533" on="1"/>
        <pt x="501" y="533" on="1"/>
        <pt x="500" y="534" on="1"/>
        <pt x="500" y="632" on="1"/>
      </contour>
      <contour>
        <pt x="0" y="533" on="1"/>
        <pt x="99" y="533" on="1"/>
        <pt x="100" y="532" on="1"/>
        <pt x="100" y="434" on="1"/>
        <pt x="99" y="433" on="1"/>
        <pt x="0" y="433" on="1"/>
      </contour>
      <contour>
        <pt x="200" y="532" on="1"/>
        <pt x="201" y="533" on="1"/>
        <pt x="299" y="533" on="1"/>
        <pt x="300" y="532" on="1"/>
        <pt x="300" y="434" on="1"/>
        <pt x="299" y="433" on="1"/>
        <pt x="201" y="433" on="1"/>
        <pt x="200" y="434" on="1"/>
      </contour>
      <contour>
        <pt x="400" y="532" on="1"/>
        <pt x="401" y="533" on="1"/>
        <pt x="499" y="533" on="1"/>
        <pt x="500" y="532" on="1"/>
        <pt x="500" y="434" on="1"/>
        <pt x="499" y="433" on="1"/>
        <pt x="401" y="433" on="1"/>
        <pt x="400" y="434" on="1"/>
      </contour>
      <contour>
        <pt x="100" y="432" on="1"/>
        <pt x="101" y="433" on="1"/>
        <pt x="199" y="433" on="1"/>
        <pt x="200" y="432" on="1"/>
        <pt x="200" y="334" on="1"/>
        <pt x="199" y="333" on="1"/>
        <pt x="101" y="333" on="1"/>
        <pt x="100" y="334" on="1"/>
      </contour>
      <contour>
        <pt x="300" y="432" on="1"/>
        <pt x="301" y="433" on="1"/>
        <pt x="399" y="433" on="1"/>
        <pt x="400" y="432" on="1"/>
        <pt x="400" y="334" on="1"/>
        <pt x="399" y="333" on="1"/>
        <pt x="301" y="333" on="1"/>
        <pt x="300" y="334" on="1"/>
      </contour>
      <contour>
        <pt x="501" y="433" on="1"/>
        <pt x="600" y="433" on="1"/>
        <pt x="600" y="333" on="1"/>
        <pt x="501" y="333" on="1"/>
        <pt x="500" y="334" on="1"/>
        <pt x="500" y="432" on="1"/>
      </contour>
      <contour>
        <pt x="0" y="333" on="1"/>
        <pt x="99" y="333" on="1"/>
        <pt x="100" y="332" on="1"/>
        <pt x="100" y="234" on="1"/>
        <pt x="99" y="233" on="1"/>
        <pt x="0" y="233" on="1"/>
      </contour>
      <contour>
        <pt x="200" y="332" on="1"/>
        <pt x="201" y="333" on="1"/>
        <pt x="299" y="333" on="1"/>
        <pt x="300" y="332" on="1"/>
        <pt x="300" y="234" on="1"/>
        <pt x="299" y="233" on="1"/>
        <pt x="201" y="233" on="1"/>
        <pt x="200" y="234" on="1"/>
      </contour>
      <contour>
        <pt x="400" y="332" on="1"/>
        <pt x="401" y="333" on="1"/>
        <pt x="499" y="333" on="1"/>
        <pt x="500" y="332" on="1"/>
        <pt x="500" y="234" on="1"/>
        <pt x="499" y="233" on="1"/>
        <pt x="401" y="233" on="1"/>
        <pt x="400" y="234" on="1"/>
      </contour>
      <contour>
        <pt x="100" y="232" on="1"/>
        <pt x="101" y="233" on="1"/>
        <pt x="199" y="233" on="1"/>
        <pt x="200" y="232" on="1"/>
        <pt x="200" y="134" on="1"/>
        <pt x="199" y="133" on="1"/>
        <pt x="101" y="133" on="1"/>
        <pt x="100" y="134" on="1"/>
      </contour>
      <contour>
        <pt x="300" y="232" on="1"/>
        <pt x="301" y="233" on="1"/>
        <pt x="399" y="233" on="1"/>
        <pt x="400" y="232" on="1"/>
        <pt x="400" y="134" on="1"/>
        <pt x="399" y="133" on="1"/>
        <pt x="301" y="133" on="1"/>
        <pt x="300" y="134" on="1"/>
      </contour>
      <contour>
        <pt x="501" y="233" on="1"/>
        <pt x="600" y="233" on="1"/>
        <pt x="600" y="133" on="1"/>
        <pt x="501" y="133" on="1"/>
        <pt x="500" y="134" on="1"/>
        <pt x="500" y="232" on="1"/>
      </contour>
      <contour>
        <pt x="0" y="133" on="1"/>
        <pt x="99" y="133" on="1"/>
        <pt x="100" y="132" on="1"/>
        <pt x="100" y="34" on="1"/>
        <pt x="99" y="33" on="1"/>
        <pt x="0" y="33" on="1"/>
      </contour>
      <contour>
        <pt x="200" y="132" on="1"/>
        <pt x="201" y="133" on="1"/>
        <pt x="299" y="133" on="1"/>
        <pt x="300" y="132" on="1"/>
        <pt x="300" y="34" on="1"/>
        <pt x="299" y="33" on="1"/>
        <pt x="201" y="33" on="1"/>
        <pt x="200" y="34" on="1"/>
      </contour>
      <contour>
        <pt x="400" y="132" on="1"/>
        <pt x="401" y="133" on="1"/>
        <pt x="499" y="133" on="1"/>
        <pt x="500" y="132" on="1"/>
        <pt x="500" y="34" on="1"/>
        <pt x="499" y="33" on="1"/>
        <pt x="401" y="33" on="1"/>
        <pt x="400" y="34" on="1"/>
      </contour>
      <contour>
        <pt x="100" y="32" on="1"/>
        <pt x="101" y="33" on="1"/>
        <pt x="199" y="33" on="1"/>
        <pt x="200" y="32" on="1"/>
        <pt x="200" y="-66" on="1"/>
        <pt x="199" y="-67" on="1"/>
        <pt x="101" y="-67" on="1"/>
        <pt x="100" y="-66" on="1"/>
      </contour>
      <contour>
        <pt x="300" y="32" on="1"/>
        <pt x="301" y="33" on="1"/>
        <pt x="399" y="33" on="1"/>
        <pt x="400" y="32" on="1"/>
        <pt x="400" y="-66" on="1"/>
        <pt x="399" y="-67" on="1"/>
        <pt x="301" y="-67" on="1"/>
        <pt x="300" y="-66" on="1"/>
      </contour>
      <contour>
        <pt x="501" y="33" on="1"/>
        <pt x="600" y="33" on="1"/>
        <pt x="600" y="-67" on="1"/>
        <pt x="501" y="-67" on="1"/>
        <pt x="500" y="-66" on="1"/>
        <pt x="500" y="32" on="1"/>
      </contour>
      <contour>
        <pt x="0" y="-67" on="1"/>
        <pt x="99" y="-67" on="1"/>
        <pt x="100" y="-68" on="1"/>
        <pt x="100" y="-166" on="1"/>
        <pt x="99" y="-167" on="1"/>
        <pt x="0" y="-167" on="1"/>
      </contour>
      <contour>
        <pt x="200" y="-68" on="1"/>
        <pt x="201" y="-67" on="1"/>
        <pt x="299" y="-67" on="1"/>
        <pt x="300" y="-68" on="1"/>
        <pt x="300" y="-166" on="1"/>
        <pt x="299" y="-167" on="1"/>
        <pt x="201" y="-167" on="1"/>
        <pt x="200" y="-166" on="1"/>
      </contour>
      <contour>
        <pt x="400" y="-68" on="1"/>
        <pt x="401" y="-67" on="1"/>
        <pt x="499" y="-67" on="1"/>
        <pt x="500" y="-68" on="1"/>
        <pt x="500" y="-166" on="1"/>
        <pt x="499" y="-167" on="1"/>
        <pt x="401" y="-167" on="1"/>
        <pt x="400" y="-166" on="1"/>
      </contour>
      <contour>
        <pt x="101" y="-167" on="1"/>
        <pt x="199" y="-167" on="1"/>
        <pt x="200" y="-168" on="1"/>
        <pt x="200" y="-267" on="1"/>
        <pt x="100" y="-267" on="1"/>
        <pt x="100" y="-168" on="1"/>
      </contour>
      <contour>
        <pt x="301" y="-167" on="1"/>
        <pt x="399" y="-167" on="1"/>
        <pt x="400" y="-168" on="1"/>
        <pt x="400" y="-267" on="1"/>
        <pt x="300" y="-267" on="1"/>
        <pt x="300" y="-168" on="1"/>
      </contour>
      <contour>
        <pt x="501" y="-167" on="1"/>
        <pt x="600" y="-167" on="1"/>
        <pt x="600" y="-267" on="1"/>
        <pt x="500" y="-267" on="1"/>
        <pt x="500" y="-168" on="1"/>
      </contour>
    </TTGlyph>
    <TTGlyph name="SF160000" xMin="0" yMin="-267" xMax="600" yMax="733">
      <contour>
        <pt x="600" y="-267" on="1"/>
        <pt x="0" y="-267" on="1"/>
        <pt x="0" y="-167" on="1"/>
        <pt x="100" y="-167" on="1"/>
        <pt x="100" y="-67" on="1"/>
        <pt x="0" y="-67" on="1"/>
        <pt x="0" y="33" on="1"/>
        <pt x="100" y="33" on="1"/>
        <pt x="100" y="133" on="1"/>
        <pt x="0" y="133" on="1"/>
        <pt x="0" y="233" on="1"/>
        <pt x="100" y="233" on="1"/>
        <pt x="100" y="333" on="1"/>
        <pt x="0" y="333" on="1"/>
        <pt x="0" y="433" on="1"/>
        <pt x="100" y="433" on="1"/>
        <pt x="100" y="533" on="1"/>
        <pt x="0" y="533" on="1"/>
        <pt x="0" y="633" on="1"/>
        <pt x="100" y="633" on="1"/>
        <pt x="100" y="733" on="1"/>
        <pt x="200" y="733" on="1"/>
        <pt x="200" y="633" on="1"/>
        <pt x="300" y="633" on="1"/>
        <pt x="300" y="733" on="1"/>
        <pt x="400" y="733" on="1"/>
        <pt x="400" y="633" on="1"/>
        <pt x="500" y="633" on="1"/>
        <pt x="500" y="733" on="1"/>
        <pt x="600" y="733" on="1"/>
      </contour>
      <contour>
        <pt x="500" y="233" on="1"/>
        <pt x="500" y="333" on="1"/>
        <pt x="400" y="333" on="1"/>
        <pt x="400" y="233" on="1"/>
      </contour>
      <contour>
        <pt x="300" y="233" on="1"/>
        <pt x="300" y="333" on="1"/>
        <pt x="200" y="333" on="1"/>
        <pt x="200" y="233" on="1"/>
      </contour>
      <contour>
        <pt x="500" y="33" on="1"/>
        <pt x="500" y="133" on="1"/>
        <pt x="400" y="133" on="1"/>
        <pt x="400" y="33" on="1"/>
      </contour>
      <contour>
        <pt x="300" y="33" on="1"/>
        <pt x="300" y="133" on="1"/>
        <pt x="200" y="133" on="1"/>
        <pt x="200" y="33" on="1"/>
      </contour>
      <contour>
        <pt x="500" y="433" on="1"/>
        <pt x="500" y="533" on="1"/>
        <pt x="400" y="533" on="1"/>
        <pt x="400" y="433" on="1"/>
      </contour>
      <contour>
        <pt x="300" y="433" on="1"/>
        <pt x="300" y="533" on="1"/>
        <pt x="200" y="533" on="1"/>
        <pt x="200" y="433" on="1"/>
      </contour>
      <contour>
        <pt x="500" y="-167" on="1"/>
        <pt x="500" y="-67" on="1"/>
        <pt x="400" y="-67" on="1"/>
        <pt x="400" y="-167" on="1"/>
      </contour>
      <contour>
        <pt x="300" y="-167" on="1"/>
        <pt x="300" y="-67" on="1"/>
        <pt x="200" y="-67" on="1"/>
        <pt x="200" y="-167" on="1"/>
      </contour>
    </TTGlyph>
    <TTGlyph name="SF190000" xMin="0" yMin="-288" xMax="336" yMax="792">
      <contour>
        <pt x="336" y="-288" on="1"/>
        <pt x="264" y="-288" on="1"/>
        <pt x="264" y="144" on="1"/>
        <pt x="0" y="144" on="1"/>
        <pt x="0" y="216" on="1"/>
        <pt x="264" y="216" on="1"/>
        <pt x="264" y="288" on="1"/>
        <pt x="0" y="288" on="1"/>
        <pt x="0" y="360" on="1"/>
        <pt x="264" y="360" on="1"/>
        <pt x="264" y="792" on="1"/>
        <pt x="336" y="792" on="1"/>
      </contour>
    </TTGlyph>
    <TTGlyph name="SF200000" xMin="0" yMin="-288" xMax="408" yMax="792">
      <contour>
        <pt x="264" y="792" on="1"/>
        <pt x="264" y="-288" on="1"/>
        <pt x="192" y="-288" on="1"/>
        <pt x="192" y="216" on="1"/>
        <pt x="0" y="216" on="1"/>
        <pt x="0" y="288" on="1"/>
        <pt x="192" y="288" on="1"/>
        <pt x="192" y="792" on="1"/>
      </contour>
      <contour>
        <pt x="408" y="-288" on="1"/>
        <pt x="336" y="-288" on="1"/>
        <pt x="336" y="792" on="1"/>
        <pt x="408" y="792" on="1"/>
      </contour>
    </TTGlyph>
    <TTGlyph name="SF210000" xMin="0" yMin="-288" xMax="408" yMax="288">
      <contour>
        <pt x="264" y="216" on="1"/>
        <pt x="264" y="-288" on="1"/>
        <pt x="192" y="-288" on="1"/>
        <pt x="192" y="216" on="1"/>
        <pt x="0" y="216" on="1"/>
        <pt x="0" y="288" on="1"/>
        <pt x="408" y="288" on="1"/>
        <pt x="408" y="-288" on="1"/>
        <pt x="336" y="-288" on="1"/>
        <pt x="336" y="216" on="1"/>
      </contour>
    </TTGlyph>
    <TTGlyph name="SF220000" xMin="0" yMin="-288" xMax="336" yMax="360">
      <contour>
        <pt x="0" y="216" on="1"/>
        <pt x="264" y="216" on="1"/>
        <pt x="264" y="288" on="1"/>
        <pt x="0" y="288" on="1"/>
        <pt x="0" y="360" on="1"/>
        <pt x="336" y="360" on="1"/>
        <pt x="336" y="-288" on="1"/>
        <pt x="264" y="-288" on="1"/>
        <pt x="264" y="144" on="1"/>
        <pt x="0" y="144" on="1"/>
      </contour>
    </TTGlyph>
    <TTGlyph name="SF230000" xMin="0" yMin="-288" xMax="408" yMax="792">
      <contour>
        <pt x="336" y="-288" on="1"/>
        <pt x="336" y="792" on="1"/>
        <pt x="408" y="792" on="1"/>
        <pt x="408" y="-288" on="1"/>
      </contour>
      <contour>
        <pt x="192" y="144" on="1"/>
        <pt x="0" y="144" on="1"/>
        <pt x="0" y="216" on="1"/>
        <pt x="264" y="216" on="1"/>
        <pt x="264" y="-288" on="1"/>
        <pt x="192" y="-288" on="1"/>
      </contour>
      <contour>
        <pt x="264" y="288" on="1"/>
        <pt x="0" y="288" on="1"/>
        <pt x="0" y="360" on="1"/>
        <pt x="192" y="360" on="1"/>
        <pt x="192" y="792" on="1"/>
        <pt x="264" y="792" on="1"/>
      </contour>
    </TTGlyph>
    <TTGlyph name="SF240000" xMin="192" yMin="-288" xMax="408" yMax="792">
      <contour>
        <pt x="408" y="-288" on="1"/>
        <pt x="336" y="-288" on="1"/>
        <pt x="336" y="792" on="1"/>
        <pt x="408" y="792" on="1"/>
      </contour>
      <contour>
        <pt x="192" y="-288" on="1"/>
        <pt x="192" y="792" on="1"/>
        <pt x="264" y="792" on="1"/>
        <pt x="264" y="-288" on="1"/>
      </contour>
    </TTGlyph>
    <TTGlyph name="SF250000" xMin="0" yMin="-288" xMax="408" yMax="360">
      <contour>
        <pt x="192" y="144" on="1"/>
        <pt x="0" y="144" on="1"/>
        <pt x="0" y="216" on="1"/>
        <pt x="264" y="216" on="1"/>
        <pt x="264" y="-288" on="1"/>
        <pt x="192" y="-288" on="1"/>
      </contour>
      <contour>
        <pt x="336" y="-288" on="1"/>
        <pt x="336" y="288" on="1"/>
        <pt x="0" y="288" on="1"/>
        <pt x="0" y="360" on="1"/>
        <pt x="408" y="360" on="1"/>
        <pt x="408" y="-288" on="1"/>
      </contour>
    </TTGlyph>
    <TTGlyph name="SF260000" xMin="0" yMin="144" xMax="408" yMax="792">
      <contour>
        <pt x="264" y="288" on="1"/>
        <pt x="0" y="288" on="1"/>
        <pt x="0" y="360" on="1"/>
        <pt x="192" y="360" on="1"/>
        <pt x="192" y="792" on="1"/>
        <pt x="264" y="792" on="1"/>
      </contour>
      <contour>
        <pt x="336" y="216" on="1"/>
        <pt x="336" y="792" on="1"/>
        <pt x="408" y="792" on="1"/>
        <pt x="408" y="144" on="1"/>
        <pt x="0" y="144" on="1"/>
        <pt x="0" y="216" on="1"/>
      </contour>
    </TTGlyph>
    <TTGlyph name="SF270000" xMin="0" yMin="216" xMax="408" yMax="792">
      <contour>
        <pt x="264" y="288" on="1"/>
        <pt x="336" y="288" on="1"/>
        <pt x="336" y="792" on="1"/>
        <pt x="408" y="792" on="1"/>
        <pt x="408" y="216" on="1"/>
        <pt x="0" y="216" on="1"/>
        <pt x="0" y="288" on="1"/>
        <pt x="192" y="288" on="1"/>
        <pt x="192" y="792" on="1"/>
        <pt x="264" y="792" on="1"/>
      </contour>
    </TTGlyph>
    <TTGlyph name="SF280000" xMin="0" yMin="144" xMax="336" yMax="792">
      <contour>
        <pt x="336" y="792" on="1"/>
        <pt x="336" y="144" on="1"/>
        <pt x="0" y="144" on="1"/>
        <pt x="0" y="216" on="1"/>
        <pt x="264" y="216" on="1"/>
        <pt x="264" y="288" on="1"/>
        <pt x="0" y="288" on="1"/>
        <pt x="0" y="360" on="1"/>
        <pt x="264" y="360" on="1"/>
        <pt x="264" y="792" on="1"/>
      </contour>
    </TTGlyph>
    <TTGlyph name="SF360000" xMin="264" yMin="-288" xMax="600" yMax="792">
      <contour>
        <pt x="264" y="-288" on="1"/>
        <pt x="264" y="792" on="1"/>
        <pt x="336" y="792" on="1"/>
        <pt x="336" y="360" on="1"/>
        <pt x="600" y="360" on="1"/>
        <pt x="600" y="288" on="1"/>
        <pt x="336" y="288" on="1"/>
        <pt x="336" y="216" on="1"/>
        <pt x="600" y="216" on="1"/>
        <pt x="600" y="144" on="1"/>
        <pt x="336" y="144" on="1"/>
        <pt x="336" y="-288" on="1"/>
      </contour>
    </TTGlyph>
    <TTGlyph name="SF370000" xMin="192" yMin="-288" xMax="600" yMax="792">
      <contour>
        <pt x="336" y="792" on="1"/>
        <pt x="408" y="792" on="1"/>
        <pt x="408" y="288" on="1"/>
        <pt x="600" y="288" on="1"/>
        <pt x="600" y="216" on="1"/>
        <pt x="408" y="216" on="1"/>
        <pt x="408" y="-288" on="1"/>
        <pt x="336" y="-288" on="1"/>
      </contour>
      <contour>
        <pt x="192" y="-288" on="1"/>
        <pt x="192" y="792" on="1"/>
        <pt x="264" y="792" on="1"/>
        <pt x="264" y="-288" on="1"/>
      </contour>
    </TTGlyph>
    <TTGlyph name="SF380000" xMin="192" yMin="144" xMax="600" yMax="792">
      <contour>
        <pt x="336" y="288" on="1"/>
        <pt x="336" y="792" on="1"/>
        <pt x="408" y="792" on="1"/>
        <pt x="408" y="360" on="1"/>
        <pt x="600" y="360" on="1"/>
        <pt x="600" y="288" on="1"/>
      </contour>
      <contour>
        <pt x="264" y="216" on="1"/>
        <pt x="600" y="216" on="1"/>
        <pt x="600" y="144" on="1"/>
        <pt x="192" y="144" on="1"/>
        <pt x="192" y="792" on="1"/>
        <pt x="264" y="792" on="1"/>
      </contour>
    </TTGlyph>
    <TTGlyph name="SF390000" xMin="192" yMin="-288" xMax="600" yMax="360">
      <contour>
        <pt x="336" y="216" on="1"/>
        <pt x="600" y="216" on="1"/>
        <pt x="600" y="144" on="1"/>
        <pt x="408" y="144" on="1"/>
        <pt x="408" y="-288" on="1"/>
        <pt x="336" y="-288" on="1"/>
      </contour>
      <contour>
        <pt x="264" y="288" on="1"/>
        <pt x="264" y="-288" on="1"/>
        <pt x="192" y="-288" on="1"/>
        <pt x="192" y="360" on="1"/>
        <pt x="600" y="360" on="1"/>
        <pt x="600" y="288" on="1"/>
      </contour>
    </TTGlyph>
    <TTGlyph name="SF400000" xMin="0" yMin="144" xMax="600" yMax="792">
      <contour>
        <pt x="600" y="288" on="1"/>
        <pt x="336" y="288" on="1"/>
        <pt x="336" y="792" on="1"/>
        <pt x="408" y="792" on="1"/>
        <pt x="408" y="360" on="1"/>
        <pt x="600" y="360" on="1"/>
      </contour>
      <contour>
        <pt x="0" y="288" on="1"/>
        <pt x="0" y="360" on="1"/>
        <pt x="192" y="360" on="1"/>
        <pt x="192" y="792" on="1"/>
        <pt x="264" y="792" on="1"/>
        <pt x="264" y="288" on="1"/>
      </contour>
      <contour>
        <pt x="600" y="216" on="1"/>
        <pt x="600" y="144" on="1"/>
        <pt x="0" y="144" on="1"/>
        <pt x="0" y="216" on="1"/>
      </contour>
    </TTGlyph>
    <TTGlyph name="SF410000" xMin="0" yMin="-288" xMax="600" yMax="360">
      <contour>
        <pt x="408" y="-288" on="1"/>
        <pt x="336" y="-288" on="1"/>
        <pt x="336" y="216" on="1"/>
        <pt x="600" y="216" on="1"/>
        <pt x="600" y="144" on="1"/>
        <pt x="408" y="144" on="1"/>
      </contour>
      <contour>
        <pt x="0" y="216" on="1"/>
        <pt x="264" y="216" on="1"/>
        <pt x="264" y="-288" on="1"/>
        <pt x="192" y="-288" on="1"/>
        <pt x="192" y="144" on="1"/>
        <pt x="0" y="144" on="1"/>
      </contour>
      <contour>
        <pt x="600" y="288" on="1"/>
        <pt x="0" y="288" on="1"/>
        <pt x="0" y="360" on="1"/>
        <pt x="600" y="360" on="1"/>
      </contour>
    </TTGlyph>
    <TTGlyph name="SF420000" xMin="192" yMin="-288" xMax="600" yMax="792">
      <contour>
        <pt x="192" y="-288" on="1"/>
        <pt x="192" y="792" on="1"/>
        <pt x="264" y="792" on="1"/>
        <pt x="264" y="-288" on="1"/>
      </contour>
      <contour>
        <pt x="336" y="216" on="1"/>
        <pt x="600" y="216" on="1"/>
        <pt x="600" y="144" on="1"/>
        <pt x="408" y="144" on="1"/>
        <pt x="408" y="-288" on="1"/>
        <pt x="336" y="-288" on="1"/>
      </contour>
      <contour>
        <pt x="336" y="288" on="1"/>
        <pt x="336" y="792" on="1"/>
        <pt x="408" y="792" on="1"/>
        <pt x="408" y="360" on="1"/>
        <pt x="600" y="360" on="1"/>
        <pt x="600" y="288" on="1"/>
      </contour>
    </TTGlyph>
    <TTGlyph name="SF430000" xMin="0" yMin="144" xMax="600" yMax="360">
      <contour>
        <pt x="600" y="360" on="1"/>
        <pt x="600" y="288" on="1"/>
        <pt x="0" y="288" on="1"/>
        <pt x="0" y="360" on="1"/>
      </contour>
      <contour>
        <pt x="600" y="216" on="1"/>
        <pt x="600" y="144" on="1"/>
        <pt x="0" y="144" on="1"/>
        <pt x="0" y="216" on="1"/>
      </contour>
    </TTGlyph>
    <TTGlyph name="SF440000" xMin="0" yMin="-288" xMax="600" yMax="792">
      <contour>
        <pt x="264" y="216" on="1"/>
        <pt x="264" y="-288" on="1"/>
        <pt x="192" y="-288" on="1"/>
        <pt x="192" y="144" on="1"/>
        <pt x="0" y="144" on="1"/>
        <pt x="0" y="216" on="1"/>
      </contour>
      <contour>
        <pt x="264" y="288" on="1"/>
        <pt x="0" y="288" on="1"/>
        <pt x="0" y="360" on="1"/>
        <pt x="192" y="360" on="1"/>
        <pt x="192" y="792" on="1"/>
        <pt x="264" y="792" on="1"/>
      </contour>
      <contour>
        <pt x="336" y="216" on="1"/>
        <pt x="600" y="216" on="1"/>
        <pt x="600" y="144" on="1"/>
        <pt x="408" y="144" on="1"/>
        <pt x="408" y="-288" on="1"/>
        <pt x="336" y="-288" on="1"/>
      </contour>
      <contour>
        <pt x="336" y="288" on="1"/>
        <pt x="336" y="792" on="1"/>
        <pt x="408" y="792" on="1"/>
        <pt x="408" y="360" on="1"/>
        <pt x="600" y="360" on="1"/>
        <pt x="600" y="288" on="1"/>
      </contour>
    </TTGlyph>
    <TTGlyph name="SF450000" xMin="0" yMin="144" xMax="600" yMax="792">
      <contour>
        <pt x="336" y="360" on="1"/>
        <pt x="600" y="360" on="1"/>
        <pt x="600" y="288" on="1"/>
        <pt x="0" y="288" on="1"/>
        <pt x="0" y="360" on="1"/>
        <pt x="264" y="360" on="1"/>
        <pt x="264" y="792" on="1"/>
        <pt x="336" y="792" on="1"/>
      </contour>
      <contour>
        <pt x="600" y="144" on="1"/>
        <pt x="0" y="144" on="1"/>
        <pt x="0" y="216" on="1"/>
        <pt x="600" y="216" on="1"/>
      </contour>
    </TTGlyph>
    <TTGlyph name="SF460000" xMin="0" yMin="216" xMax="600" yMax="792">
      <contour>
        <pt x="336" y="288" on="1"/>
        <pt x="336" y="792" on="1"/>
        <pt x="408" y="792" on="1"/>
        <pt x="408" y="288" on="1"/>
        <pt x="600" y="288" on="1"/>
        <pt x="600" y="216" on="1"/>
        <pt x="0" y="216" on="1"/>
        <pt x="0" y="288" on="1"/>
        <pt x="192" y="288" on="1"/>
        <pt x="192" y="792" on="1"/>
        <pt x="264" y="792" on="1"/>
        <pt x="264" y="288" on="1"/>
      </contour>
    </TTGlyph>
    <TTGlyph name="SF470000" xMin="0" yMin="-288" xMax="600" yMax="360">
      <contour>
        <pt x="336" y="144" on="1"/>
        <pt x="336" y="-288" on="1"/>
        <pt x="264" y="-288" on="1"/>
        <pt x="264" y="144" on="1"/>
        <pt x="0" y="144" on="1"/>
        <pt x="0" y="216" on="1"/>
        <pt x="600" y="216" on="1"/>
        <pt x="600" y="144" on="1"/>
      </contour>
      <contour>
        <pt x="600" y="288" on="1"/>
        <pt x="0" y="288" on="1"/>
        <pt x="0" y="360" on="1"/>
        <pt x="600" y="360" on="1"/>
      </contour>
    </TTGlyph>
    <TTGlyph name="SF480000" xMin="0" yMin="-288" xMax="600" yMax="288">
      <contour>
        <pt x="336" y="216" on="1"/>
        <pt x="264" y="216" on="1"/>
        <pt x="264" y="-288" on="1"/>
        <pt x="192" y="-288" on="1"/>
        <pt x="192" y="216" on="1"/>
        <pt x="0" y="216" on="1"/>
        <pt x="0" y="288" on="1"/>
        <pt x="600" y="288" on="1"/>
        <pt x="600" y="216" on="1"/>
        <pt x="408" y="216" on="1"/>
        <pt x="408" y="-288" on="1"/>
        <pt x="336" y="-288" on="1"/>
      </contour>
    </TTGlyph>
    <TTGlyph name="SF490000" xMin="192" yMin="216" xMax="600" yMax="792">
      <contour>
        <pt x="336" y="288" on="1"/>
        <pt x="336" y="792" on="1"/>
        <pt x="408" y="792" on="1"/>
        <pt x="408" y="288" on="1"/>
        <pt x="600" y="288" on="1"/>
        <pt x="600" y="216" on="1"/>
        <pt x="192" y="216" on="1"/>
        <pt x="192" y="792" on="1"/>
        <pt x="264" y="792" on="1"/>
        <pt x="264" y="288" on="1"/>
      </contour>
    </TTGlyph>
    <TTGlyph name="SF500000" xMin="264" yMin="144" xMax="600" yMax="792">
      <contour>
        <pt x="264" y="792" on="1"/>
        <pt x="336" y="792" on="1"/>
        <pt x="336" y="360" on="1"/>
        <pt x="600" y="360" on="1"/>
        <pt x="600" y="288" on="1"/>
        <pt x="336" y="288" on="1"/>
        <pt x="336" y="216" on="1"/>
        <pt x="600" y="216" on="1"/>
        <pt x="600" y="144" on="1"/>
        <pt x="264" y="144" on="1"/>
      </contour>
    </TTGlyph>
    <TTGlyph name="SF510000" xMin="264" yMin="-288" xMax="600" yMax="360">
      <contour>
        <pt x="336" y="216" on="1"/>
        <pt x="600" y="216" on="1"/>
        <pt x="600" y="144" on="1"/>
        <pt x="336" y="144" on="1"/>
        <pt x="336" y="-288" on="1"/>
        <pt x="264" y="-288" on="1"/>
        <pt x="264" y="360" on="1"/>
        <pt x="600" y="360" on="1"/>
        <pt x="600" y="288" on="1"/>
        <pt x="336" y="288" on="1"/>
      </contour>
    </TTGlyph>
    <TTGlyph name="SF520000" xMin="192" yMin="-288" xMax="600" yMax="288">
      <contour>
        <pt x="336" y="216" on="1"/>
        <pt x="264" y="216" on="1"/>
        <pt x="264" y="-288" on="1"/>
        <pt x="192" y="-288" on="1"/>
        <pt x="192" y="288" on="1"/>
        <pt x="600" y="288" on="1"/>
        <pt x="600" y="216" on="1"/>
        <pt x="408" y="216" on="1"/>
        <pt x="408" y="-288" on="1"/>
        <pt x="336" y="-288" on="1"/>
      </contour>
    </TTGlyph>
    <TTGlyph name="SF530000" xMin="0" yMin="-288" xMax="600" yMax="792">
      <contour>
        <pt x="264" y="288" on="1"/>
        <pt x="336" y="288" on="1"/>
        <pt x="336" y="792" on="1"/>
        <pt x="408" y="792" on="1"/>
        <pt x="408" y="288" on="1"/>
        <pt x="600" y="288" on="1"/>
        <pt x="600" y="216" on="1"/>
        <pt x="408" y="216" on="1"/>
        <pt x="408" y="-288" on="1"/>
        <pt x="336" y="-288" on="1"/>
        <pt x="336" y="216" on="1"/>
        <pt x="264" y="216" on="1"/>
        <pt x="264" y="-288" on="1"/>
        <pt x="192" y="-288" on="1"/>
        <pt x="192" y="216" on="1"/>
        <pt x="0" y="216" on="1"/>
        <pt x="0" y="288" on="1"/>
        <pt x="192" y="288" on="1"/>
        <pt x="192" y="792" on="1"/>
        <pt x="264" y="792" on="1"/>
      </contour>
    </TTGlyph>
    <TTGlyph name="SF540000" xMin="0" yMin="-288" xMax="600" yMax="792">
      <contour>
        <pt x="336" y="360" on="1"/>
        <pt x="600" y="360" on="1"/>
        <pt x="600" y="288" on="1"/>
        <pt x="336" y="288" on="1"/>
        <pt x="336" y="216" on="1"/>
        <pt x="600" y="216" on="1"/>
        <pt x="600" y="144" on="1"/>
        <pt x="336" y="144" on="1"/>
        <pt x="336" y="-288" on="1"/>
        <pt x="264" y="-288" on="1"/>
        <pt x="264" y="144" on="1"/>
        <pt x="0" y="144" on="1"/>
        <pt x="0" y="216" on="1"/>
        <pt x="264" y="216" on="1"/>
        <pt x="264" y="288" on="1"/>
        <pt x="0" y="288" on="1"/>
        <pt x="0" y="360" on="1"/>
        <pt x="264" y="360" on="1"/>
        <pt x="264" y="792" on="1"/>
        <pt x="336" y="792" on="1"/>
      </contour>
    </TTGlyph>
    <TTGlyph name="SF570000" xMin="0" yMin="-288" xMax="600" yMax="252">
      <contour>
        <pt x="0" y="-288" on="1"/>
        <pt x="0" y="252" on="1"/>
        <pt x="600" y="252" on="1"/>
        <pt x="600" y="-288" on="1"/>
      </contour>
    </TTGlyph>
    <TTGlyph name="SF580000" xMin="0" yMin="-288" xMax="300" yMax="792">
      <contour>
        <pt x="0" y="-288" on="1"/>
        <pt x="0" y="792" on="1"/>
        <pt x="300" y="792" on="1"/>
        <pt x="300" y="-288" on="1"/>
      </contour>
    </TTGlyph>
    <TTGlyph name="SF590000" xMin="300" yMin="-288" xMax="600" yMax="792">
      <contour>
        <pt x="300" y="-288" on="1"/>
        <pt x="300" y="792" on="1"/>
        <pt x="600" y="792" on="1"/>
        <pt x="600" y="-288" on="1"/>
      </contour>
    </TTGlyph>
    <TTGlyph name="SF600000" xMin="0" yMin="252" xMax="600" yMax="792">
      <contour>
        <pt x="0" y="252" on="1"/>
        <pt x="0" y="792" on="1"/>
        <pt x="600" y="792" on="1"/>
        <pt x="600" y="252" on="1"/>
      </contour>
    </TTGlyph>
    <TTGlyph name="SF610000" xMin="0" yMin="-288" xMax="600" yMax="792">
      <contour>
        <pt x="0" y="-288" on="1"/>
        <pt x="0" y="792" on="1"/>
        <pt x="600" y="792" on="1"/>
        <pt x="600" y="-288" on="1"/>
      </contour>
    </TTGlyph>
    <TTGlyph name="SM490000" xMin="21" yMin="0" xMax="579" yMax="670">
      <contour>
        <pt x="21" y="612" on="1"/>
        <pt x="71" y="670" on="1"/>
        <pt x="134" y="630" on="0"/>
        <pt x="237" y="597" on="0"/>
        <pt x="300" y="597" on="1"/>
        <pt x="364" y="597" on="0"/>
        <pt x="465" y="629" on="0"/>
        <pt x="531" y="670" on="1"/>
        <pt x="579" y="612" on="1"/>
        <pt x="516" y="472" on="0"/>
        <pt x="517" y="334" on="1"/>
        <pt x="519" y="183" on="0"/>
        <pt x="579" y="59" on="1"/>
        <pt x="531" y="0" on="1"/>
        <pt x="427" y="72" on="0"/>
        <pt x="305" y="72" on="1"/>
        <pt x="180" y="72" on="0"/>
        <pt x="71" y="0" on="1"/>
        <pt x="21" y="59" on="1"/>
        <pt x="83" y="185" on="0"/>
        <pt x="83" y="334" on="1"/>
        <pt x="83" y="473" on="0"/>
      </contour>
      <contour>
        <pt x="100" y="588" on="1"/>
        <pt x="114" y="535" on="1"/>
        <pt x="147" y="443" on="0"/>
        <pt x="147" y="334" on="1"/>
        <pt x="147" y="230" on="0"/>
        <pt x="115" y="135" on="1"/>
        <pt x="100" y="81" on="1"/>
        <pt x="203" y="136" on="0"/>
        <pt x="298" y="136" on="1"/>
        <pt x="399" y="136" on="0"/>
        <pt x="499" y="81" on="1"/>
        <pt x="484" y="135" on="1"/>
        <pt x="453" y="245" on="0"/>
        <pt x="453" y="334" on="1"/>
        <pt x="453" y="450" on="0"/>
        <pt x="483" y="535" on="1"/>
        <pt x="501" y="586" on="1"/>
        <pt x="499" y="588" on="1"/>
        <pt x="417" y="533" on="0"/>
        <pt x="298" y="533" on="1"/>
        <pt x="198" y="533" on="0"/>
      </contour>
    </TTGlyph>
    <TTGlyph name="SM570001" xMin="61" yMin="0" xMax="539" yMax="478">
      <contour>
        <pt x="61" y="0" on="1"/>
        <pt x="61" y="478" on="1"/>
        <pt x="539" y="478" on="1"/>
        <pt x="539" y="0" on="1"/>
      </contour>
      <contour>
        <pt x="341" y="338" on="0"/>
        <pt x="259" y="338" on="0"/>
        <pt x="201" y="279" on="0"/>
        <pt x="201" y="238" on="1"/>
        <pt x="201" y="198" on="0"/>
        <pt x="259" y="140" on="0"/>
        <pt x="341" y="140" on="0"/>
        <pt x="399" y="198" on="0"/>
        <pt x="399" y="238" on="1"/>
        <pt x="399" y="279" on="0"/>
      </contour>
    </TTGlyph>
    <TTGlyph name="SM580000" xMin="85" yMin="67" xMax="515" yMax="497">
      <contour>
        <pt x="211" y="497" on="0"/>
        <pt x="389" y="497" on="0"/>
        <pt x="515" y="371" on="0"/>
        <pt x="515" y="193" on="0"/>
        <pt x="389" y="67" on="0"/>
        <pt x="211" y="67" on="0"/>
        <pt x="85" y="193" on="0"/>
        <pt x="85" y="371" on="0"/>
      </contour>
    </TTGlyph>
    <TTGlyph name="SM590000" xMin="40" yMin="83" xMax="600" yMax="480">
      <contour>
        <pt x="40" y="83" on="1"/>
        <pt x="40" y="480" on="1"/>
        <pt x="600" y="282" on="1"/>
      </contour>
    </TTGlyph>
    <TTGlyph name="SM600000" xMin="102" yMin="95" xMax="498" yMax="466">
      <contour>
        <pt x="102" y="95" on="1"/>
        <pt x="300" y="466" on="1"/>
        <pt x="498" y="95" on="1"/>
      </contour>
    </TTGlyph>
    <TTGlyph name="SM630000" xMin="0" yMin="83" xMax="560" yMax="480">
      <contour>
        <pt x="560" y="83" on="1"/>
        <pt x="0" y="282" on="1"/>
        <pt x="560" y="480" on="1"/>
      </contour>
    </TTGlyph>
    <TTGlyph name="SM680000" xMin="172" yMin="169" xMax="601" yMax="438">
      <contour>
        <pt x="601" y="438" on="1"/>
        <pt x="601" y="386" on="1"/>
        <pt x="224" y="386" on="1"/>
        <pt x="224" y="169" on="1"/>
        <pt x="172" y="169" on="1"/>
        <pt x="172" y="438" on="1"/>
      </contour>
    </TTGlyph>
    <TTGlyph name="SM690000" xMin="6" yMin="-13" xMax="594" yMax="576">
      <contour>
        <pt x="137" y="404" on="1"/>
        <pt x="71" y="469" on="1"/>
        <pt x="113" y="510" on="1"/>
        <pt x="179" y="444" on="1"/>
        <pt x="193" y="458" on="0"/>
        <pt x="251" y="482" on="0"/>
        <pt x="271" y="482" on="1"/>
        <pt x="271" y="576" on="1"/>
        <pt x="329" y="576" on="1"/>
        <pt x="329" y="482" on="1"/>
        <pt x="349" y="482" on="0"/>
        <pt x="403" y="459" on="0"/>
        <pt x="421" y="444" on="1"/>
        <pt x="488" y="510" on="1"/>
        <pt x="529" y="469" on="1"/>
        <pt x="463" y="403" on="1"/>
        <pt x="477" y="389" on="0"/>
        <pt x="500" y="332" on="0"/>
        <pt x="500" y="311" on="1"/>
        <pt x="594" y="311" on="1"/>
        <pt x="594" y="253" on="1"/>
        <pt x="500" y="253" on="1"/>
        <pt x="500" y="206" on="0"/>
        <pt x="463" y="160" on="1"/>
        <pt x="529" y="94" on="1"/>
        <pt x="488" y="53" on="1"/>
        <pt x="421" y="119" on="1"/>
        <pt x="409" y="107" on="0"/>
        <pt x="351" y="82" on="0"/>
        <pt x="329" y="81" on="1"/>
        <pt x="329" y="-13" on="1"/>
        <pt x="271" y="-13" on="1"/>
        <pt x="271" y="82" on="1"/>
        <pt x="214" y="82" on="0"/>
        <pt x="179" y="119" on="1"/>
        <pt x="113" y="53" on="1"/>
        <pt x="71" y="94" on="1"/>
        <pt x="138" y="160" on="1"/>
        <pt x="123" y="175" on="0"/>
        <pt x="101" y="231" on="0"/>
        <pt x="101" y="253" on="1"/>
        <pt x="6" y="253" on="1"/>
        <pt x="6" y="311" on="1"/>
        <pt x="101" y="311" on="1"/>
        <pt x="101" y="329" on="0"/>
        <pt x="124" y="388" on="0"/>
      </contour>
      <contour>
        <pt x="356" y="416" on="0"/>
        <pt x="244" y="416" on="0"/>
        <pt x="167" y="338" on="0"/>
        <pt x="167" y="283" on="1"/>
        <pt x="167" y="227" on="0"/>
        <pt x="245" y="148" on="0"/>
        <pt x="355" y="148" on="0"/>
        <pt x="434" y="227" on="0"/>
        <pt x="434" y="283" on="1"/>
        <pt x="434" y="338" on="0"/>
      </contour>
    </TTGlyph>
    <TTGlyph name="SM700000" xMin="7" yMin="149" xMax="593" yMax="328">
      <contour>
        <pt x="7" y="149" on="1"/>
        <pt x="7" y="328" on="1"/>
        <pt x="593" y="328" on="1"/>
        <pt x="593" y="149" on="1"/>
      </contour>
    </TTGlyph>
    <TTGlyph name="SM750000" xMin="83" yMin="65" xMax="517" yMax="499">
      <contour>
        <pt x="210" y="499" on="0"/>
        <pt x="390" y="499" on="0"/>
        <pt x="517" y="372" on="0"/>
        <pt x="517" y="192" on="0"/>
        <pt x="389" y="65" on="0"/>
        <pt x="211" y="65" on="0"/>
        <pt x="83" y="192" on="0"/>
        <pt x="83" y="372" on="0"/>
      </contour>
      <contour>
        <pt x="300" y="449" on="1"/>
        <pt x="231" y="449" on="0"/>
        <pt x="133" y="351" on="0"/>
        <pt x="133" y="282" on="1"/>
        <pt x="133" y="214" on="0"/>
        <pt x="231" y="115" on="0"/>
        <pt x="369" y="115" on="0"/>
        <pt x="467" y="214" on="0"/>
        <pt x="467" y="282" on="1"/>
        <pt x="467" y="351" on="0"/>
        <pt x="368" y="449" on="0"/>
      </contour>
    </TTGlyph>
    <TTGlyph name="SM750002" xMin="18" yMin="0" xMax="582" yMax="564">
      <contour>
        <pt x="390" y="499" on="0"/>
        <pt x="210" y="499" on="0"/>
        <pt x="83" y="372" on="0"/>
        <pt x="83" y="192" on="0"/>
        <pt x="211" y="65" on="0"/>
        <pt x="389" y="65" on="0"/>
        <pt x="517" y="192" on="0"/>
        <pt x="517" y="372" on="0"/>
      </contour>
      <contour>
        <pt x="18" y="0" on="1"/>
        <pt x="18" y="564" on="1"/>
        <pt x="582" y="564" on="1"/>
        <pt x="582" y="0" on="1"/>
      </contour>
      <contour>
        <pt x="300" y="449" on="1"/>
        <pt x="368" y="449" on="0"/>
        <pt x="467" y="351" on="0"/>
        <pt x="467" y="282" on="1"/>
        <pt x="467" y="214" on="0"/>
        <pt x="369" y="115" on="0"/>
        <pt x="231" y="115" on="0"/>
        <pt x="133" y="214" on="0"/>
        <pt x="133" y="282" on="1"/>
        <pt x="133" y="351" on="0"/>
        <pt x="231" y="449" on="0"/>
      </contour>
    </TTGlyph>
    <TTGlyph name="SM760000" xMin="168" yMin="15" xMax="432" yMax="607">
      <contour>
        <pt x="321" y="461" on="1"/>
        <pt x="321" y="164" on="1"/>
        <pt x="388" y="204" on="0"/>
        <pt x="413" y="204" on="1"/>
        <pt x="419" y="204" on="0"/>
        <pt x="432" y="194" on="0"/>
        <pt x="432" y="183" on="1"/>
        <pt x="432" y="177" on="0"/>
        <pt x="420" y="163" on="0"/>
        <pt x="385" y="130" on="1"/>
        <pt x="340" y="87" on="0"/>
        <pt x="313" y="29" on="1"/>
        <pt x="308" y="15" on="0"/>
        <pt x="298" y="15" on="1"/>
        <pt x="291" y="15" on="0"/>
        <pt x="283" y="25" on="0"/>
        <pt x="272" y="46" on="1"/>
        <pt x="238" y="111" on="0"/>
        <pt x="187" y="156" on="1"/>
        <pt x="174" y="168" on="0"/>
        <pt x="168" y="176" on="0"/>
        <pt x="168" y="183" on="1"/>
        <pt x="168" y="193" on="0"/>
        <pt x="180" y="204" on="0"/>
        <pt x="187" y="204" on="1"/>
        <pt x="213" y="204" on="0"/>
        <pt x="271" y="164" on="1"/>
        <pt x="271" y="461" on="1"/>
        <pt x="250" y="446" on="0"/>
        <pt x="209" y="426" on="0"/>
        <pt x="190" y="421" on="0"/>
        <pt x="187" y="421" on="1"/>
        <pt x="181" y="421" on="0"/>
        <pt x="168" y="431" on="0"/>
        <pt x="168" y="441" on="1"/>
        <pt x="168" y="448" on="0"/>
        <pt x="176" y="458" on="0"/>
        <pt x="195" y="475" on="1"/>
        <pt x="241" y="516" on="0"/>
        <pt x="277" y="588" on="1"/>
        <pt x="286" y="607" on="0"/>
        <pt x="297" y="607" on="1"/>
        <pt x="304" y="607" on="0"/>
        <pt x="312" y="598" on="0"/>
        <pt x="318" y="583" on="1"/>
        <pt x="347" y="526" on="0"/>
        <pt x="415" y="467" on="1"/>
        <pt x="432" y="453" on="0"/>
        <pt x="432" y="431" on="0"/>
        <pt x="420" y="421" on="0"/>
        <pt x="414" y="421" on="1"/>
        <pt x="391" y="421" on="0"/>
      </contour>
    </TTGlyph>
    <TTGlyph name="SM770000" xMin="168" yMin="-87" xMax="432" yMax="607">
      <contour>
        <pt x="321" y="461" on="1"/>
        <pt x="321" y="164" on="1"/>
        <pt x="388" y="204" on="0"/>
        <pt x="413" y="204" on="1"/>
        <pt x="419" y="204" on="0"/>
        <pt x="432" y="194" on="0"/>
        <pt x="432" y="183" on="1"/>
        <pt x="432" y="177" on="0"/>
        <pt x="420" y="163" on="0"/>
        <pt x="385" y="130" on="1"/>
        <pt x="340" y="87" on="0"/>
        <pt x="313" y="29" on="1"/>
        <pt x="308" y="15" on="0"/>
        <pt x="298" y="15" on="1"/>
        <pt x="291" y="15" on="0"/>
        <pt x="283" y="25" on="0"/>
        <pt x="272" y="46" on="1"/>
        <pt x="238" y="111" on="0"/>
        <pt x="187" y="156" on="1"/>
        <pt x="174" y="168" on="0"/>
        <pt x="168" y="176" on="0"/>
        <pt x="168" y="183" on="1"/>
        <pt x="168" y="193" on="0"/>
        <pt x="180" y="204" on="0"/>
        <pt x="187" y="204" on="1"/>
        <pt x="213" y="204" on="0"/>
        <pt x="271" y="164" on="1"/>
        <pt x="271" y="461" on="1"/>
        <pt x="250" y="446" on="0"/>
        <pt x="209" y="426" on="0"/>
        <pt x="190" y="421" on="0"/>
        <pt x="187" y="421" on="1"/>
        <pt x="181" y="421" on="0"/>
        <pt x="168" y="431" on="0"/>
        <pt x="168" y="441" on="1"/>
        <pt x="168" y="448" on="0"/>
        <pt x="176" y="458" on="0"/>
        <pt x="195" y="475" on="1"/>
        <pt x="241" y="516" on="0"/>
        <pt x="277" y="588" on="1"/>
        <pt x="286" y="607" on="0"/>
        <pt x="297" y="607" on="1"/>
        <pt x="304" y="607" on="0"/>
        <pt x="312" y="598" on="0"/>
        <pt x="318" y="583" on="1"/>
        <pt x="347" y="526" on="0"/>
        <pt x="415" y="467" on="1"/>
        <pt x="432" y="453" on="0"/>
        <pt x="432" y="431" on="0"/>
        <pt x="420" y="421" on="0"/>
        <pt x="414" y="421" on="1"/>
        <pt x="391" y="421" on="0"/>
      </contour>
      <contour>
        <pt x="195" y="-37" on="1"/>
        <pt x="408" y="-37" on="1"/>
        <pt x="408" y="-87" on="1"/>
        <pt x="195" y="-87" on="1"/>
      </contour>
    </TTGlyph>
    <TTGlyph name="SM790000" xMin="73" yMin="0" xMax="527" yMax="567">
      <contour>
        <pt x="73" y="0" on="1"/>
        <pt x="73" y="312" on="1"/>
        <pt x="300" y="567" on="1"/>
        <pt x="527" y="312" on="1"/>
        <pt x="527" y="0" on="1"/>
      </contour>
      <contour>
        <pt x="126" y="290" on="1"/>
        <pt x="126" y="53" on="1"/>
        <pt x="474" y="53" on="1"/>
        <pt x="474" y="290" on="1"/>
        <pt x="300" y="485" on="1"/>
      </contour>
    </TTGlyph>
    <TTGlyph name="SP500000" xMin="18" yMin="0" xMax="582" yMax="564">
      <contour>
        <pt x="265" y="282" on="1"/>
        <pt x="118" y="430" on="1"/>
        <pt x="154" y="464" on="1"/>
        <pt x="300" y="317" on="1"/>
        <pt x="446" y="464" on="1"/>
        <pt x="482" y="430" on="1"/>
        <pt x="335" y="282" on="1"/>
        <pt x="482" y="136" on="1"/>
        <pt x="446" y="100" on="1"/>
        <pt x="300" y="247" on="1"/>
        <pt x="154" y="100" on="1"/>
        <pt x="118" y="136" on="1"/>
      </contour>
      <contour>
        <pt x="18" y="0" on="1"/>
        <pt x="18" y="564" on="1"/>
        <pt x="582" y="564" on="1"/>
        <pt x="582" y="0" on="1"/>
      </contour>
      <contour>
        <pt x="75" y="507" on="1"/>
        <pt x="75" y="57" on="1"/>
        <pt x="525" y="57" on="1"/>
        <pt x="525" y="507" on="1"/>
      </contour>
    </TTGlyph>
    <TTGlyph name="SS000000" xMin="18" yMin="0" xMax="582" yMax="563">
      <contour>
        <pt x="300" y="563" on="1"/>
        <pt x="416" y="563" on="0"/>
        <pt x="582" y="398" on="0"/>
        <pt x="582" y="282" on="1"/>
        <pt x="582" y="165" on="0"/>
        <pt x="416" y="0" on="0"/>
        <pt x="184" y="0" on="0"/>
        <pt x="18" y="165" on="0"/>
        <pt x="18" y="282" on="1"/>
        <pt x="18" y="398" on="0"/>
        <pt x="183" y="563" on="0"/>
      </contour>
      <contour>
        <pt x="401" y="525" on="0"/>
        <pt x="199" y="525" on="0"/>
        <pt x="56" y="383" on="0"/>
        <pt x="56" y="181" on="0"/>
        <pt x="199" y="38" on="0"/>
        <pt x="401" y="38" on="0"/>
        <pt x="544" y="181" on="0"/>
        <pt x="544" y="383" on="0"/>
      </contour>
      <contour>
        <pt x="200" y="399" on="0"/>
        <pt x="232" y="399" on="0"/>
        <pt x="255" y="376" on="0"/>
        <pt x="255" y="344" on="0"/>
        <pt x="232" y="321" on="0"/>
        <pt x="200" y="321" on="0"/>
        <pt x="177" y="344" on="0"/>
        <pt x="177" y="376" on="0"/>
      </contour>
      <contour>
        <pt x="368" y="399" on="0"/>
        <pt x="400" y="399" on="0"/>
        <pt x="423" y="376" on="0"/>
        <pt x="423" y="359" on="1"/>
        <pt x="423" y="343" on="0"/>
        <pt x="401" y="321" on="0"/>
        <pt x="384" y="321" on="1"/>
        <pt x="368" y="321" on="0"/>
        <pt x="345" y="343" on="0"/>
        <pt x="345" y="375" on="0"/>
      </contour>
      <contour>
        <pt x="483" y="316" on="1"/>
        <pt x="479" y="262" on="0"/>
        <pt x="460" y="200" on="0"/>
        <pt x="438" y="172" on="1"/>
        <pt x="390" y="110" on="0"/>
        <pt x="300" y="110" on="1"/>
        <pt x="202" y="110" on="0"/>
        <pt x="154" y="184" on="1"/>
        <pt x="123" y="231" on="0"/>
        <pt x="117" y="316" on="1"/>
        <pt x="128" y="268" on="0"/>
        <pt x="154" y="238" on="1"/>
        <pt x="208" y="175" on="0"/>
        <pt x="300" y="175" on="1"/>
        <pt x="393" y="175" on="0"/>
        <pt x="447" y="238" on="1"/>
        <pt x="472" y="266" on="0"/>
      </contour>
    </TTGlyph>
    <TTGlyph name="SS010000" xMin="18" yMin="0" xMax="582" yMax="563">
      <contour>
        <pt x="300" y="563" on="1"/>
        <pt x="416" y="563" on="0"/>
        <pt x="582" y="398" on="0"/>
        <pt x="582" y="282" on="1"/>
        <pt x="582" y="165" on="0"/>
        <pt x="416" y="0" on="0"/>
        <pt x="184" y="0" on="0"/>
        <pt x="18" y="165" on="0"/>
        <pt x="18" y="282" on="1"/>
        <pt x="18" y="398" on="0"/>
        <pt x="183" y="563" on="0"/>
      </contour>
      <contour>
        <pt x="213" y="403" on="1"/>
        <pt x="195" y="403" on="0"/>
        <pt x="170" y="378" on="0"/>
        <pt x="170" y="361" on="1"/>
        <pt x="170" y="343" on="0"/>
        <pt x="195" y="318" on="0"/>
        <pt x="213" y="318" on="1"/>
        <pt x="230" y="318" on="0"/>
        <pt x="255" y="343" on="0"/>
        <pt x="255" y="361" on="1"/>
        <pt x="255" y="378" on="0"/>
        <pt x="230" y="403" on="0"/>
      </contour>
      <contour>
        <pt x="391" y="403" on="1"/>
        <pt x="374" y="403" on="0"/>
        <pt x="349" y="378" on="0"/>
        <pt x="349" y="360" on="1"/>
        <pt x="349" y="343" on="0"/>
        <pt x="374" y="318" on="0"/>
        <pt x="391" y="318" on="1"/>
        <pt x="409" y="318" on="0"/>
        <pt x="434" y="343" on="0"/>
        <pt x="434" y="360" on="1"/>
        <pt x="434" y="378" on="0"/>
        <pt x="409" y="403" on="0"/>
      </contour>
      <contour>
        <pt x="483" y="316" on="1"/>
        <pt x="483" y="314" on="1"/>
        <pt x="481" y="316" on="1"/>
        <pt x="474" y="269" on="0"/>
        <pt x="447" y="238" on="1"/>
        <pt x="393" y="175" on="0"/>
        <pt x="300" y="175" on="1"/>
        <pt x="208" y="175" on="0"/>
        <pt x="154" y="238" on="1"/>
        <pt x="128" y="268" on="0"/>
        <pt x="119" y="316" on="1"/>
        <pt x="117" y="314" on="1"/>
        <pt x="123" y="231" on="0"/>
        <pt x="154" y="184" on="1"/>
        <pt x="202" y="110" on="0"/>
        <pt x="300" y="110" on="1"/>
        <pt x="389" y="110" on="0"/>
        <pt x="439" y="172" on="1"/>
        <pt x="461" y="199" on="0"/>
        <pt x="479" y="261" on="0"/>
      </contour>
    </TTGlyph>
    <TTGlyph name="SS260000" xMin="258" yMin="-245" xMax="477" yMax="841">
      <contour>
        <pt x="342" y="-245" on="1"/>
        <pt x="258" y="-245" on="1"/>
        <pt x="258" y="624" on="1"/>
        <pt x="258" y="729" on="0"/>
        <pt x="347" y="841" on="0"/>
        <pt x="404" y="841" on="1"/>
        <pt x="446" y="841" on="0"/>
        <pt x="477" y="802" on="0"/>
        <pt x="477" y="782" on="1"/>
        <pt x="477" y="758" on="0"/>
        <pt x="447" y="731" on="0"/>
        <pt x="428" y="731" on="1"/>
        <pt x="413" y="731" on="0"/>
        <pt x="391" y="742" on="0"/>
        <pt x="383" y="752" on="0"/>
        <pt x="375" y="763" on="1"/>
        <pt x="368" y="777" on="0"/>
        <pt x="360" y="777" on="1"/>
        <pt x="347" y="777" on="0"/>
        <pt x="342" y="749" on="0"/>
        <pt x="342" y="700" on="1"/>
      </contour>
    </TTGlyph>
    <TTGlyph name="SS270000" xMin="123" yMin="-245" xMax="342" yMax="841">
      <contour>
        <pt x="258" y="841" on="1"/>
        <pt x="342" y="841" on="1"/>
        <pt x="342" y="-28" on="1"/>
        <pt x="342" y="-135" on="0"/>
        <pt x="253" y="-245" on="0"/>
        <pt x="196" y="-245" on="1"/>
        <pt x="166" y="-245" on="0"/>
        <pt x="131" y="-220" on="0"/>
        <pt x="123" y="-197" on="0"/>
        <pt x="123" y="-186" on="1"/>
        <pt x="123" y="-163" on="0"/>
        <pt x="152" y="-135" on="0"/>
        <pt x="171" y="-135" on="1"/>
        <pt x="186" y="-135" on="0"/>
        <pt x="209" y="-146" on="0"/>
        <pt x="217" y="-156" on="0"/>
        <pt x="225" y="-167" on="1"/>
        <pt x="232" y="-182" on="0"/>
        <pt x="241" y="-182" on="1"/>
        <pt x="253" y="-182" on="0"/>
        <pt x="258" y="-153" on="0"/>
        <pt x="258" y="-104" on="1"/>
      </contour>
    </TTGlyph>
    <TTGlyph name="SV040000" xMin="102" yMin="96" xMax="498" yMax="467">
      <contour>
        <pt x="102" y="467" on="1"/>
        <pt x="498" y="467" on="1"/>
        <pt x="300" y="96" on="1"/>
      </contour>
    </TTGlyph>
    <TTGlyph name="Sacute" xMin="67" yMin="-19" xMax="631" yMax="751">
      <component glyphName="S" x="0" y="0" flags="0x1004"/>
      <component glyphName="acute" x="53" y="133" flags="0x1004"/>
    </TTGlyph>
    <TTGlyph name="Scaron" xMin="67" yMin="-19" xMax="631" yMax="753">
      <component glyphName="S" x="0" y="0" flags="0x1004"/>
      <component glyphName="caron" x="53" y="133" flags="0x1004"/>
    </TTGlyph>
    <TTGlyph name="Scedilla" xMin="67" yMin="-142" xMax="631" yMax="581">
      <contour>
        <pt x="324" y="-17" on="1"/>
        <pt x="322" y="-22" on="1"/>
        <pt x="380" y="-31" on="0"/>
        <pt x="380" y="-78" on="1"/>
        <pt x="380" y="-105" on="0"/>
        <pt x="334" y="-142" on="0"/>
        <pt x="289" y="-142" on="1"/>
        <pt x="254" y="-142" on="0"/>
        <pt x="179" y="-127" on="1"/>
        <pt x="195" y="-83" on="1"/>
        <pt x="248" y="-97" on="0"/>
        <pt x="292" y="-97" on="1"/>
        <pt x="332" y="-97" on="0"/>
        <pt x="332" y="-78" on="1"/>
        <pt x="332" y="-72" on="0"/>
        <pt x="327" y="-67" on="0"/>
        <pt x="297" y="-61" on="0"/>
        <pt x="265" y="-60" on="1"/>
        <pt x="280" y="-14" on="1"/>
        <pt x="214" y="-5" on="0"/>
        <pt x="176" y="24" on="1"/>
        <pt x="174" y="25" on="0"/>
        <pt x="161" y="40" on="0"/>
        <pt x="149" y="51" on="0"/>
        <pt x="146" y="51" on="1"/>
        <pt x="138" y="51" on="0"/>
        <pt x="110" y="-19" on="1"/>
        <pt x="67" y="-12" on="1"/>
        <pt x="87" y="49" on="0"/>
        <pt x="103" y="113" on="0"/>
        <pt x="110" y="168" on="1"/>
        <pt x="154" y="168" on="1"/>
        <pt x="151" y="111" on="0"/>
        <pt x="224" y="30" on="0"/>
        <pt x="316" y="30" on="1"/>
        <pt x="400" y="30" on="0"/>
        <pt x="491" y="114" on="0"/>
        <pt x="491" y="168" on="1"/>
        <pt x="491" y="195" on="0"/>
        <pt x="469" y="231" on="0"/>
        <pt x="421" y="249" on="0"/>
        <pt x="385" y="255" on="0"/>
        <pt x="351" y="258" on="1"/>
        <pt x="275" y="265" on="0"/>
        <pt x="239" y="292" on="1"/>
        <pt x="214" y="311" on="0"/>
        <pt x="184" y="372" on="0"/>
        <pt x="184" y="404" on="1"/>
        <pt x="184" y="469" on="0"/>
        <pt x="303" y="580" on="0"/>
        <pt x="402" y="580" on="1"/>
        <pt x="481" y="580" on="0"/>
        <pt x="520" y="544" on="1"/>
        <pt x="521" y="543" on="0"/>
        <pt x="533" y="529" on="0"/>
        <pt x="544" y="518" on="0"/>
        <pt x="546" y="518" on="1"/>
        <pt x="556" y="518" on="0"/>
        <pt x="590" y="581" on="1"/>
        <pt x="631" y="570" on="1"/>
        <pt x="589" y="466" on="0"/>
        <pt x="577" y="383" on="1"/>
        <pt x="535" y="391" on="1"/>
        <pt x="539" y="411" on="0"/>
        <pt x="539" y="426" on="1"/>
        <pt x="539" y="479" on="0"/>
        <pt x="466" y="533" on="0"/>
        <pt x="406" y="533" on="1"/>
        <pt x="332" y="533" on="0"/>
        <pt x="238" y="456" on="0"/>
        <pt x="238" y="405" on="1"/>
        <pt x="238" y="374" on="0"/>
        <pt x="264" y="333" on="0"/>
        <pt x="313" y="315" on="0"/>
        <pt x="343" y="310" on="0"/>
        <pt x="368" y="308" on="1"/>
        <pt x="545" y="296" on="0"/>
        <pt x="545" y="173" on="1"/>
        <pt x="545" y="143" on="0"/>
        <pt x="521" y="82" on="0"/>
        <pt x="472" y="23" on="0"/>
        <pt x="382" y="-16" on="0"/>
      </contour>
    </TTGlyph>
    <TTGlyph name="Scircumflex" xMin="67" yMin="-19" xMax="631" yMax="753">
      <component glyphName="S" x="0" y="0" flags="0x1004"/>
      <component glyphName="circumflex" x="53" y="133" flags="0x1004"/>
    </TTGlyph>
    <TTGlyph name="Sigma" xMin="103" yMin="0" xMax="615" yMax="563">
      <contour>
        <pt x="223" y="563" on="1"/>
        <pt x="615" y="563" on="1"/>
        <pt x="578" y="380" on="1"/>
        <pt x="531" y="380" on="1"/>
        <pt x="550" y="516" on="1"/>
        <pt x="266" y="516" on="1"/>
        <pt x="400" y="296" on="1"/>
        <pt x="171" y="47" on="1"/>
        <pt x="457" y="47" on="1"/>
        <pt x="494" y="184" on="1"/>
        <pt x="541" y="184" on="1"/>
        <pt x="501" y="0" on="1"/>
        <pt x="103" y="0" on="1"/>
        <pt x="114" y="54" on="1"/>
        <pt x="340" y="300" on="1"/>
        <pt x="212" y="516" on="1"/>
      </contour>
    </TTGlyph>
    <TTGlyph name="T" xMin="118" yMin="0" xMax="658" yMax="563">
      <contour>
        <pt x="178" y="563" on="1"/>
        <pt x="658" y="563" on="1"/>
        <pt x="628" y="353" on="1"/>
        <pt x="580" y="353" on="1"/>
        <pt x="603" y="516" on="1"/>
        <pt x="432" y="516" on="1"/>
        <pt x="333" y="47" on="1"/>
        <pt x="455" y="47" on="1"/>
        <pt x="445" y="0" on="1"/>
        <pt x="153" y="0" on="1"/>
        <pt x="164" y="47" on="1"/>
        <pt x="284" y="47" on="1"/>
        <pt x="384" y="516" on="1"/>
        <pt x="214" y="516" on="1"/>
        <pt x="167" y="353" on="1"/>
        <pt x="118" y="353" on="1"/>
      </contour>
    </TTGlyph>
    <TTGlyph name="Tbar" xMin="118" yMin="0" xMax="658" yMax="563">
      <contour>
        <pt x="178" y="563" on="1"/>
        <pt x="658" y="563" on="1"/>
        <pt x="628" y="353" on="1"/>
        <pt x="580" y="353" on="1"/>
        <pt x="603" y="516" on="1"/>
        <pt x="432" y="516" on="1"/>
        <pt x="398" y="354" on="1"/>
        <pt x="538" y="354" on="1"/>
        <pt x="528" y="307" on="1"/>
        <pt x="388" y="307" on="1"/>
        <pt x="333" y="47" on="1"/>
        <pt x="455" y="47" on="1"/>
        <pt x="445" y="0" on="1"/>
        <pt x="153" y="0" on="1"/>
        <pt x="164" y="47" on="1"/>
        <pt x="284" y="47" on="1"/>
        <pt x="339" y="307" on="1"/>
        <pt x="200" y="307" on="1"/>
        <pt x="210" y="354" on="1"/>
        <pt x="349" y="354" on="1"/>
        <pt x="384" y="516" on="1"/>
        <pt x="214" y="516" on="1"/>
        <pt x="167" y="353" on="1"/>
        <pt x="118" y="353" on="1"/>
      </contour>
    </TTGlyph>
    <TTGlyph name="Tcaron" xMin="118" yMin="0" xMax="658" yMax="753">
      <component glyphName="T" x="0" y="0" flags="0x1004"/>
      <component glyphName="caron" x="40" y="133" flags="0x1004"/>
    </TTGlyph>
    <TTGlyph name="Tcedilla" xMin="118" yMin="-142" xMax="658" yMax="563">
      <contour>
        <pt x="328" y="0" on="1"/>
        <pt x="321" y="-22" on="1"/>
        <pt x="379" y="-31" on="0"/>
        <pt x="379" y="-78" on="1"/>
        <pt x="379" y="-105" on="0"/>
        <pt x="334" y="-142" on="0"/>
        <pt x="289" y="-142" on="1"/>
        <pt x="253" y="-142" on="0"/>
        <pt x="178" y="-127" on="1"/>
        <pt x="194" y="-83" on="1"/>
        <pt x="247" y="-97" on="0"/>
        <pt x="291" y="-97" on="1"/>
        <pt x="332" y="-97" on="0"/>
        <pt x="332" y="-78" on="1"/>
        <pt x="332" y="-72" on="0"/>
        <pt x="327" y="-67" on="0"/>
        <pt x="296" y="-61" on="0"/>
        <pt x="264" y="-60" on="1"/>
        <pt x="284" y="0" on="1"/>
        <pt x="153" y="0" on="1"/>
        <pt x="164" y="47" on="1"/>
        <pt x="284" y="47" on="1"/>
        <pt x="384" y="516" on="1"/>
        <pt x="214" y="516" on="1"/>
        <pt x="167" y="353" on="1"/>
        <pt x="118" y="353" on="1"/>
        <pt x="178" y="563" on="1"/>
        <pt x="658" y="563" on="1"/>
        <pt x="628" y="353" on="1"/>
        <pt x="580" y="353" on="1"/>
        <pt x="603" y="516" on="1"/>
        <pt x="432" y="516" on="1"/>
        <pt x="333" y="47" on="1"/>
        <pt x="455" y="47" on="1"/>
        <pt x="445" y="0" on="1"/>
      </contour>
    </TTGlyph>
    <TTGlyph name="Theta" xMin="92" yMin="-17" xMax="622" yMax="580">
      <contour>
        <pt x="241" y="377" on="1"/>
        <pt x="288" y="377" on="1"/>
        <pt x="274" y="310" on="1"/>
        <pt x="452" y="310" on="1"/>
        <pt x="466" y="377" on="1"/>
        <pt x="513" y="377" on="1"/>
        <pt x="475" y="196" on="1"/>
        <pt x="428" y="196" on="1"/>
        <pt x="442" y="263" on="1"/>
        <pt x="264" y="263" on="1"/>
        <pt x="250" y="196" on="1"/>
        <pt x="202" y="196" on="1"/>
      </contour>
      <contour>
        <pt x="92" y="207" on="1"/>
        <pt x="92" y="296" on="0"/>
        <pt x="171" y="466" on="0"/>
        <pt x="323" y="580" on="0"/>
        <pt x="415" y="580" on="1"/>
        <pt x="518" y="580" on="0"/>
        <pt x="622" y="445" on="0"/>
        <pt x="622" y="352" on="1"/>
        <pt x="622" y="264" on="0"/>
        <pt x="541" y="95" on="0"/>
        <pt x="390" y="-17" on="0"/>
        <pt x="299" y="-17" on="1"/>
        <pt x="201" y="-17" on="0"/>
        <pt x="92" y="114" on="0"/>
      </contour>
      <contour>
        <pt x="146" y="211" on="1"/>
        <pt x="146" y="134" on="0"/>
        <pt x="226" y="30" on="0"/>
        <pt x="301" y="30" on="1"/>
        <pt x="375" y="30" on="0"/>
        <pt x="500" y="128" on="0"/>
        <pt x="568" y="275" on="0"/>
        <pt x="568" y="427" on="0"/>
        <pt x="489" y="533" on="0"/>
        <pt x="411" y="533" on="1"/>
        <pt x="353" y="533" on="0"/>
        <pt x="251" y="472" on="0"/>
        <pt x="184" y="376" on="0"/>
        <pt x="146" y="264" on="0"/>
      </contour>
    </TTGlyph>
    <TTGlyph name="Thorn" xMin="91" yMin="0" xMax="620" yMax="563">
      <contour>
        <pt x="231" y="47" on="1"/>
        <pt x="346" y="47" on="1"/>
        <pt x="336" y="0" on="1"/>
        <pt x="91" y="0" on="1"/>
        <pt x="101" y="47" on="1"/>
        <pt x="183" y="47" on="1"/>
        <pt x="282" y="516" on="1"/>
        <pt x="201" y="516" on="1"/>
        <pt x="211" y="563" on="1"/>
        <pt x="455" y="563" on="1"/>
        <pt x="445" y="516" on="1"/>
        <pt x="331" y="516" on="1"/>
        <pt x="320" y="465" on="1"/>
        <pt x="375" y="465" on="1"/>
        <pt x="470" y="465" on="0"/>
        <pt x="557" y="451" on="0"/>
        <pt x="585" y="423" on="1"/>
        <pt x="620" y="388" on="0"/>
        <pt x="620" y="330" on="1"/>
        <pt x="620" y="284" on="0"/>
        <pt x="578" y="203" on="0"/>
        <pt x="547" y="176" on="1"/>
        <pt x="505" y="141" on="0"/>
        <pt x="403" y="123" on="0"/>
        <pt x="305" y="123" on="1"/>
        <pt x="247" y="123" on="1"/>
      </contour>
      <contour>
        <pt x="410" y="418" on="1"/>
        <pt x="310" y="418" on="1"/>
        <pt x="257" y="170" on="1"/>
        <pt x="310" y="170" on="1"/>
        <pt x="369" y="170" on="0"/>
        <pt x="421" y="172" on="0"/>
        <pt x="490" y="189" on="0"/>
        <pt x="511" y="207" on="1"/>
        <pt x="566" y="255" on="0"/>
        <pt x="566" y="319" on="1"/>
        <pt x="566" y="347" on="0"/>
        <pt x="544" y="387" on="0"/>
        <pt x="516" y="406" on="0"/>
        <pt x="465" y="417" on="0"/>
        <pt x="436" y="418" on="0"/>
      </contour>
    </TTGlyph>
    <TTGlyph name="U" xMin="137" yMin="-17" xMax="698" yMax="563">
      <contour>
        <pt x="148" y="563" on="1"/>
        <pt x="373" y="563" on="1"/>
        <pt x="363" y="516" on="1"/>
        <pt x="262" y="516" on="1"/>
        <pt x="201" y="234" on="1"/>
        <pt x="188" y="169" on="0"/>
        <pt x="188" y="130" on="1"/>
        <pt x="188" y="118" on="0"/>
        <pt x="195" y="92" on="0"/>
        <pt x="217" y="56" on="0"/>
        <pt x="270" y="34" on="0"/>
        <pt x="309" y="34" on="1"/>
        <pt x="355" y="34" on="0"/>
        <pt x="423" y="59" on="0"/>
        <pt x="461" y="90" on="0"/>
        <pt x="490" y="151" on="0"/>
        <pt x="500" y="190" on="0"/>
        <pt x="508" y="227" on="1"/>
        <pt x="570" y="516" on="1"/>
        <pt x="467" y="516" on="1"/>
        <pt x="477" y="563" on="1"/>
        <pt x="698" y="563" on="1"/>
        <pt x="688" y="516" on="1"/>
        <pt x="617" y="516" on="1"/>
        <pt x="554" y="221" on="1"/>
        <pt x="537" y="140" on="0"/>
        <pt x="500" y="64" on="0"/>
        <pt x="471" y="40" on="1"/>
        <pt x="401" y="-17" on="0"/>
        <pt x="301" y="-17" on="1"/>
        <pt x="235" y="-17" on="0"/>
        <pt x="137" y="51" on="0"/>
        <pt x="137" y="123" on="1"/>
        <pt x="137" y="164" on="0"/>
        <pt x="152" y="234" on="1"/>
        <pt x="212" y="516" on="1"/>
        <pt x="138" y="516" on="1"/>
      </contour>
    </TTGlyph>
    <TTGlyph name="Uacute" xMin="137" yMin="-17" xMax="698" yMax="751">
      <component glyphName="U" x="0" y="0" flags="0x1004"/>
      <component glyphName="acute" x="53" y="133" flags="0x1004"/>
    </TTGlyph>
    <TTGlyph name="Ubreve" xMin="137" yMin="-17" xMax="698" yMax="757">
      <component glyphName="U" x="0" y="0" flags="0x1004"/>
      <component glyphName="breve" x="53" y="133" flags="0x1004"/>
    </TTGlyph>
    <TTGlyph name="Ucircumflex" xMin="137" yMin="-17" xMax="698" yMax="753">
      <component glyphName="U" x="0" y="0" flags="0x1004"/>
      <component glyphName="circumflex" x="53" y="133" flags="0x1004"/>
    </TTGlyph>
    <TTGlyph name="Udieresis" xMin="137" yMin="-17" xMax="698" yMax="754">
      <component glyphName="U" x="0" y="0" flags="0x1004"/>
      <component glyphName="dieresis" x="53" y="133" flags="0x1004"/>
    </TTGlyph>
    <TTGlyph name="Ugrave" xMin="137" yMin="-17" xMax="698" yMax="751">
      <component glyphName="U" x="0" y="0" flags="0x1004"/>
      <component glyphName="grave" x="53" y="133" flags="0x1004"/>
    </TTGlyph>
    <TTGlyph name="Uhungarumlaut" xMin="137" yMin="-17" xMax="698" yMax="750">
      <component glyphName="U" x="0" y="0" flags="0x1004"/>
      <component glyphName="hungarumlaut" x="53" y="133" flags="0x1004"/>
    </TTGlyph>
    <TTGlyph name="Umacron" xMin="137" yMin="-17" xMax="698" yMax="725">
      <component glyphName="U" x="0" y="0" flags="0x1004"/>
      <component glyphName="macron" x="53" y="133" flags="0x1004"/>
    </TTGlyph>
    <TTGlyph name="Uogonek" xMin="137" yMin="-117" xMax="698" yMax="563">
      <contour>
        <pt x="399" y="-39" on="1"/>
        <pt x="377" y="-94" on="1"/>
        <pt x="341" y="-117" on="0"/>
        <pt x="314" y="-117" on="1"/>
        <pt x="294" y="-117" on="0"/>
        <pt x="266" y="-92" on="0"/>
        <pt x="266" y="-70" on="1"/>
        <pt x="266" y="-41" on="0"/>
        <pt x="292" y="-17" on="1"/>
        <pt x="214" y="-12" on="0"/>
        <pt x="137" y="64" on="0"/>
        <pt x="137" y="123" on="1"/>
        <pt x="137" y="164" on="0"/>
        <pt x="152" y="234" on="1"/>
        <pt x="212" y="516" on="1"/>
        <pt x="138" y="516" on="1"/>
        <pt x="148" y="563" on="1"/>
        <pt x="373" y="563" on="1"/>
        <pt x="363" y="516" on="1"/>
        <pt x="262" y="516" on="1"/>
        <pt x="201" y="234" on="1"/>
        <pt x="188" y="169" on="0"/>
        <pt x="188" y="130" on="1"/>
        <pt x="188" y="118" on="0"/>
        <pt x="195" y="92" on="0"/>
        <pt x="217" y="56" on="0"/>
        <pt x="270" y="34" on="0"/>
        <pt x="309" y="34" on="1"/>
        <pt x="355" y="34" on="0"/>
        <pt x="423" y="59" on="0"/>
        <pt x="461" y="90" on="0"/>
        <pt x="490" y="151" on="0"/>
        <pt x="500" y="190" on="0"/>
        <pt x="508" y="227" on="1"/>
        <pt x="570" y="516" on="1"/>
        <pt x="467" y="516" on="1"/>
        <pt x="477" y="563" on="1"/>
        <pt x="698" y="563" on="1"/>
        <pt x="688" y="516" on="1"/>
        <pt x="617" y="516" on="1"/>
        <pt x="554" y="221" on="1"/>
        <pt x="548" y="189" on="0"/>
        <pt x="535" y="145" on="0"/>
        <pt x="508" y="77" on="0"/>
        <pt x="464" y="28" on="0"/>
        <pt x="435" y="16" on="1"/>
        <pt x="369" y="-11" on="0"/>
        <pt x="329" y="-35" on="0"/>
        <pt x="329" y="-52" on="1"/>
        <pt x="329" y="-65" on="0"/>
        <pt x="343" y="-65" on="1"/>
        <pt x="355" y="-65" on="0"/>
      </contour>
    </TTGlyph>
    <TTGlyph name="Uring" xMin="137" yMin="-17" xMax="698" yMax="775">
      <component glyphName="U" x="0" y="0" flags="0x1004"/>
      <component glyphName="ring" x="53" y="133" flags="0x1004"/>
    </TTGlyph>
    <TTGlyph name="Utilde" xMin="137" yMin="-17" xMax="698" yMax="753">
      <component glyphName="U" x="0" y="0" flags="0x1004"/>
      <component glyphName="tilde" x="53" y="133" flags="0x1004"/>
    </TTGlyph>
    <TTGlyph name="V" xMin="115" yMin="0" xMax="712" yMax="563">
      <contour>
        <pt x="125" y="563" on="1"/>
        <pt x="339" y="563" on="1"/>
        <pt x="331" y="516" on="1"/>
        <pt x="234" y="516" on="1"/>
        <pt x="313" y="56" on="1"/>
        <pt x="591" y="516" on="1"/>
        <pt x="489" y="516" on="1"/>
        <pt x="499" y="563" on="1"/>
        <pt x="712" y="563" on="1"/>
        <pt x="702" y="516" on="1"/>
        <pt x="641" y="516" on="1"/>
        <pt x="331" y="0" on="1"/>
        <pt x="270" y="0" on="1"/>
        <pt x="184" y="516" on="1"/>
        <pt x="115" y="516" on="1"/>
      </contour>
    </TTGlyph>
    <TTGlyph name="W" xMin="111" yMin="0" xMax="716" yMax="563">
      <contour>
        <pt x="120" y="563" on="1"/>
        <pt x="318" y="563" on="1"/>
        <pt x="308" y="516" on="1"/>
        <pt x="206" y="516" on="1"/>
        <pt x="174" y="98" on="1"/>
        <pt x="176" y="96" on="1"/>
        <pt x="381" y="460" on="1"/>
        <pt x="415" y="460" on="1"/>
        <pt x="464" y="96" on="1"/>
        <pt x="466" y="96" on="1"/>
        <pt x="613" y="516" on="1"/>
        <pt x="511" y="516" on="1"/>
        <pt x="521" y="563" on="1"/>
        <pt x="716" y="563" on="1"/>
        <pt x="706" y="516" on="1"/>
        <pt x="660" y="516" on="1"/>
        <pt x="477" y="0" on="1"/>
        <pt x="426" y="0" on="1"/>
        <pt x="377" y="364" on="1"/>
        <pt x="375" y="364" on="1"/>
        <pt x="168" y="0" on="1"/>
        <pt x="120" y="0" on="1"/>
        <pt x="158" y="516" on="1"/>
        <pt x="111" y="516" on="1"/>
      </contour>
    </TTGlyph>
    <TTGlyph name="X" xMin="31" yMin="0" xMax="667" yMax="563">
      <contour>
        <pt x="170" y="563" on="1"/>
        <pt x="364" y="563" on="1"/>
        <pt x="354" y="516" on="1"/>
        <pt x="272" y="516" on="1"/>
        <pt x="372" y="333" on="1"/>
        <pt x="548" y="516" on="1"/>
        <pt x="473" y="516" on="1"/>
        <pt x="483" y="563" on="1"/>
        <pt x="667" y="563" on="1"/>
        <pt x="657" y="516" on="1"/>
        <pt x="606" y="516" on="1"/>
        <pt x="390" y="296" on="1"/>
        <pt x="523" y="47" on="1"/>
        <pt x="576" y="47" on="1"/>
        <pt x="566" y="0" on="1"/>
        <pt x="364" y="0" on="1"/>
        <pt x="372" y="47" on="1"/>
        <pt x="465" y="47" on="1"/>
        <pt x="354" y="259" on="1"/>
        <pt x="149" y="47" on="1"/>
        <pt x="255" y="47" on="1"/>
        <pt x="244" y="0" on="1"/>
        <pt x="31" y="0" on="1"/>
        <pt x="41" y="47" on="1"/>
        <pt x="91" y="47" on="1"/>
        <pt x="334" y="296" on="1"/>
        <pt x="214" y="516" on="1"/>
        <pt x="160" y="516" on="1"/>
      </contour>
    </TTGlyph>
    <TTGlyph name="Y" xMin="140" yMin="0" xMax="687" yMax="563">
      <contour>
        <pt x="150" y="563" on="1"/>
        <pt x="347" y="563" on="1"/>
        <pt x="336" y="516" on="1"/>
        <pt x="260" y="516" on="1"/>
        <pt x="358" y="268" on="1"/>
        <pt x="559" y="516" on="1"/>
        <pt x="482" y="516" on="1"/>
        <pt x="492" y="563" on="1"/>
        <pt x="687" y="563" on="1"/>
        <pt x="677" y="516" on="1"/>
        <pt x="615" y="516" on="1"/>
        <pt x="371" y="218" on="1"/>
        <pt x="336" y="47" on="1"/>
        <pt x="453" y="47" on="1"/>
        <pt x="443" y="0" on="1"/>
        <pt x="156" y="0" on="1"/>
        <pt x="166" y="47" on="1"/>
        <pt x="285" y="47" on="1"/>
        <pt x="322" y="218" on="1"/>
        <pt x="204" y="516" on="1"/>
        <pt x="140" y="516" on="1"/>
      </contour>
    </TTGlyph>
    <TTGlyph name="Yacute" xMin="140" yMin="0" xMax="687" yMax="751">
      <component glyphName="Y" x="0" y="0" flags="0x1004"/>
      <component glyphName="acute" x="53" y="133" flags="0x1004"/>
    </TTGlyph>
    <TTGlyph name="Ydieresis" xMin="140" yMin="0" xMax="687" yMax="754">
      <component glyphName="Y" x="0" y="0" flags="0x1004"/>
      <component glyphName="dieresis" x="53" y="133" flags="0x1004"/>
    </TTGlyph>
    <TTGlyph name="Z" xMin="83" yMin="0" xMax="612" yMax="563">
      <contour>
        <pt x="209" y="563" on="1"/>
        <pt x="612" y="563" on="1"/>
        <pt x="603" y="521" on="1"/>
        <pt x="154" y="47" on="1"/>
        <pt x="478" y="47" on="1"/>
        <pt x="514" y="209" on="1"/>
        <pt x="559" y="209" on="1"/>
        <pt x="514" y="0" on="1"/>
        <pt x="83" y="0" on="1"/>
        <pt x="93" y="47" on="1"/>
        <pt x="536" y="516" on="1"/>
        <pt x="246" y="516" on="1"/>
        <pt x="215" y="370" on="1"/>
        <pt x="168" y="370" on="1"/>
      </contour>
    </TTGlyph>
    <TTGlyph name="Zacute" xMin="83" yMin="0" xMax="612" yMax="751">
      <component glyphName="Z" x="0" y="0" flags="0x1004"/>
      <component glyphName="acute" x="40" y="133" flags="0x1004"/>
    </TTGlyph>
    <TTGlyph name="Zcaron" xMin="83" yMin="0" xMax="612" yMax="753">
      <component glyphName="Z" x="0" y="0" flags="0x1004"/>
      <component glyphName="caron" x="40" y="133" flags="0x1004"/>
    </TTGlyph>
    <TTGlyph name="Zdotaccent" xMin="83" yMin="0" xMax="612" yMax="754">
      <component glyphName="Z" x="0" y="0" flags="0x1004"/>
      <component glyphName="dotaccent" x="40" y="133" flags="0x1004"/>
    </TTGlyph>
    <TTGlyph name="a" xMin="82" yMin="-14" xMax="559" yMax="450">
      <contour>
        <pt x="523" y="296" on="1"/>
        <pt x="472" y="47" on="1"/>
        <pt x="559" y="47" on="1"/>
        <pt x="549" y="0" on="1"/>
        <pt x="410" y="0" on="1"/>
        <pt x="422" y="57" on="1"/>
        <pt x="382" y="35" on="0"/>
        <pt x="335" y="11" on="0"/>
        <pt x="253" y="-14" on="0"/>
        <pt x="214" y="-14" on="1"/>
        <pt x="156" y="-14" on="0"/>
        <pt x="82" y="53" on="0"/>
        <pt x="82" y="103" on="1"/>
        <pt x="82" y="167" on="0"/>
        <pt x="212" y="278" on="0"/>
        <pt x="331" y="278" on="1"/>
        <pt x="395" y="278" on="0"/>
        <pt x="467" y="265" on="1"/>
        <pt x="472" y="296" on="1"/>
        <pt x="477" y="321" on="0"/>
        <pt x="477" y="339" on="1"/>
        <pt x="477" y="363" on="0"/>
        <pt x="429" y="402" on="0"/>
        <pt x="375" y="402" on="1"/>
        <pt x="307" y="402" on="0"/>
        <pt x="195" y="360" on="1"/>
        <pt x="185" y="406" on="1"/>
        <pt x="304" y="450" on="0"/>
        <pt x="387" y="450" on="1"/>
        <pt x="448" y="450" on="0"/>
        <pt x="530" y="397" on="0"/>
        <pt x="530" y="347" on="1"/>
        <pt x="530" y="338" on="0"/>
      </contour>
      <contour>
        <pt x="435" y="119" on="1"/>
        <pt x="457" y="219" on="1"/>
        <pt x="391" y="230" on="0"/>
        <pt x="332" y="230" on="1"/>
        <pt x="276" y="230" on="0"/>
        <pt x="194" y="204" on="0"/>
        <pt x="154" y="163" on="0"/>
        <pt x="136" y="125" on="0"/>
        <pt x="136" y="108" on="1"/>
        <pt x="136" y="74" on="0"/>
        <pt x="189" y="34" on="0"/>
        <pt x="221" y="34" on="1"/>
        <pt x="268" y="34" on="0"/>
        <pt x="393" y="87" on="0"/>
      </contour>
    </TTGlyph>
    <TTGlyph name="aacute" xMin="82" yMin="-14" xMax="559" yMax="618">
      <component glyphName="a" x="0" y="0" flags="0x1004"/>
      <component glyphName="acute" x="0" y="0" flags="0x1004"/>
    </TTGlyph>
    <TTGlyph name="abreve" xMin="82" yMin="-14" xMax="595" yMax="624">
      <component glyphName="a" x="0" y="0" flags="0x1004"/>
      <component glyphName="breve" x="0" y="0" flags="0x1004"/>
    </TTGlyph>
    <TTGlyph name="acircumflex" xMin="82" yMin="-14" xMax="559" yMax="620">
      <component glyphName="a" x="0" y="0" flags="0x1004"/>
      <component glyphName="circumflex" x="0" y="0" flags="0x1004"/>
    </TTGlyph>
    <TTGlyph name="acute" xMin="314" yMin="503" xMax="534" yMax="618">
      <contour>
        <pt x="534" y="618" on="1"/>
        <pt x="368" y="503" on="1"/>
        <pt x="314" y="503" on="1"/>
        <pt x="424" y="618" on="1"/>
      </contour>
    </TTGlyph>
    <TTGlyph name="adieresis" xMin="82" yMin="-14" xMax="559" yMax="621">
      <component glyphName="a" x="0" y="0" flags="0x1004"/>
      <component glyphName="dieresis" x="0" y="0" flags="0x1004"/>
    </TTGlyph>
    <TTGlyph name="ae" xMin="54" yMin="-14" xMax="622" yMax="450">
      <contour>
        <pt x="604" y="205" on="1"/>
        <pt x="363" y="205" on="1"/>
        <pt x="355" y="165" on="0"/>
        <pt x="355" y="134" on="1"/>
        <pt x="355" y="89" on="0"/>
        <pt x="400" y="31" on="0"/>
        <pt x="440" y="31" on="1"/>
        <pt x="483" y="31" on="0"/>
        <pt x="560" y="55" on="1"/>
        <pt x="569" y="11" on="1"/>
        <pt x="494" y="-14" on="0"/>
        <pt x="430" y="-14" on="1"/>
        <pt x="395" y="-14" on="0"/>
        <pt x="365" y="2" on="0"/>
        <pt x="329" y="38" on="1"/>
        <pt x="313" y="54" on="0"/>
        <pt x="313" y="78" on="1"/>
        <pt x="278" y="40" on="0"/>
        <pt x="184" y="-14" on="0"/>
        <pt x="149" y="-14" on="1"/>
        <pt x="113" y="-14" on="0"/>
        <pt x="54" y="36" on="0"/>
        <pt x="54" y="87" on="1"/>
        <pt x="54" y="151" on="0"/>
        <pt x="162" y="264" on="0"/>
        <pt x="249" y="264" on="1"/>
        <pt x="287" y="264" on="0"/>
        <pt x="323" y="256" on="1"/>
        <pt x="331" y="293" on="1"/>
        <pt x="338" y="324" on="0"/>
        <pt x="338" y="347" on="1"/>
        <pt x="338" y="379" on="0"/>
        <pt x="312" y="403" on="0"/>
        <pt x="284" y="403" on="1"/>
        <pt x="243" y="403" on="0"/>
        <pt x="155" y="375" on="1"/>
        <pt x="151" y="420" on="1"/>
        <pt x="237" y="450" on="0"/>
        <pt x="292" y="450" on="1"/>
        <pt x="340" y="450" on="0"/>
        <pt x="379" y="409" on="0"/>
        <pt x="384" y="375" on="1"/>
        <pt x="405" y="397" on="0"/>
        <pt x="432" y="421" on="0"/>
        <pt x="490" y="450" on="0"/>
        <pt x="520" y="450" on="1"/>
        <pt x="563" y="450" on="0"/>
        <pt x="622" y="384" on="0"/>
        <pt x="622" y="309" on="1"/>
        <pt x="622" y="257" on="0"/>
      </contour>
      <contour>
        <pt x="293" y="118" on="1"/>
        <pt x="313" y="210" on="1"/>
        <pt x="275" y="219" on="0"/>
        <pt x="243" y="219" on="1"/>
        <pt x="175" y="219" on="0"/>
        <pt x="105" y="136" on="0"/>
        <pt x="105" y="93" on="1"/>
        <pt x="105" y="66" on="0"/>
        <pt x="134" y="33" on="0"/>
        <pt x="154" y="33" on="1"/>
        <pt x="183" y="33" on="0"/>
        <pt x="263" y="86" on="0"/>
      </contour>
      <contour>
        <pt x="370" y="249" on="1"/>
        <pt x="566" y="249" on="1"/>
        <pt x="573" y="278" on="0"/>
        <pt x="573" y="311" on="1"/>
        <pt x="573" y="322" on="0"/>
        <pt x="570" y="344" on="0"/>
        <pt x="561" y="382" on="0"/>
        <pt x="533" y="405" on="0"/>
        <pt x="493" y="405" on="0"/>
        <pt x="444" y="383" on="0"/>
        <pt x="384" y="308" on="0"/>
      </contour>
    </TTGlyph>
    <TTGlyph name="afii299" xMin="-48" yMin="649" xMax="68" yMax="786">
      <contour>
        <pt x="-48" y="649" on="1"/>
        <pt x="-48" y="786" on="1"/>
        <pt x="68" y="718" on="1"/>
      </contour>
    </TTGlyph>
    <TTGlyph name="afii300" xMin="-68" yMin="649" xMax="48" yMax="786">
      <contour>
        <pt x="-68" y="718" on="1"/>
        <pt x="48" y="786" on="1"/>
        <pt x="48" y="649" on="1"/>
      </contour>
    </TTGlyph>
    <TTGlyph name="afii301" xMin="-184" yMin="0" xMax="184" yMax="782">
      <contour>
        <pt x="0" y="782" on="1"/>
        <pt x="18" y="782" on="0"/>
        <pt x="77" y="767" on="0"/>
        <pt x="126" y="742" on="0"/>
        <pt x="166" y="712" on="0"/>
        <pt x="184" y="696" on="1"/>
        <pt x="184" y="695" on="0"/>
        <pt x="182" y="692" on="1"/>
        <pt x="178" y="686" on="1"/>
        <pt x="172" y="680" on="1"/>
        <pt x="152" y="693" on="0"/>
        <pt x="112" y="713" on="0"/>
        <pt x="66" y="725" on="0"/>
        <pt x="15" y="730" on="0"/>
        <pt x="-15" y="730" on="0"/>
        <pt x="-66" y="725" on="0"/>
        <pt x="-112" y="714" on="0"/>
        <pt x="-152" y="695" on="0"/>
        <pt x="-172" y="680" on="1"/>
        <pt x="-175" y="684" on="0"/>
        <pt x="-178" y="687" on="1"/>
        <pt x="-180" y="689" on="0"/>
        <pt x="-184" y="695" on="0"/>
        <pt x="-184" y="696" on="1"/>
        <pt x="-166" y="712" on="0"/>
        <pt x="-126" y="742" on="0"/>
        <pt x="-77" y="767" on="0"/>
        <pt x="-18" y="782" on="0"/>
      </contour>
      <contour>
        <pt x="22" y="636" on="1"/>
        <pt x="22" y="628" on="0"/>
        <pt x="10" y="614" on="0"/>
        <pt x="0" y="614" on="1"/>
        <pt x="-10" y="614" on="0"/>
        <pt x="-22" y="628" on="0"/>
        <pt x="-22" y="636" on="1"/>
        <pt x="-22" y="646" on="0"/>
        <pt x="-10" y="659" on="0"/>
        <pt x="0" y="659" on="1"/>
        <pt x="10" y="659" on="0"/>
        <pt x="22" y="646" on="0"/>
      </contour>
      <contour>
        <pt x="22" y="534" on="1"/>
        <pt x="22" y="524" on="0"/>
        <pt x="10" y="512" on="0"/>
        <pt x="0" y="512" on="1"/>
        <pt x="-10" y="512" on="0"/>
        <pt x="-22" y="524" on="0"/>
        <pt x="-22" y="534" on="1"/>
        <pt x="-22" y="543" on="0"/>
        <pt x="-10" y="555" on="0"/>
        <pt x="0" y="555" on="1"/>
        <pt x="10" y="555" on="0"/>
        <pt x="22" y="543" on="0"/>
      </contour>
      <contour>
        <pt x="22" y="432" on="1"/>
        <pt x="22" y="422" on="0"/>
        <pt x="10" y="410" on="0"/>
        <pt x="0" y="410" on="1"/>
        <pt x="-10" y="410" on="0"/>
        <pt x="-22" y="422" on="0"/>
        <pt x="-22" y="432" on="1"/>
        <pt x="-22" y="440" on="0"/>
        <pt x="-10" y="454" on="0"/>
        <pt x="0" y="454" on="1"/>
        <pt x="10" y="454" on="0"/>
        <pt x="22" y="440" on="0"/>
      </contour>
      <contour>
        <pt x="22" y="328" on="1"/>
        <pt x="22" y="320" on="0"/>
        <pt x="10" y="308" on="0"/>
        <pt x="0" y="308" on="1"/>
        <pt x="-10" y="308" on="0"/>
        <pt x="-22" y="320" on="0"/>
        <pt x="-22" y="328" on="1"/>
        <pt x="-22" y="338" on="0"/>
        <pt x="-10" y="351" on="0"/>
        <pt x="0" y="351" on="1"/>
        <pt x="10" y="351" on="0"/>
        <pt x="22" y="338" on="0"/>
      </contour>
      <contour>
        <pt x="22" y="226" on="1"/>
        <pt x="22" y="218" on="0"/>
        <pt x="10" y="204" on="0"/>
        <pt x="0" y="204" on="1"/>
        <pt x="-10" y="204" on="0"/>
        <pt x="-22" y="218" on="0"/>
        <pt x="-22" y="226" on="1"/>
        <pt x="-22" y="236" on="0"/>
        <pt x="-10" y="249" on="0"/>
        <pt x="0" y="249" on="1"/>
        <pt x="10" y="249" on="0"/>
        <pt x="22" y="236" on="0"/>
      </contour>
      <contour>
        <pt x="22" y="124" on="1"/>
        <pt x="22" y="114" on="0"/>
        <pt x="10" y="102" on="0"/>
        <pt x="0" y="102" on="1"/>
        <pt x="-10" y="102" on="0"/>
        <pt x="-22" y="114" on="0"/>
        <pt x="-22" y="124" on="1"/>
        <pt x="-22" y="133" on="0"/>
        <pt x="-10" y="146" on="0"/>
        <pt x="0" y="146" on="1"/>
        <pt x="10" y="146" on="0"/>
        <pt x="22" y="133" on="0"/>
      </contour>
      <contour>
        <pt x="22" y="22" on="1"/>
        <pt x="22" y="13" on="0"/>
        <pt x="10" y="0" on="0"/>
        <pt x="0" y="0" on="1"/>
        <pt x="-10" y="0" on="0"/>
        <pt x="-22" y="13" on="0"/>
        <pt x="-22" y="22" on="1"/>
        <pt x="-22" y="30" on="0"/>
        <pt x="-10" y="43" on="0"/>
        <pt x="0" y="43" on="1"/>
        <pt x="10" y="43" on="0"/>
        <pt x="22" y="30" on="0"/>
      </contour>
    </TTGlyph>
    <TTGlyph name="afii57505" xMin="-21" yMin="14" xMax="606" yMax="732">
      <contour>
        <pt x="135" y="553" on="1"/>
        <pt x="95" y="496" on="1"/>
        <pt x="15" y="558" on="1"/>
        <pt x="55" y="615" on="1"/>
      </contour>
      <contour>
        <pt x="318" y="555" on="1"/>
        <pt x="278" y="498" on="1"/>
        <pt x="198" y="559" on="1"/>
        <pt x="238" y="617" on="1"/>
      </contour>
      <contour>
        <pt x="188" y="670" on="1"/>
        <pt x="149" y="613" on="1"/>
        <pt x="68" y="675" on="1"/>
        <pt x="108" y="732" on="1"/>
      </contour>
      <contour>
        <pt x="358" y="15" on="1"/>
        <pt x="133" y="15" on="1"/>
        <pt x="77" y="15" on="0"/>
        <pt x="4" y="66" on="0"/>
        <pt x="-14" y="126" on="1"/>
        <pt x="-24" y="159" on="0"/>
        <pt x="-12" y="239" on="0"/>
        <pt x="-7" y="257" on="1"/>
        <pt x="-17" y="166" on="0"/>
        <pt x="41" y="122" on="1"/>
        <pt x="73" y="98" on="0"/>
        <pt x="138" y="98" on="1"/>
        <pt x="144" y="98" on="1"/>
        <pt x="333" y="98" on="1"/>
        <pt x="479" y="98" on="1"/>
        <pt x="380" y="135" on="1"/>
        <pt x="334" y="153" on="0"/>
        <pt x="322" y="171" on="1"/>
        <pt x="321" y="173" on="0"/>
        <pt x="321" y="173" on="1"/>
        <pt x="306" y="265" on="1"/>
        <pt x="304" y="277" on="1"/>
        <pt x="294" y="352" on="0"/>
        <pt x="301" y="399" on="1"/>
        <pt x="310" y="451" on="0"/>
        <pt x="339" y="451" on="1"/>
        <pt x="383" y="451" on="0"/>
        <pt x="455" y="364" on="1"/>
        <pt x="539" y="263" on="0"/>
        <pt x="577" y="134" on="1"/>
        <pt x="603" y="49" on="1"/>
        <pt x="609" y="30" on="0"/>
        <pt x="596" y="15" on="0"/>
        <pt x="566" y="15" on="1"/>
      </contour>
      <contour>
        <pt x="335" y="244" on="1"/>
        <pt x="340" y="240" on="1"/>
        <pt x="530" y="170" on="1"/>
        <pt x="483" y="262" on="0"/>
        <pt x="421" y="307" on="1"/>
        <pt x="386" y="332" on="0"/>
        <pt x="358" y="334" on="1"/>
        <pt x="318" y="336" on="0"/>
      </contour>
    </TTGlyph>
    <TTGlyph name="afii57511" xMin="-13" yMin="15" xMax="599" yMax="501">
      <contour>
        <pt x="150" y="15" on="1"/>
        <pt x="94" y="15" on="0"/>
        <pt x="56" y="40" on="1"/>
        <pt x="13" y="70" on="0"/>
        <pt x="-5" y="130" on="1"/>
        <pt x="-17" y="168" on="0"/>
        <pt x="-11" y="219" on="1"/>
        <pt x="-8" y="248" on="0"/>
        <pt x="1" y="268" on="1"/>
        <pt x="-9" y="219" on="0"/>
        <pt x="1" y="187" on="1"/>
        <pt x="13" y="147" on="0"/>
        <pt x="44" y="125" on="1"/>
        <pt x="83" y="98" on="0"/>
        <pt x="147" y="98" on="1"/>
        <pt x="542" y="98" on="1"/>
        <pt x="537" y="113" on="1"/>
        <pt x="528" y="144" on="0"/>
        <pt x="499" y="177" on="1"/>
        <pt x="498" y="178" on="1"/>
        <pt x="498" y="178" on="1"/>
        <pt x="463" y="212" on="1"/>
        <pt x="466" y="287" on="1"/>
        <pt x="488" y="261" on="0"/>
        <pt x="512" y="224" on="1"/>
        <pt x="556" y="158" on="0"/>
        <pt x="574" y="97" on="1"/>
        <pt x="598" y="15" on="1"/>
      </contour>
      <contour>
        <pt x="304" y="285" on="1"/>
        <pt x="308" y="285" on="0"/>
        <pt x="312" y="285" on="1"/>
        <pt x="316" y="285" on="0"/>
        <pt x="319" y="287" on="1"/>
        <pt x="321" y="288" on="0"/>
        <pt x="322" y="290" on="1"/>
        <pt x="324" y="293" on="0"/>
        <pt x="324" y="296" on="1"/>
        <pt x="324" y="302" on="0"/>
        <pt x="322" y="307" on="1"/>
        <pt x="318" y="313" on="0"/>
        <pt x="314" y="319" on="1"/>
        <pt x="309" y="323" on="0"/>
        <pt x="304" y="327" on="1"/>
        <pt x="299" y="330" on="0"/>
        <pt x="293" y="333" on="1"/>
        <pt x="286" y="336" on="0"/>
        <pt x="278" y="339" on="1"/>
        <pt x="270" y="341" on="0"/>
        <pt x="263" y="341" on="1"/>
        <pt x="257" y="341" on="0"/>
        <pt x="251" y="339" on="1"/>
        <pt x="244" y="337" on="0"/>
        <pt x="238" y="333" on="1"/>
        <pt x="229" y="326" on="0"/>
        <pt x="222" y="318" on="1"/>
        <pt x="216" y="309" on="0"/>
        <pt x="210" y="300" on="1"/>
        <pt x="201" y="285" on="1"/>
      </contour>
      <contour>
        <pt x="330" y="318" on="1"/>
        <pt x="332" y="314" on="0"/>
        <pt x="333" y="310" on="1"/>
        <pt x="337" y="297" on="0"/>
        <pt x="338" y="284" on="1"/>
        <pt x="339" y="276" on="0"/>
        <pt x="338" y="269" on="1"/>
        <pt x="337" y="260" on="0"/>
        <pt x="334" y="253" on="1"/>
        <pt x="332" y="251" on="0"/>
        <pt x="329" y="249" on="1"/>
        <pt x="326" y="248" on="0"/>
        <pt x="322" y="248" on="1"/>
        <pt x="169" y="248" on="1"/>
        <pt x="166" y="248" on="0"/>
        <pt x="163" y="249" on="1"/>
        <pt x="159" y="250" on="0"/>
        <pt x="156" y="252" on="1"/>
        <pt x="150" y="256" on="0"/>
        <pt x="143" y="262" on="1"/>
        <pt x="137" y="268" on="0"/>
        <pt x="132" y="275" on="1"/>
        <pt x="127" y="283" on="0"/>
        <pt x="124" y="290" on="1"/>
        <pt x="123" y="291" on="1"/>
        <pt x="130" y="288" on="0"/>
        <pt x="137" y="286" on="1"/>
        <pt x="142" y="285" on="0"/>
        <pt x="148" y="285" on="1"/>
        <pt x="168" y="285" on="1"/>
        <pt x="173" y="285" on="0"/>
        <pt x="178" y="285" on="1"/>
        <pt x="182" y="286" on="0"/>
        <pt x="185" y="287" on="1"/>
        <pt x="188" y="291" on="0"/>
        <pt x="191" y="295" on="1"/>
        <pt x="193" y="299" on="0"/>
        <pt x="194" y="303" on="1"/>
        <pt x="196" y="308" on="1"/>
        <pt x="193" y="315" on="1"/>
        <pt x="185" y="333" on="0"/>
        <pt x="177" y="351" on="1"/>
        <pt x="167" y="373" on="0"/>
        <pt x="157" y="396" on="1"/>
        <pt x="149" y="413" on="0"/>
        <pt x="138" y="434" on="1"/>
        <pt x="129" y="449" on="0"/>
        <pt x="123" y="459" on="1"/>
        <pt x="128" y="501" on="1"/>
        <pt x="133" y="492" on="0"/>
        <pt x="138" y="482" on="1"/>
        <pt x="144" y="471" on="0"/>
        <pt x="149" y="460" on="1"/>
        <pt x="157" y="443" on="0"/>
        <pt x="164" y="426" on="1"/>
        <pt x="171" y="408" on="0"/>
        <pt x="177" y="391" on="1"/>
        <pt x="182" y="379" on="0"/>
        <pt x="187" y="367" on="1"/>
        <pt x="192" y="353" on="0"/>
        <pt x="197" y="339" on="1"/>
        <pt x="204" y="321" on="1"/>
        <pt x="218" y="342" on="1"/>
        <pt x="223" y="351" on="0"/>
        <pt x="230" y="359" on="1"/>
        <pt x="233" y="363" on="0"/>
        <pt x="237" y="366" on="1"/>
        <pt x="242" y="372" on="0"/>
        <pt x="249" y="376" on="1"/>
        <pt x="254" y="378" on="0"/>
        <pt x="261" y="379" on="1"/>
        <pt x="261" y="379" on="0"/>
        <pt x="261" y="379" on="1"/>
        <pt x="270" y="378" on="0"/>
        <pt x="278" y="375" on="1"/>
        <pt x="288" y="370" on="0"/>
        <pt x="297" y="363" on="1"/>
        <pt x="308" y="354" on="0"/>
        <pt x="317" y="343" on="1"/>
        <pt x="325" y="331" on="0"/>
      </contour>
    </TTGlyph>
    <TTGlyph name="afii57512" xMin="51" yMin="15" xMax="438" yMax="691">
      <contour>
        <pt x="430" y="77" on="1"/>
        <pt x="434" y="63" on="0"/>
        <pt x="437" y="50" on="1"/>
        <pt x="438" y="40" on="0"/>
        <pt x="438" y="31" on="1"/>
        <pt x="436" y="24" on="0"/>
        <pt x="432" y="19" on="1"/>
        <pt x="429" y="17" on="0"/>
        <pt x="425" y="16" on="1"/>
        <pt x="422" y="15" on="0"/>
        <pt x="417" y="15" on="1"/>
        <pt x="208" y="15" on="1"/>
        <pt x="205" y="15" on="0"/>
        <pt x="201" y="16" on="1"/>
        <pt x="198" y="17" on="0"/>
        <pt x="195" y="20" on="1"/>
        <pt x="187" y="26" on="0"/>
        <pt x="181" y="34" on="1"/>
        <pt x="174" y="45" on="0"/>
        <pt x="169" y="58" on="1"/>
        <pt x="163" y="72" on="0"/>
        <pt x="158" y="86" on="1"/>
        <pt x="157" y="89" on="0"/>
        <pt x="156" y="92" on="1"/>
        <pt x="154" y="99" on="0"/>
        <pt x="153" y="106" on="1"/>
        <pt x="151" y="111" on="0"/>
        <pt x="151" y="115" on="1"/>
        <pt x="150" y="135" on="1"/>
        <pt x="153" y="133" on="1"/>
        <pt x="161" y="125" on="0"/>
        <pt x="171" y="118" on="1"/>
        <pt x="180" y="112" on="0"/>
        <pt x="191" y="107" on="1"/>
        <pt x="200" y="103" on="0"/>
        <pt x="209" y="100" on="1"/>
        <pt x="219" y="98" on="0"/>
        <pt x="228" y="98" on="1"/>
        <pt x="354" y="98" on="1"/>
        <pt x="356" y="98" on="0"/>
        <pt x="359" y="99" on="0"/>
        <pt x="361" y="99" on="1"/>
        <pt x="364" y="100" on="0"/>
        <pt x="366" y="101" on="1"/>
        <pt x="369" y="103" on="0"/>
        <pt x="371" y="105" on="1"/>
        <pt x="375" y="109" on="0"/>
        <pt x="377" y="112" on="1"/>
        <pt x="380" y="117" on="0"/>
        <pt x="381" y="123" on="1"/>
        <pt x="381" y="134" on="0"/>
        <pt x="376" y="146" on="1"/>
        <pt x="369" y="160" on="0"/>
        <pt x="359" y="174" on="1"/>
        <pt x="338" y="199" on="0"/>
        <pt x="313" y="220" on="1"/>
        <pt x="286" y="241" on="0"/>
        <pt x="259" y="261" on="1"/>
        <pt x="240" y="276" on="0"/>
        <pt x="222" y="291" on="1"/>
        <pt x="203" y="387" on="1"/>
        <pt x="217" y="377" on="0"/>
        <pt x="231" y="368" on="1"/>
        <pt x="243" y="358" on="0"/>
        <pt x="255" y="349" on="1"/>
        <pt x="273" y="335" on="0"/>
        <pt x="289" y="320" on="1"/>
        <pt x="305" y="306" on="0"/>
        <pt x="319" y="291" on="1"/>
        <pt x="337" y="270" on="0"/>
        <pt x="353" y="248" on="1"/>
        <pt x="370" y="221" on="0"/>
        <pt x="384" y="193" on="1"/>
        <pt x="398" y="165" on="0"/>
        <pt x="409" y="137" on="1"/>
        <pt x="419" y="111" on="0"/>
        <pt x="427" y="86" on="1"/>
        <pt x="429" y="81" on="0"/>
      </contour>
      <contour>
        <pt x="233" y="475" on="1"/>
        <pt x="237" y="475" on="0"/>
        <pt x="241" y="475" on="1"/>
        <pt x="245" y="475" on="0"/>
        <pt x="248" y="477" on="1"/>
        <pt x="250" y="478" on="0"/>
        <pt x="251" y="480" on="1"/>
        <pt x="252" y="483" on="0"/>
        <pt x="253" y="486" on="1"/>
        <pt x="253" y="492" on="0"/>
        <pt x="251" y="497" on="1"/>
        <pt x="247" y="503" on="0"/>
        <pt x="242" y="509" on="1"/>
        <pt x="238" y="513" on="0"/>
        <pt x="233" y="517" on="1"/>
        <pt x="228" y="520" on="0"/>
        <pt x="222" y="523" on="1"/>
        <pt x="215" y="526" on="0"/>
        <pt x="207" y="529" on="1"/>
        <pt x="199" y="531" on="0"/>
        <pt x="192" y="531" on="1"/>
        <pt x="186" y="531" on="0"/>
        <pt x="180" y="529" on="1"/>
        <pt x="173" y="527" on="0"/>
        <pt x="167" y="523" on="1"/>
        <pt x="158" y="516" on="0"/>
        <pt x="151" y="508" on="1"/>
        <pt x="145" y="499" on="0"/>
        <pt x="139" y="490" on="1"/>
        <pt x="130" y="475" on="1"/>
      </contour>
      <contour>
        <pt x="259" y="508" on="1"/>
        <pt x="261" y="504" on="0"/>
        <pt x="262" y="500" on="1"/>
        <pt x="266" y="487" on="0"/>
        <pt x="267" y="474" on="1"/>
        <pt x="267" y="466" on="0"/>
        <pt x="267" y="459" on="1"/>
        <pt x="266" y="450" on="0"/>
        <pt x="263" y="443" on="1"/>
        <pt x="261" y="441" on="0"/>
        <pt x="258" y="439" on="1"/>
        <pt x="255" y="438" on="0"/>
        <pt x="251" y="438" on="1"/>
        <pt x="98" y="438" on="1"/>
        <pt x="95" y="438" on="0"/>
        <pt x="92" y="439" on="1"/>
        <pt x="88" y="440" on="0"/>
        <pt x="85" y="442" on="1"/>
        <pt x="78" y="446" on="0"/>
        <pt x="72" y="452" on="1"/>
        <pt x="66" y="458" on="0"/>
        <pt x="61" y="465" on="1"/>
        <pt x="56" y="473" on="0"/>
        <pt x="52" y="480" on="1"/>
        <pt x="52" y="481" on="1"/>
        <pt x="59" y="478" on="0"/>
        <pt x="65" y="476" on="1"/>
        <pt x="71" y="475" on="0"/>
        <pt x="77" y="475" on="1"/>
        <pt x="96" y="475" on="1"/>
        <pt x="102" y="475" on="0"/>
        <pt x="107" y="475" on="1"/>
        <pt x="111" y="476" on="0"/>
        <pt x="113" y="477" on="1"/>
        <pt x="117" y="481" on="0"/>
        <pt x="120" y="485" on="1"/>
        <pt x="122" y="489" on="0"/>
        <pt x="123" y="493" on="1"/>
        <pt x="125" y="498" on="1"/>
        <pt x="122" y="505" on="1"/>
        <pt x="114" y="523" on="0"/>
        <pt x="106" y="541" on="1"/>
        <pt x="96" y="563" on="0"/>
        <pt x="86" y="586" on="1"/>
        <pt x="78" y="603" on="0"/>
        <pt x="67" y="624" on="1"/>
        <pt x="58" y="639" on="0"/>
        <pt x="52" y="649" on="1"/>
        <pt x="56" y="691" on="1"/>
        <pt x="62" y="682" on="0"/>
        <pt x="67" y="672" on="1"/>
        <pt x="72" y="661" on="0"/>
        <pt x="78" y="650" on="1"/>
        <pt x="86" y="633" on="0"/>
        <pt x="93" y="616" on="1"/>
        <pt x="100" y="598" on="0"/>
        <pt x="106" y="581" on="1"/>
        <pt x="111" y="569" on="0"/>
        <pt x="116" y="557" on="1"/>
        <pt x="121" y="543" on="0"/>
        <pt x="126" y="529" on="1"/>
        <pt x="133" y="511" on="1"/>
        <pt x="147" y="532" on="1"/>
        <pt x="152" y="541" on="0"/>
        <pt x="158" y="549" on="1"/>
        <pt x="162" y="553" on="0"/>
        <pt x="165" y="556" on="1"/>
        <pt x="171" y="562" on="0"/>
        <pt x="178" y="566" on="1"/>
        <pt x="183" y="568" on="0"/>
        <pt x="189" y="569" on="1"/>
        <pt x="190" y="569" on="0"/>
        <pt x="190" y="569" on="1"/>
        <pt x="199" y="568" on="0"/>
        <pt x="207" y="565" on="1"/>
        <pt x="217" y="560" on="0"/>
        <pt x="226" y="553" on="1"/>
        <pt x="237" y="544" on="0"/>
        <pt x="245" y="533" on="1"/>
        <pt x="254" y="521" on="0"/>
      </contour>
    </TTGlyph>
    <TTGlyph name="afii57513" xMin="147" yMin="-235" xMax="459" yMax="617">
      <contour>
        <pt x="330" y="-234" on="1"/>
        <pt x="321" y="-233" on="0"/>
        <pt x="311" y="-231" on="1"/>
        <pt x="299" y="-227" on="0"/>
        <pt x="288" y="-222" on="1"/>
        <pt x="276" y="-216" on="0"/>
        <pt x="265" y="-210" on="1"/>
        <pt x="256" y="-204" on="0"/>
        <pt x="247" y="-199" on="1"/>
        <pt x="288" y="-181" on="0"/>
        <pt x="323" y="-156" on="1"/>
        <pt x="350" y="-132" on="0"/>
        <pt x="374" y="-105" on="1"/>
        <pt x="406" y="-63" on="0"/>
        <pt x="425" y="-12" on="1"/>
        <pt x="429" y="15" on="0"/>
        <pt x="423" y="43" on="1"/>
        <pt x="422" y="47" on="0"/>
        <pt x="421" y="50" on="1"/>
        <pt x="415" y="64" on="0"/>
        <pt x="407" y="78" on="1"/>
        <pt x="393" y="99" on="0"/>
        <pt x="375" y="118" on="1"/>
        <pt x="358" y="136" on="0"/>
        <pt x="340" y="153" on="1"/>
        <pt x="330" y="162" on="0"/>
        <pt x="321" y="171" on="1"/>
        <pt x="324" y="272" on="1"/>
        <pt x="327" y="269" on="1"/>
        <pt x="344" y="249" on="0"/>
        <pt x="359" y="228" on="1"/>
        <pt x="374" y="208" on="0"/>
        <pt x="388" y="186" on="1"/>
        <pt x="406" y="156" on="0"/>
        <pt x="421" y="125" on="1"/>
        <pt x="434" y="94" on="0"/>
        <pt x="444" y="63" on="1"/>
        <pt x="453" y="31" on="0"/>
        <pt x="457" y="0" on="1"/>
        <pt x="460" y="-33" on="0"/>
        <pt x="458" y="-65" on="1"/>
        <pt x="455" y="-98" on="0"/>
        <pt x="447" y="-130" on="1"/>
        <pt x="438" y="-158" on="0"/>
        <pt x="423" y="-183" on="1"/>
        <pt x="406" y="-205" on="0"/>
        <pt x="383" y="-221" on="1"/>
        <pt x="361" y="-232" on="0"/>
        <pt x="334" y="-234" on="1"/>
        <pt x="332" y="-234" on="0"/>
      </contour>
      <contour>
        <pt x="328" y="401" on="1"/>
        <pt x="332" y="401" on="0"/>
        <pt x="337" y="401" on="1"/>
        <pt x="340" y="401" on="0"/>
        <pt x="343" y="403" on="1"/>
        <pt x="345" y="404" on="0"/>
        <pt x="346" y="406" on="1"/>
        <pt x="348" y="409" on="0"/>
        <pt x="348" y="412" on="1"/>
        <pt x="348" y="418" on="0"/>
        <pt x="346" y="423" on="1"/>
        <pt x="342" y="429" on="0"/>
        <pt x="338" y="435" on="1"/>
        <pt x="333" y="439" on="0"/>
        <pt x="328" y="443" on="1"/>
        <pt x="323" y="446" on="0"/>
        <pt x="317" y="449" on="1"/>
        <pt x="310" y="452" on="0"/>
        <pt x="302" y="455" on="1"/>
        <pt x="295" y="457" on="0"/>
        <pt x="287" y="457" on="1"/>
        <pt x="281" y="457" on="0"/>
        <pt x="275" y="455" on="1"/>
        <pt x="268" y="453" on="0"/>
        <pt x="262" y="449" on="1"/>
        <pt x="254" y="442" on="0"/>
        <pt x="247" y="434" on="1"/>
        <pt x="240" y="425" on="0"/>
        <pt x="235" y="416" on="1"/>
        <pt x="225" y="401" on="1"/>
      </contour>
      <contour>
        <pt x="354" y="434" on="1"/>
        <pt x="356" y="430" on="0"/>
        <pt x="357" y="426" on="1"/>
        <pt x="361" y="413" on="0"/>
        <pt x="362" y="400" on="1"/>
        <pt x="363" y="392" on="0"/>
        <pt x="362" y="385" on="1"/>
        <pt x="361" y="376" on="0"/>
        <pt x="358" y="369" on="1"/>
        <pt x="356" y="367" on="0"/>
        <pt x="353" y="365" on="1"/>
        <pt x="350" y="364" on="0"/>
        <pt x="346" y="364" on="1"/>
        <pt x="193" y="364" on="1"/>
        <pt x="190" y="364" on="0"/>
        <pt x="187" y="365" on="1"/>
        <pt x="184" y="366" on="0"/>
        <pt x="181" y="368" on="1"/>
        <pt x="174" y="372" on="0"/>
        <pt x="168" y="378" on="1"/>
        <pt x="162" y="384" on="0"/>
        <pt x="156" y="391" on="1"/>
        <pt x="152" y="399" on="0"/>
        <pt x="148" y="406" on="1"/>
        <pt x="147" y="407" on="1"/>
        <pt x="154" y="404" on="0"/>
        <pt x="161" y="402" on="1"/>
        <pt x="166" y="401" on="0"/>
        <pt x="172" y="401" on="1"/>
        <pt x="192" y="401" on="1"/>
        <pt x="197" y="401" on="0"/>
        <pt x="202" y="401" on="1"/>
        <pt x="206" y="402" on="0"/>
        <pt x="209" y="403" on="1"/>
        <pt x="212" y="407" on="0"/>
        <pt x="215" y="411" on="1"/>
        <pt x="217" y="415" on="0"/>
        <pt x="219" y="419" on="1"/>
        <pt x="220" y="424" on="1"/>
        <pt x="217" y="431" on="1"/>
        <pt x="210" y="449" on="0"/>
        <pt x="202" y="467" on="1"/>
        <pt x="192" y="489" on="0"/>
        <pt x="182" y="512" on="1"/>
        <pt x="174" y="529" on="0"/>
        <pt x="162" y="550" on="1"/>
        <pt x="153" y="565" on="0"/>
        <pt x="147" y="575" on="1"/>
        <pt x="152" y="617" on="1"/>
        <pt x="157" y="608" on="0"/>
        <pt x="162" y="598" on="1"/>
        <pt x="168" y="587" on="0"/>
        <pt x="173" y="576" on="1"/>
        <pt x="181" y="559" on="0"/>
        <pt x="188" y="542" on="1"/>
        <pt x="195" y="524" on="0"/>
        <pt x="202" y="507" on="1"/>
        <pt x="206" y="495" on="0"/>
        <pt x="211" y="483" on="1"/>
        <pt x="216" y="469" on="0"/>
        <pt x="221" y="455" on="1"/>
        <pt x="228" y="437" on="1"/>
        <pt x="242" y="458" on="1"/>
        <pt x="247" y="467" on="0"/>
        <pt x="254" y="475" on="1"/>
        <pt x="257" y="479" on="0"/>
        <pt x="261" y="482" on="1"/>
        <pt x="266" y="488" on="0"/>
        <pt x="273" y="492" on="1"/>
        <pt x="278" y="494" on="0"/>
        <pt x="285" y="495" on="1"/>
        <pt x="285" y="495" on="0"/>
        <pt x="286" y="495" on="1"/>
        <pt x="294" y="494" on="0"/>
        <pt x="302" y="491" on="1"/>
        <pt x="312" y="486" on="0"/>
        <pt x="321" y="479" on="1"/>
        <pt x="332" y="470" on="0"/>
        <pt x="341" y="459" on="1"/>
        <pt x="349" y="447" on="0"/>
      </contour>
    </TTGlyph>
    <TTGlyph name="afii57514" xMin="73" yMin="-98" xMax="525" yMax="260">
      <contour>
        <pt x="495" y="78" on="1"/>
        <pt x="477" y="106" on="0"/>
        <pt x="449" y="141" on="1"/>
        <pt x="412" y="184" on="0"/>
        <pt x="410" y="190" on="1"/>
        <pt x="411" y="260" on="1"/>
        <pt x="443" y="219" on="0"/>
        <pt x="464" y="186" on="1"/>
        <pt x="495" y="135" on="0"/>
        <pt x="508" y="94" on="1"/>
        <pt x="521" y="50" on="1"/>
        <pt x="534" y="8" on="0"/>
        <pt x="495" y="-28" on="1"/>
        <pt x="460" y="-60" on="0"/>
        <pt x="393" y="-81" on="1"/>
        <pt x="337" y="-98" on="0"/>
        <pt x="288" y="-98" on="1"/>
        <pt x="205" y="-98" on="0"/>
        <pt x="153" y="-58" on="1"/>
        <pt x="108" y="-24" on="0"/>
        <pt x="91" y="33" on="1"/>
        <pt x="72" y="98" on="0"/>
        <pt x="73" y="163" on="1"/>
        <pt x="77" y="135" on="0"/>
        <pt x="83" y="116" on="1"/>
        <pt x="106" y="41" on="0"/>
        <pt x="167" y="9" on="1"/>
        <pt x="214" y="-15" on="0"/>
        <pt x="285" y="-15" on="1"/>
        <pt x="361" y="-15" on="0"/>
        <pt x="427" y="9" on="1"/>
        <pt x="490" y="31" on="0"/>
        <pt x="501" y="57" on="1"/>
        <pt x="504" y="64" on="1"/>
      </contour>
    </TTGlyph>
    <TTGlyph name="afii61573" xMin="-62" yMin="-62" xMax="62" yMax="555">
      <contour>
        <pt x="14" y="486" on="1"/>
        <pt x="14" y="-34" on="1"/>
        <pt x="56" y="-34" on="1"/>
        <pt x="56" y="-62" on="1"/>
        <pt x="-56" y="-62" on="1"/>
        <pt x="-56" y="-34" on="1"/>
        <pt x="-14" y="-34" on="1"/>
        <pt x="-14" y="486" on="1"/>
        <pt x="-62" y="486" on="1"/>
        <pt x="0" y="555" on="1"/>
        <pt x="62" y="486" on="1"/>
      </contour>
    </TTGlyph>
    <TTGlyph name="afii61574" xMin="-99" yMin="0" xMax="114" yMax="815">
      <contour>
        <pt x="45" y="694" on="1"/>
        <pt x="45" y="740" on="1"/>
        <pt x="-99" y="740" on="1"/>
        <pt x="-99" y="768" on="1"/>
        <pt x="45" y="768" on="1"/>
        <pt x="45" y="815" on="1"/>
        <pt x="114" y="755" on="1"/>
      </contour>
      <contour>
        <pt x="22" y="636" on="1"/>
        <pt x="22" y="628" on="0"/>
        <pt x="10" y="614" on="0"/>
        <pt x="0" y="614" on="1"/>
        <pt x="-10" y="614" on="0"/>
        <pt x="-22" y="628" on="0"/>
        <pt x="-22" y="636" on="1"/>
        <pt x="-22" y="646" on="0"/>
        <pt x="-10" y="659" on="0"/>
        <pt x="0" y="659" on="1"/>
        <pt x="10" y="659" on="0"/>
        <pt x="22" y="646" on="0"/>
      </contour>
      <contour>
        <pt x="22" y="534" on="1"/>
        <pt x="22" y="524" on="0"/>
        <pt x="10" y="512" on="0"/>
        <pt x="0" y="512" on="1"/>
        <pt x="-10" y="512" on="0"/>
        <pt x="-22" y="524" on="0"/>
        <pt x="-22" y="534" on="1"/>
        <pt x="-22" y="543" on="0"/>
        <pt x="-10" y="555" on="0"/>
        <pt x="0" y="555" on="1"/>
        <pt x="10" y="555" on="0"/>
        <pt x="22" y="543" on="0"/>
      </contour>
      <contour>
        <pt x="22" y="432" on="1"/>
        <pt x="22" y="422" on="0"/>
        <pt x="10" y="410" on="0"/>
        <pt x="0" y="410" on="1"/>
        <pt x="-10" y="410" on="0"/>
        <pt x="-22" y="422" on="0"/>
        <pt x="-22" y="432" on="1"/>
        <pt x="-22" y="440" on="0"/>
        <pt x="-10" y="454" on="0"/>
        <pt x="0" y="454" on="1"/>
        <pt x="10" y="454" on="0"/>
        <pt x="22" y="440" on="0"/>
      </contour>
      <contour>
        <pt x="22" y="328" on="1"/>
        <pt x="22" y="320" on="0"/>
        <pt x="10" y="308" on="0"/>
        <pt x="0" y="308" on="1"/>
        <pt x="-10" y="308" on="0"/>
        <pt x="-22" y="320" on="0"/>
        <pt x="-22" y="328" on="1"/>
        <pt x="-22" y="338" on="0"/>
        <pt x="-10" y="351" on="0"/>
        <pt x="0" y="351" on="1"/>
        <pt x="10" y="351" on="0"/>
        <pt x="22" y="338" on="0"/>
      </contour>
      <contour>
        <pt x="22" y="226" on="1"/>
        <pt x="22" y="218" on="0"/>
        <pt x="10" y="204" on="0"/>
        <pt x="0" y="204" on="1"/>
        <pt x="-10" y="204" on="0"/>
        <pt x="-22" y="218" on="0"/>
        <pt x="-22" y="226" on="1"/>
        <pt x="-22" y="236" on="0"/>
        <pt x="-10" y="249" on="0"/>
        <pt x="0" y="249" on="1"/>
        <pt x="10" y="249" on="0"/>
        <pt x="22" y="236" on="0"/>
      </contour>
      <contour>
        <pt x="22" y="124" on="1"/>
        <pt x="22" y="114" on="0"/>
        <pt x="10" y="102" on="0"/>
        <pt x="0" y="102" on="1"/>
        <pt x="-10" y="102" on="0"/>
        <pt x="-22" y="114" on="0"/>
        <pt x="-22" y="124" on="1"/>
        <pt x="-22" y="133" on="0"/>
        <pt x="-10" y="146" on="0"/>
        <pt x="0" y="146" on="1"/>
        <pt x="10" y="146" on="0"/>
        <pt x="22" y="133" on="0"/>
      </contour>
      <contour>
        <pt x="22" y="22" on="1"/>
        <pt x="22" y="13" on="0"/>
        <pt x="10" y="0" on="0"/>
        <pt x="0" y="0" on="1"/>
        <pt x="-10" y="0" on="0"/>
        <pt x="-22" y="13" on="0"/>
        <pt x="-22" y="22" on="1"/>
        <pt x="-22" y="30" on="0"/>
        <pt x="-10" y="43" on="0"/>
        <pt x="0" y="43" on="1"/>
        <pt x="10" y="43" on="0"/>
        <pt x="22" y="30" on="0"/>
      </contour>
    </TTGlyph>
    <TTGlyph name="afii61575" xMin="-114" yMin="0" xMax="99" yMax="815">
      <contour>
        <pt x="-45" y="740" on="1"/>
        <pt x="-45" y="694" on="1"/>
        <pt x="-114" y="755" on="1"/>
        <pt x="-45" y="815" on="1"/>
        <pt x="-45" y="768" on="1"/>
        <pt x="99" y="768" on="1"/>
        <pt x="99" y="740" on="1"/>
      </contour>
      <contour>
        <pt x="22" y="636" on="1"/>
        <pt x="22" y="628" on="0"/>
        <pt x="10" y="614" on="0"/>
        <pt x="0" y="614" on="1"/>
        <pt x="-10" y="614" on="0"/>
        <pt x="-22" y="628" on="0"/>
        <pt x="-22" y="636" on="1"/>
        <pt x="-22" y="646" on="0"/>
        <pt x="-10" y="659" on="0"/>
        <pt x="0" y="659" on="1"/>
        <pt x="10" y="659" on="0"/>
        <pt x="22" y="646" on="0"/>
      </contour>
      <contour>
        <pt x="22" y="534" on="1"/>
        <pt x="22" y="524" on="0"/>
        <pt x="10" y="512" on="0"/>
        <pt x="0" y="512" on="1"/>
        <pt x="-10" y="512" on="0"/>
        <pt x="-22" y="524" on="0"/>
        <pt x="-22" y="534" on="1"/>
        <pt x="-22" y="543" on="0"/>
        <pt x="-10" y="555" on="0"/>
        <pt x="0" y="555" on="1"/>
        <pt x="10" y="555" on="0"/>
        <pt x="22" y="543" on="0"/>
      </contour>
      <contour>
        <pt x="22" y="432" on="1"/>
        <pt x="22" y="422" on="0"/>
        <pt x="10" y="410" on="0"/>
        <pt x="0" y="410" on="1"/>
        <pt x="-10" y="410" on="0"/>
        <pt x="-22" y="422" on="0"/>
        <pt x="-22" y="432" on="1"/>
        <pt x="-22" y="440" on="0"/>
        <pt x="-10" y="454" on="0"/>
        <pt x="0" y="454" on="1"/>
        <pt x="10" y="454" on="0"/>
        <pt x="22" y="440" on="0"/>
      </contour>
      <contour>
        <pt x="22" y="328" on="1"/>
        <pt x="22" y="320" on="0"/>
        <pt x="10" y="308" on="0"/>
        <pt x="0" y="308" on="1"/>
        <pt x="-10" y="308" on="0"/>
        <pt x="-22" y="320" on="0"/>
        <pt x="-22" y="328" on="1"/>
        <pt x="-22" y="338" on="0"/>
        <pt x="-10" y="351" on="0"/>
        <pt x="0" y="351" on="1"/>
        <pt x="10" y="351" on="0"/>
        <pt x="22" y="338" on="0"/>
      </contour>
      <contour>
        <pt x="22" y="226" on="1"/>
        <pt x="22" y="218" on="0"/>
        <pt x="10" y="204" on="0"/>
        <pt x="0" y="204" on="1"/>
        <pt x="-10" y="204" on="0"/>
        <pt x="-22" y="218" on="0"/>
        <pt x="-22" y="226" on="1"/>
        <pt x="-22" y="236" on="0"/>
        <pt x="-10" y="249" on="0"/>
        <pt x="0" y="249" on="1"/>
        <pt x="10" y="249" on="0"/>
        <pt x="22" y="236" on="0"/>
      </contour>
      <contour>
        <pt x="22" y="124" on="1"/>
        <pt x="22" y="114" on="0"/>
        <pt x="10" y="102" on="0"/>
        <pt x="0" y="102" on="1"/>
        <pt x="-10" y="102" on="0"/>
        <pt x="-22" y="114" on="0"/>
        <pt x="-22" y="124" on="1"/>
        <pt x="-22" y="133" on="0"/>
        <pt x="-10" y="146" on="0"/>
        <pt x="0" y="146" on="1"/>
        <pt x="10" y="146" on="0"/>
        <pt x="22" y="133" on="0"/>
      </contour>
      <contour>
        <pt x="22" y="22" on="1"/>
        <pt x="22" y="13" on="0"/>
        <pt x="10" y="0" on="0"/>
        <pt x="0" y="0" on="1"/>
        <pt x="-10" y="0" on="0"/>
        <pt x="-22" y="13" on="0"/>
        <pt x="-22" y="22" on="1"/>
        <pt x="-22" y="30" on="0"/>
        <pt x="-10" y="43" on="0"/>
        <pt x="0" y="43" on="1"/>
        <pt x="10" y="43" on="0"/>
        <pt x="22" y="30" on="0"/>
      </contour>
    </TTGlyph>
</ttFont>
